<?xml version="1.0" encoding="utf-8" standalone="no"?>
<!DOCTYPE svg PUBLIC "-//W3C//DTD SVG 1.1//EN"
  "http://www.w3.org/Graphics/SVG/1.1/DTD/svg11.dtd">
<svg xmlns:xlink="http://www.w3.org/1999/xlink" width="1128.294556pt" height="426.031143pt" viewBox="0 0 1128.294556 426.031143" xmlns="http://www.w3.org/2000/svg" version="1.1">
 <metadata>
  <rdf:RDF xmlns:dc="http://purl.org/dc/elements/1.1/" xmlns:cc="http://creativecommons.org/ns#" xmlns:rdf="http://www.w3.org/1999/02/22-rdf-syntax-ns#">
   <cc:Work>
    <dc:type rdf:resource="http://purl.org/dc/dcmitype/StillImage"/>
    <dc:date>2025-06-04T00:54:07.347710</dc:date>
    <dc:format>image/svg+xml</dc:format>
    <dc:creator>
     <cc:Agent>
      <dc:title>Matplotlib v3.8.3, https://matplotlib.org/</dc:title>
     </cc:Agent>
    </dc:creator>
   </cc:Work>
  </rdf:RDF>
 </metadata>
 <defs>
  <style type="text/css">*{stroke-linejoin: round; stroke-linecap: butt}</style>
 </defs>
 <g id="figure_1">
  <g id="patch_1">
   <path d="M 0 426.031143 
L 1128.294556 426.031143 
L 1128.294556 0 
L 0 0 
z
" style="fill: #ffffff"/>
  </g>
  <g id="subfigure_1">
   <g id="patch_2">
    <path d="M 41.094556 183.19478 
L 215.288105 183.19478 
L 215.288105 -1 
M 41.094556 -1 
L 41.094556 183.19478 
" style="fill: none"/>
   </g>
   <g id="axes_1">
    <g id="patch_3">
     <path d="M 62.86875 119.959997 
L 197.86875 119.959997 
L 197.86875 10.39478 
L 62.86875 10.39478 
z
" style="fill: #ffffff"/>
    </g>
    <g id="matplotlib.axis_1">
     <g id="xtick_1">
      <g id="line2d_1">
       <defs>
        <path id="mf871220bc7" d="M 0 0 
L 0 3.5 
" style="stroke: #000000; stroke-width: 0.8"/>
       </defs>
       <g>
        <use xlink:href="#mf871220bc7" x="83.443616" y="119.959997" style="stroke: #000000; stroke-width: 0.8"/>
       </g>
      </g>
     </g>
     <g id="xtick_2">
      <g id="line2d_2">
       <g>
        <use xlink:href="#mf871220bc7" x="119.539873" y="119.959997" style="stroke: #000000; stroke-width: 0.8"/>
       </g>
      </g>
     </g>
     <g id="xtick_3">
      <g id="line2d_3">
       <g>
        <use xlink:href="#mf871220bc7" x="155.63613" y="119.959997" style="stroke: #000000; stroke-width: 0.8"/>
       </g>
      </g>
     </g>
     <g id="xtick_4">
      <g id="line2d_4">
       <g>
        <use xlink:href="#mf871220bc7" x="191.732386" y="119.959997" style="stroke: #000000; stroke-width: 0.8"/>
       </g>
      </g>
     </g>
    </g>
    <g id="matplotlib.axis_2">
     <g id="ytick_1">
      <g id="line2d_5">
       <defs>
        <path id="m4f70a41cbc" d="M 0 0 
L -3.5 0 
" style="stroke: #000000; stroke-width: 0.8"/>
       </defs>
       <g>
        <use xlink:href="#m4f70a41cbc" x="62.86875" y="110.271654" style="stroke: #000000; stroke-width: 0.8"/>
       </g>
      </g>
      <g id="text_1">
       <!-- 0.000 -->
       <g transform="translate(27.240625 114.070872) scale(0.1 -0.1)">
        <defs>
         <path id="DejaVuSans-30" d="M 2034 4250 
Q 1547 4250 1301 3770 
Q 1056 3291 1056 2328 
Q 1056 1369 1301 889 
Q 1547 409 2034 409 
Q 2525 409 2770 889 
Q 3016 1369 3016 2328 
Q 3016 3291 2770 3770 
Q 2525 4250 2034 4250 
z
M 2034 4750 
Q 2819 4750 3233 4129 
Q 3647 3509 3647 2328 
Q 3647 1150 3233 529 
Q 2819 -91 2034 -91 
Q 1250 -91 836 529 
Q 422 1150 422 2328 
Q 422 3509 836 4129 
Q 1250 4750 2034 4750 
z
" transform="scale(0.015625)"/>
         <path id="DejaVuSans-2e" d="M 684 794 
L 1344 794 
L 1344 0 
L 684 0 
L 684 794 
z
" transform="scale(0.015625)"/>
        </defs>
        <use xlink:href="#DejaVuSans-30"/>
        <use xlink:href="#DejaVuSans-2e" x="63.623047"/>
        <use xlink:href="#DejaVuSans-30" x="95.410156"/>
        <use xlink:href="#DejaVuSans-30" x="159.033203"/>
        <use xlink:href="#DejaVuSans-30" x="222.65625"/>
       </g>
      </g>
     </g>
     <g id="ytick_2">
      <g id="line2d_6">
       <g>
        <use xlink:href="#m4f70a41cbc" x="62.86875" y="85.453545" style="stroke: #000000; stroke-width: 0.8"/>
       </g>
      </g>
      <g id="text_2">
       <!-- 0.005 -->
       <g transform="translate(27.240625 89.252764) scale(0.1 -0.1)">
        <defs>
         <path id="DejaVuSans-35" d="M 691 4666 
L 3169 4666 
L 3169 4134 
L 1269 4134 
L 1269 2991 
Q 1406 3038 1543 3061 
Q 1681 3084 1819 3084 
Q 2600 3084 3056 2656 
Q 3513 2228 3513 1497 
Q 3513 744 3044 326 
Q 2575 -91 1722 -91 
Q 1428 -91 1123 -41 
Q 819 9 494 109 
L 494 744 
Q 775 591 1075 516 
Q 1375 441 1709 441 
Q 2250 441 2565 725 
Q 2881 1009 2881 1497 
Q 2881 1984 2565 2268 
Q 2250 2553 1709 2553 
Q 1456 2553 1204 2497 
Q 953 2441 691 2322 
L 691 4666 
z
" transform="scale(0.015625)"/>
        </defs>
        <use xlink:href="#DejaVuSans-30"/>
        <use xlink:href="#DejaVuSans-2e" x="63.623047"/>
        <use xlink:href="#DejaVuSans-30" x="95.410156"/>
        <use xlink:href="#DejaVuSans-30" x="159.033203"/>
        <use xlink:href="#DejaVuSans-35" x="222.65625"/>
       </g>
      </g>
     </g>
     <g id="ytick_3">
      <g id="line2d_7">
       <g>
        <use xlink:href="#m4f70a41cbc" x="62.86875" y="60.635436" style="stroke: #000000; stroke-width: 0.8"/>
       </g>
      </g>
      <g id="text_3">
       <!-- 0.010 -->
       <g transform="translate(27.240625 64.434655) scale(0.1 -0.1)">
        <defs>
         <path id="DejaVuSans-31" d="M 794 531 
L 1825 531 
L 1825 4091 
L 703 3866 
L 703 4441 
L 1819 4666 
L 2450 4666 
L 2450 531 
L 3481 531 
L 3481 0 
L 794 0 
L 794 531 
z
" transform="scale(0.015625)"/>
        </defs>
        <use xlink:href="#DejaVuSans-30"/>
        <use xlink:href="#DejaVuSans-2e" x="63.623047"/>
        <use xlink:href="#DejaVuSans-30" x="95.410156"/>
        <use xlink:href="#DejaVuSans-31" x="159.033203"/>
        <use xlink:href="#DejaVuSans-30" x="222.65625"/>
       </g>
      </g>
     </g>
     <g id="ytick_4">
      <g id="line2d_8">
       <g>
        <use xlink:href="#m4f70a41cbc" x="62.86875" y="35.817327" style="stroke: #000000; stroke-width: 0.8"/>
       </g>
      </g>
      <g id="text_4">
       <!-- 0.015 -->
       <g transform="translate(27.240625 39.616546) scale(0.1 -0.1)">
        <use xlink:href="#DejaVuSans-30"/>
        <use xlink:href="#DejaVuSans-2e" x="63.623047"/>
        <use xlink:href="#DejaVuSans-30" x="95.410156"/>
        <use xlink:href="#DejaVuSans-31" x="159.033203"/>
        <use xlink:href="#DejaVuSans-35" x="222.65625"/>
       </g>
      </g>
     </g>
     <g id="ytick_5">
      <g id="line2d_9">
       <g>
        <use xlink:href="#m4f70a41cbc" x="62.86875" y="10.999219" style="stroke: #000000; stroke-width: 0.8"/>
       </g>
      </g>
      <g id="text_5">
       <!-- 0.020 -->
       <g transform="translate(27.240625 14.798437) scale(0.1 -0.1)">
        <defs>
         <path id="DejaVuSans-32" d="M 1228 531 
L 3431 531 
L 3431 0 
L 469 0 
L 469 531 
Q 828 903 1448 1529 
Q 2069 2156 2228 2338 
Q 2531 2678 2651 2914 
Q 2772 3150 2772 3378 
Q 2772 3750 2511 3984 
Q 2250 4219 1831 4219 
Q 1534 4219 1204 4116 
Q 875 4013 500 3803 
L 500 4441 
Q 881 4594 1212 4672 
Q 1544 4750 1819 4750 
Q 2544 4750 2975 4387 
Q 3406 4025 3406 3419 
Q 3406 3131 3298 2873 
Q 3191 2616 2906 2266 
Q 2828 2175 2409 1742 
Q 1991 1309 1228 531 
z
" transform="scale(0.015625)"/>
        </defs>
        <use xlink:href="#DejaVuSans-30"/>
        <use xlink:href="#DejaVuSans-2e" x="63.623047"/>
        <use xlink:href="#DejaVuSans-30" x="95.410156"/>
        <use xlink:href="#DejaVuSans-32" x="159.033203"/>
        <use xlink:href="#DejaVuSans-30" x="222.65625"/>
       </g>
      </g>
     </g>
     <g id="text_6">
      <!-- Shape function -->
      <g transform="translate(21.160937 102.848482) rotate(-90) scale(0.1 -0.1)">
       <defs>
        <path id="DejaVuSans-53" d="M 3425 4513 
L 3425 3897 
Q 3066 4069 2747 4153 
Q 2428 4238 2131 4238 
Q 1616 4238 1336 4038 
Q 1056 3838 1056 3469 
Q 1056 3159 1242 3001 
Q 1428 2844 1947 2747 
L 2328 2669 
Q 3034 2534 3370 2195 
Q 3706 1856 3706 1288 
Q 3706 609 3251 259 
Q 2797 -91 1919 -91 
Q 1588 -91 1214 -16 
Q 841 59 441 206 
L 441 856 
Q 825 641 1194 531 
Q 1563 422 1919 422 
Q 2459 422 2753 634 
Q 3047 847 3047 1241 
Q 3047 1584 2836 1778 
Q 2625 1972 2144 2069 
L 1759 2144 
Q 1053 2284 737 2584 
Q 422 2884 422 3419 
Q 422 4038 858 4394 
Q 1294 4750 2059 4750 
Q 2388 4750 2728 4690 
Q 3069 4631 3425 4513 
z
" transform="scale(0.015625)"/>
        <path id="DejaVuSans-68" d="M 3513 2113 
L 3513 0 
L 2938 0 
L 2938 2094 
Q 2938 2591 2744 2837 
Q 2550 3084 2163 3084 
Q 1697 3084 1428 2787 
Q 1159 2491 1159 1978 
L 1159 0 
L 581 0 
L 581 4863 
L 1159 4863 
L 1159 2956 
Q 1366 3272 1645 3428 
Q 1925 3584 2291 3584 
Q 2894 3584 3203 3211 
Q 3513 2838 3513 2113 
z
" transform="scale(0.015625)"/>
        <path id="DejaVuSans-61" d="M 2194 1759 
Q 1497 1759 1228 1600 
Q 959 1441 959 1056 
Q 959 750 1161 570 
Q 1363 391 1709 391 
Q 2188 391 2477 730 
Q 2766 1069 2766 1631 
L 2766 1759 
L 2194 1759 
z
M 3341 1997 
L 3341 0 
L 2766 0 
L 2766 531 
Q 2569 213 2275 61 
Q 1981 -91 1556 -91 
Q 1019 -91 701 211 
Q 384 513 384 1019 
Q 384 1609 779 1909 
Q 1175 2209 1959 2209 
L 2766 2209 
L 2766 2266 
Q 2766 2663 2505 2880 
Q 2244 3097 1772 3097 
Q 1472 3097 1187 3025 
Q 903 2953 641 2809 
L 641 3341 
Q 956 3463 1253 3523 
Q 1550 3584 1831 3584 
Q 2591 3584 2966 3190 
Q 3341 2797 3341 1997 
z
" transform="scale(0.015625)"/>
        <path id="DejaVuSans-70" d="M 1159 525 
L 1159 -1331 
L 581 -1331 
L 581 3500 
L 1159 3500 
L 1159 2969 
Q 1341 3281 1617 3432 
Q 1894 3584 2278 3584 
Q 2916 3584 3314 3078 
Q 3713 2572 3713 1747 
Q 3713 922 3314 415 
Q 2916 -91 2278 -91 
Q 1894 -91 1617 61 
Q 1341 213 1159 525 
z
M 3116 1747 
Q 3116 2381 2855 2742 
Q 2594 3103 2138 3103 
Q 1681 3103 1420 2742 
Q 1159 2381 1159 1747 
Q 1159 1113 1420 752 
Q 1681 391 2138 391 
Q 2594 391 2855 752 
Q 3116 1113 3116 1747 
z
" transform="scale(0.015625)"/>
        <path id="DejaVuSans-65" d="M 3597 1894 
L 3597 1613 
L 953 1613 
Q 991 1019 1311 708 
Q 1631 397 2203 397 
Q 2534 397 2845 478 
Q 3156 559 3463 722 
L 3463 178 
Q 3153 47 2828 -22 
Q 2503 -91 2169 -91 
Q 1331 -91 842 396 
Q 353 884 353 1716 
Q 353 2575 817 3079 
Q 1281 3584 2069 3584 
Q 2775 3584 3186 3129 
Q 3597 2675 3597 1894 
z
M 3022 2063 
Q 3016 2534 2758 2815 
Q 2500 3097 2075 3097 
Q 1594 3097 1305 2825 
Q 1016 2553 972 2059 
L 3022 2063 
z
" transform="scale(0.015625)"/>
        <path id="DejaVuSans-20" transform="scale(0.015625)"/>
        <path id="DejaVuSans-66" d="M 2375 4863 
L 2375 4384 
L 1825 4384 
Q 1516 4384 1395 4259 
Q 1275 4134 1275 3809 
L 1275 3500 
L 2222 3500 
L 2222 3053 
L 1275 3053 
L 1275 0 
L 697 0 
L 697 3053 
L 147 3053 
L 147 3500 
L 697 3500 
L 697 3744 
Q 697 4328 969 4595 
Q 1241 4863 1831 4863 
L 2375 4863 
z
" transform="scale(0.015625)"/>
        <path id="DejaVuSans-75" d="M 544 1381 
L 544 3500 
L 1119 3500 
L 1119 1403 
Q 1119 906 1312 657 
Q 1506 409 1894 409 
Q 2359 409 2629 706 
Q 2900 1003 2900 1516 
L 2900 3500 
L 3475 3500 
L 3475 0 
L 2900 0 
L 2900 538 
Q 2691 219 2414 64 
Q 2138 -91 1772 -91 
Q 1169 -91 856 284 
Q 544 659 544 1381 
z
M 1991 3584 
L 1991 3584 
z
" transform="scale(0.015625)"/>
        <path id="DejaVuSans-6e" d="M 3513 2113 
L 3513 0 
L 2938 0 
L 2938 2094 
Q 2938 2591 2744 2837 
Q 2550 3084 2163 3084 
Q 1697 3084 1428 2787 
Q 1159 2491 1159 1978 
L 1159 0 
L 581 0 
L 581 3500 
L 1159 3500 
L 1159 2956 
Q 1366 3272 1645 3428 
Q 1925 3584 2291 3584 
Q 2894 3584 3203 3211 
Q 3513 2838 3513 2113 
z
" transform="scale(0.015625)"/>
        <path id="DejaVuSans-63" d="M 3122 3366 
L 3122 2828 
Q 2878 2963 2633 3030 
Q 2388 3097 2138 3097 
Q 1578 3097 1268 2742 
Q 959 2388 959 1747 
Q 959 1106 1268 751 
Q 1578 397 2138 397 
Q 2388 397 2633 464 
Q 2878 531 3122 666 
L 3122 134 
Q 2881 22 2623 -34 
Q 2366 -91 2075 -91 
Q 1284 -91 818 406 
Q 353 903 353 1747 
Q 353 2603 823 3093 
Q 1294 3584 2113 3584 
Q 2378 3584 2631 3529 
Q 2884 3475 3122 3366 
z
" transform="scale(0.015625)"/>
        <path id="DejaVuSans-74" d="M 1172 4494 
L 1172 3500 
L 2356 3500 
L 2356 3053 
L 1172 3053 
L 1172 1153 
Q 1172 725 1289 603 
Q 1406 481 1766 481 
L 2356 481 
L 2356 0 
L 1766 0 
Q 1100 0 847 248 
Q 594 497 594 1153 
L 594 3053 
L 172 3053 
L 172 3500 
L 594 3500 
L 594 4494 
L 1172 4494 
z
" transform="scale(0.015625)"/>
        <path id="DejaVuSans-69" d="M 603 3500 
L 1178 3500 
L 1178 0 
L 603 0 
L 603 3500 
z
M 603 4863 
L 1178 4863 
L 1178 4134 
L 603 4134 
L 603 4863 
z
" transform="scale(0.015625)"/>
        <path id="DejaVuSans-6f" d="M 1959 3097 
Q 1497 3097 1228 2736 
Q 959 2375 959 1747 
Q 959 1119 1226 758 
Q 1494 397 1959 397 
Q 2419 397 2687 759 
Q 2956 1122 2956 1747 
Q 2956 2369 2687 2733 
Q 2419 3097 1959 3097 
z
M 1959 3584 
Q 2709 3584 3137 3096 
Q 3566 2609 3566 1747 
Q 3566 888 3137 398 
Q 2709 -91 1959 -91 
Q 1206 -91 779 398 
Q 353 888 353 1747 
Q 353 2609 779 3096 
Q 1206 3584 1959 3584 
z
" transform="scale(0.015625)"/>
       </defs>
       <use xlink:href="#DejaVuSans-53"/>
       <use xlink:href="#DejaVuSans-68" x="63.476562"/>
       <use xlink:href="#DejaVuSans-61" x="126.855469"/>
       <use xlink:href="#DejaVuSans-70" x="188.134766"/>
       <use xlink:href="#DejaVuSans-65" x="251.611328"/>
       <use xlink:href="#DejaVuSans-20" x="313.134766"/>
       <use xlink:href="#DejaVuSans-66" x="344.921875"/>
       <use xlink:href="#DejaVuSans-75" x="380.126953"/>
       <use xlink:href="#DejaVuSans-6e" x="443.505859"/>
       <use xlink:href="#DejaVuSans-63" x="506.884766"/>
       <use xlink:href="#DejaVuSans-74" x="561.865234"/>
       <use xlink:href="#DejaVuSans-69" x="601.074219"/>
       <use xlink:href="#DejaVuSans-6f" x="628.857422"/>
       <use xlink:href="#DejaVuSans-6e" x="690.039062"/>
      </g>
     </g>
    </g>
    <g id="line2d_10">
     <path d="M 69.005114 15.375017 
L 70.244783 35.970245 
L 71.484452 52.018557 
L 72.724122 64.577464 
L 73.963791 74.44848 
L 75.203461 82.240859 
L 76.44313 88.419177 
L 77.6828 93.339032 
L 78.922469 97.273552 
L 80.162138 100.43337 
L 81.401808 102.981582 
L 82.641477 105.044941 
L 83.881147 106.722383 
L 85.120816 108.091443 
L 86.360486 109.213074 
L 87.600155 110.135447 
L 88.839824 110.896729 
L 90.079494 111.527299 
L 91.319163 112.051418 
L 92.558833 112.488538 
L 93.798502 112.854305 
L 95.038171 113.161354 
L 96.277841 113.419919 
L 97.51751 113.638321 
L 98.75718 113.823345 
L 99.996849 113.980545 
L 101.236519 114.114479 
L 102.476188 114.228899 
L 103.715857 114.326907 
L 104.955527 114.411068 
L 106.195196 114.483518 
L 107.434866 114.546033 
L 108.674535 114.6001 
L 109.914205 114.646963 
L 111.153874 114.687668 
L 112.393543 114.723095 
L 113.633213 114.753988 
L 114.872882 114.780976 
L 116.112552 114.804595 
L 117.352221 114.825298 
L 118.59189 114.843475 
L 119.83156 114.859456 
L 121.071229 114.873526 
L 122.310899 114.885927 
L 123.550568 114.896872 
L 124.790238 114.90654 
L 126.029907 114.915088 
L 127.269576 114.922652 
L 128.509246 114.92935 
L 129.748915 114.935285 
L 130.988585 114.940544 
L 132.228254 114.945204 
L 133.467924 114.949327 
L 134.707593 114.952972 
L 135.947262 114.95619 
L 137.186932 114.959029 
L 138.426601 114.961531 
L 139.666271 114.963735 
L 140.90594 114.965674 
L 142.14561 114.96738 
L 143.385279 114.968881 
L 144.624948 114.970199 
L 145.864618 114.971358 
L 147.104287 114.972376 
L 148.343957 114.973269 
L 149.583626 114.974054 
L 150.823295 114.974744 
L 152.062965 114.975349 
L 153.302634 114.975881 
L 154.542304 114.976349 
L 155.781973 114.976759 
L 157.021643 114.97712 
L 158.261312 114.977438 
L 159.500981 114.977718 
L 160.740651 114.977964 
L 161.98032 114.978181 
L 163.21999 114.978372 
L 164.459659 114.978541 
L 165.699329 114.978689 
L 166.938998 114.978821 
L 168.178667 114.978937 
L 169.418337 114.97904 
L 170.658006 114.979131 
L 171.897676 114.979212 
L 173.137345 114.979284 
L 174.377014 114.979348 
L 175.616684 114.979404 
L 176.856353 114.979454 
L 178.096023 114.979499 
L 179.335692 114.979539 
L 180.575362 114.979574 
L 181.815031 114.979606 
L 183.0547 114.979634 
L 184.29437 114.979659 
L 185.534039 114.979681 
L 186.773709 114.979701 
L 188.013378 114.979719 
L 189.253048 114.979734 
L 190.492717 114.979748 
L 191.732386 114.97976 
" clip-path="url(#p9e44f030de)" style="fill: none; stroke: #1f77b4; stroke-width: 1.5; stroke-linecap: square"/>
    </g>
    <g id="patch_4">
     <path d="M 62.86875 119.959997 
L 62.86875 10.39478 
" style="fill: none; stroke: #000000; stroke-width: 0.8; stroke-linejoin: miter; stroke-linecap: square"/>
    </g>
    <g id="patch_5">
     <path d="M 197.86875 119.959997 
L 197.86875 10.39478 
" style="fill: none; stroke: #000000; stroke-width: 0.8; stroke-linejoin: miter; stroke-linecap: square"/>
    </g>
    <g id="patch_6">
     <path d="M 62.86875 119.959997 
L 197.86875 119.959997 
" style="fill: none; stroke: #000000; stroke-width: 0.8; stroke-linejoin: miter; stroke-linecap: square"/>
    </g>
    <g id="patch_7">
     <path d="M 62.86875 10.39478 
L 197.86875 10.39478 
" style="fill: none; stroke: #000000; stroke-width: 0.8; stroke-linejoin: miter; stroke-linecap: square"/>
    </g>
   </g>
   <g id="axes_2">
    <g id="patch_8">
     <path d="M 62.86875 161.59478 
L 197.86875 161.59478 
L 197.86875 139.681736 
L 62.86875 139.681736 
z
" style="fill: #ffffff"/>
    </g>
    <g id="patch_9">
     <path d="M 69.005114 161.59478 
L 69.005114 158.613413 
L 75.141477 158.613413 
L 75.141477 151.159997 
L 81.277841 151.159997 
L 81.277841 152.65068 
L 87.414205 152.65068 
L 87.414205 146.687947 
L 93.550568 146.687947 
L 93.550568 152.65068 
L 99.686932 152.65068 
L 99.686932 140.725214 
L 105.823295 140.725214 
L 105.823295 161.59478 
L 111.959659 161.59478 
L 111.959659 149.669314 
L 118.096023 149.669314 
L 118.096023 151.159997 
L 124.232386 151.159997 
L 124.232386 155.632047 
L 130.36875 155.632047 
L 130.36875 155.632047 
L 136.505114 155.632047 
L 136.505114 160.104096 
L 142.641477 160.104096 
L 142.641477 155.632047 
L 148.777841 155.632047 
L 148.777841 161.59478 
L 154.914205 161.59478 
L 154.914205 161.59478 
L 161.050568 161.59478 
L 161.050568 161.59478 
L 167.186932 161.59478 
L 167.186932 161.59478 
L 173.323295 161.59478 
L 173.323295 161.59478 
L 179.459659 161.59478 
L 179.459659 161.59478 
L 185.596023 161.59478 
L 185.596023 158.613413 
L 191.732386 158.613413 
L 191.732386 161.59478 
" clip-path="url(#p5b9cfb92ca)" style="fill: #1f77b4"/>
    </g>
    <g id="matplotlib.axis_3">
     <g id="xtick_5">
      <g id="line2d_11">
       <g>
        <use xlink:href="#mf871220bc7" x="83.443616" y="161.59478" style="stroke: #000000; stroke-width: 0.8"/>
       </g>
      </g>
      <g id="text_7">
       <!-- 2.5 -->
       <g transform="translate(75.492054 176.193217) scale(0.1 -0.1)">
        <use xlink:href="#DejaVuSans-32"/>
        <use xlink:href="#DejaVuSans-2e" x="63.623047"/>
        <use xlink:href="#DejaVuSans-35" x="95.410156"/>
       </g>
      </g>
     </g>
     <g id="xtick_6">
      <g id="line2d_12">
       <g>
        <use xlink:href="#mf871220bc7" x="119.539873" y="161.59478" style="stroke: #000000; stroke-width: 0.8"/>
       </g>
      </g>
      <g id="text_8">
       <!-- 5.0 -->
       <g transform="translate(111.58831 176.193217) scale(0.1 -0.1)">
        <use xlink:href="#DejaVuSans-35"/>
        <use xlink:href="#DejaVuSans-2e" x="63.623047"/>
        <use xlink:href="#DejaVuSans-30" x="95.410156"/>
       </g>
      </g>
     </g>
     <g id="xtick_7">
      <g id="line2d_13">
       <g>
        <use xlink:href="#mf871220bc7" x="155.63613" y="161.59478" style="stroke: #000000; stroke-width: 0.8"/>
       </g>
      </g>
      <g id="text_9">
       <!-- 7.5 -->
       <g transform="translate(147.684567 176.193217) scale(0.1 -0.1)">
        <defs>
         <path id="DejaVuSans-37" d="M 525 4666 
L 3525 4666 
L 3525 4397 
L 1831 0 
L 1172 0 
L 2766 4134 
L 525 4134 
L 525 4666 
z
" transform="scale(0.015625)"/>
        </defs>
        <use xlink:href="#DejaVuSans-37"/>
        <use xlink:href="#DejaVuSans-2e" x="63.623047"/>
        <use xlink:href="#DejaVuSans-35" x="95.410156"/>
       </g>
      </g>
     </g>
     <g id="xtick_8">
      <g id="line2d_14">
       <g>
        <use xlink:href="#mf871220bc7" x="191.732386" y="161.59478" style="stroke: #000000; stroke-width: 0.8"/>
       </g>
      </g>
      <g id="text_10">
       <!-- 10.0 -->
       <g transform="translate(180.599574 176.193217) scale(0.1 -0.1)">
        <use xlink:href="#DejaVuSans-31"/>
        <use xlink:href="#DejaVuSans-30" x="63.623047"/>
        <use xlink:href="#DejaVuSans-2e" x="127.246094"/>
        <use xlink:href="#DejaVuSans-30" x="159.033203"/>
       </g>
      </g>
     </g>
     <g id="text_11">
      <!-- DOSE -->
      <g transform="translate(116.249219 189.871342) scale(0.1 -0.1)">
       <defs>
        <path id="DejaVuSans-44" d="M 1259 4147 
L 1259 519 
L 2022 519 
Q 2988 519 3436 956 
Q 3884 1394 3884 2338 
Q 3884 3275 3436 3711 
Q 2988 4147 2022 4147 
L 1259 4147 
z
M 628 4666 
L 1925 4666 
Q 3281 4666 3915 4102 
Q 4550 3538 4550 2338 
Q 4550 1131 3912 565 
Q 3275 0 1925 0 
L 628 0 
L 628 4666 
z
" transform="scale(0.015625)"/>
        <path id="DejaVuSans-4f" d="M 2522 4238 
Q 1834 4238 1429 3725 
Q 1025 3213 1025 2328 
Q 1025 1447 1429 934 
Q 1834 422 2522 422 
Q 3209 422 3611 934 
Q 4013 1447 4013 2328 
Q 4013 3213 3611 3725 
Q 3209 4238 2522 4238 
z
M 2522 4750 
Q 3503 4750 4090 4092 
Q 4678 3434 4678 2328 
Q 4678 1225 4090 567 
Q 3503 -91 2522 -91 
Q 1538 -91 948 565 
Q 359 1222 359 2328 
Q 359 3434 948 4092 
Q 1538 4750 2522 4750 
z
" transform="scale(0.015625)"/>
        <path id="DejaVuSans-45" d="M 628 4666 
L 3578 4666 
L 3578 4134 
L 1259 4134 
L 1259 2753 
L 3481 2753 
L 3481 2222 
L 1259 2222 
L 1259 531 
L 3634 531 
L 3634 0 
L 628 0 
L 628 4666 
z
" transform="scale(0.015625)"/>
       </defs>
       <use xlink:href="#DejaVuSans-44"/>
       <use xlink:href="#DejaVuSans-4f" x="77.001953"/>
       <use xlink:href="#DejaVuSans-53" x="155.712891"/>
       <use xlink:href="#DejaVuSans-45" x="219.189453"/>
      </g>
     </g>
    </g>
    <g id="matplotlib.axis_4">
     <g id="ytick_6">
      <g id="line2d_15">
       <g>
        <use xlink:href="#m4f70a41cbc" x="62.86875" y="161.59478" style="stroke: #000000; stroke-width: 0.8"/>
       </g>
      </g>
      <g id="text_12">
       <!-- 0 -->
       <g transform="translate(49.50625 165.393998) scale(0.1 -0.1)">
        <use xlink:href="#DejaVuSans-30"/>
       </g>
      </g>
     </g>
     <g id="ytick_7">
      <g id="line2d_16">
       <g>
        <use xlink:href="#m4f70a41cbc" x="62.86875" y="146.687947" style="stroke: #000000; stroke-width: 0.8"/>
       </g>
      </g>
      <g id="text_13">
       <!-- 10 -->
       <g transform="translate(43.14375 150.487166) scale(0.1 -0.1)">
        <use xlink:href="#DejaVuSans-31"/>
        <use xlink:href="#DejaVuSans-30" x="63.623047"/>
       </g>
      </g>
     </g>
     <g id="text_14">
      <!-- Frequency -->
      <g transform="translate(37.064062 176.467945) rotate(-90) scale(0.1 -0.1)">
       <defs>
        <path id="DejaVuSans-46" d="M 628 4666 
L 3309 4666 
L 3309 4134 
L 1259 4134 
L 1259 2759 
L 3109 2759 
L 3109 2228 
L 1259 2228 
L 1259 0 
L 628 0 
L 628 4666 
z
" transform="scale(0.015625)"/>
        <path id="DejaVuSans-72" d="M 2631 2963 
Q 2534 3019 2420 3045 
Q 2306 3072 2169 3072 
Q 1681 3072 1420 2755 
Q 1159 2438 1159 1844 
L 1159 0 
L 581 0 
L 581 3500 
L 1159 3500 
L 1159 2956 
Q 1341 3275 1631 3429 
Q 1922 3584 2338 3584 
Q 2397 3584 2469 3576 
Q 2541 3569 2628 3553 
L 2631 2963 
z
" transform="scale(0.015625)"/>
        <path id="DejaVuSans-71" d="M 947 1747 
Q 947 1113 1208 752 
Q 1469 391 1925 391 
Q 2381 391 2643 752 
Q 2906 1113 2906 1747 
Q 2906 2381 2643 2742 
Q 2381 3103 1925 3103 
Q 1469 3103 1208 2742 
Q 947 2381 947 1747 
z
M 2906 525 
Q 2725 213 2448 61 
Q 2172 -91 1784 -91 
Q 1150 -91 751 415 
Q 353 922 353 1747 
Q 353 2572 751 3078 
Q 1150 3584 1784 3584 
Q 2172 3584 2448 3432 
Q 2725 3281 2906 2969 
L 2906 3500 
L 3481 3500 
L 3481 -1331 
L 2906 -1331 
L 2906 525 
z
" transform="scale(0.015625)"/>
        <path id="DejaVuSans-79" d="M 2059 -325 
Q 1816 -950 1584 -1140 
Q 1353 -1331 966 -1331 
L 506 -1331 
L 506 -850 
L 844 -850 
Q 1081 -850 1212 -737 
Q 1344 -625 1503 -206 
L 1606 56 
L 191 3500 
L 800 3500 
L 1894 763 
L 2988 3500 
L 3597 3500 
L 2059 -325 
z
" transform="scale(0.015625)"/>
       </defs>
       <use xlink:href="#DejaVuSans-46"/>
       <use xlink:href="#DejaVuSans-72" x="50.269531"/>
       <use xlink:href="#DejaVuSans-65" x="89.132812"/>
       <use xlink:href="#DejaVuSans-71" x="150.65625"/>
       <use xlink:href="#DejaVuSans-75" x="214.132812"/>
       <use xlink:href="#DejaVuSans-65" x="277.511719"/>
       <use xlink:href="#DejaVuSans-6e" x="339.035156"/>
       <use xlink:href="#DejaVuSans-63" x="402.414062"/>
       <use xlink:href="#DejaVuSans-79" x="457.394531"/>
      </g>
     </g>
    </g>
    <g id="patch_10">
     <path d="M 62.86875 161.59478 
L 62.86875 139.681736 
" style="fill: none; stroke: #000000; stroke-width: 0.8; stroke-linejoin: miter; stroke-linecap: square"/>
    </g>
    <g id="patch_11">
     <path d="M 197.86875 161.59478 
L 197.86875 139.681736 
" style="fill: none; stroke: #000000; stroke-width: 0.8; stroke-linejoin: miter; stroke-linecap: square"/>
    </g>
    <g id="patch_12">
     <path d="M 62.86875 161.59478 
L 197.86875 161.59478 
" style="fill: none; stroke: #000000; stroke-width: 0.8; stroke-linejoin: miter; stroke-linecap: square"/>
    </g>
    <g id="patch_13">
     <path d="M 62.86875 139.681736 
L 197.86875 139.681736 
" style="fill: none; stroke: #000000; stroke-width: 0.8; stroke-linejoin: miter; stroke-linecap: square"/>
    </g>
   </g>
  </g>
  <g id="subfigure_2">
   <g id="patch_14">
    <path d="M 41.094556 418.831143 
L 215.288105 418.831143 
L 215.288105 222.467507 
L 41.094556 222.467507 
L 41.094556 418.831143 
z
" style="fill: none"/>
   </g>
   <g id="axes_3">
    <g id="patch_15">
     <path d="M 62.86875 355.596361 
L 197.86875 355.596361 
L 197.86875 246.031143 
L 62.86875 246.031143 
z
" style="fill: #ffffff"/>
    </g>
    <g id="matplotlib.axis_5"/>
    <g id="matplotlib.axis_6">
     <g id="ytick_8">
      <g id="line2d_17">
       <g>
        <use xlink:href="#m4f70a41cbc" x="62.86875" y="350.282701" style="stroke: #000000; stroke-width: 0.8"/>
       </g>
      </g>
      <g id="text_15">
       <!-- 0.0875 -->
       <g transform="translate(20.878125 354.081919) scale(0.1 -0.1)">
        <defs>
         <path id="DejaVuSans-38" d="M 2034 2216 
Q 1584 2216 1326 1975 
Q 1069 1734 1069 1313 
Q 1069 891 1326 650 
Q 1584 409 2034 409 
Q 2484 409 2743 651 
Q 3003 894 3003 1313 
Q 3003 1734 2745 1975 
Q 2488 2216 2034 2216 
z
M 1403 2484 
Q 997 2584 770 2862 
Q 544 3141 544 3541 
Q 544 4100 942 4425 
Q 1341 4750 2034 4750 
Q 2731 4750 3128 4425 
Q 3525 4100 3525 3541 
Q 3525 3141 3298 2862 
Q 3072 2584 2669 2484 
Q 3125 2378 3379 2068 
Q 3634 1759 3634 1313 
Q 3634 634 3220 271 
Q 2806 -91 2034 -91 
Q 1263 -91 848 271 
Q 434 634 434 1313 
Q 434 1759 690 2068 
Q 947 2378 1403 2484 
z
M 1172 3481 
Q 1172 3119 1398 2916 
Q 1625 2713 2034 2713 
Q 2441 2713 2670 2916 
Q 2900 3119 2900 3481 
Q 2900 3844 2670 4047 
Q 2441 4250 2034 4250 
Q 1625 4250 1398 4047 
Q 1172 3844 1172 3481 
z
" transform="scale(0.015625)"/>
        </defs>
        <use xlink:href="#DejaVuSans-30"/>
        <use xlink:href="#DejaVuSans-2e" x="63.623047"/>
        <use xlink:href="#DejaVuSans-30" x="95.410156"/>
        <use xlink:href="#DejaVuSans-38" x="159.033203"/>
        <use xlink:href="#DejaVuSans-37" x="222.65625"/>
        <use xlink:href="#DejaVuSans-35" x="286.279297"/>
       </g>
      </g>
     </g>
     <g id="ytick_9">
      <g id="line2d_18">
       <g>
        <use xlink:href="#m4f70a41cbc" x="62.86875" y="323.237601" style="stroke: #000000; stroke-width: 0.8"/>
       </g>
      </g>
      <g id="text_16">
       <!-- 0.0900 -->
       <g transform="translate(20.878125 327.03682) scale(0.1 -0.1)">
        <defs>
         <path id="DejaVuSans-39" d="M 703 97 
L 703 672 
Q 941 559 1184 500 
Q 1428 441 1663 441 
Q 2288 441 2617 861 
Q 2947 1281 2994 2138 
Q 2813 1869 2534 1725 
Q 2256 1581 1919 1581 
Q 1219 1581 811 2004 
Q 403 2428 403 3163 
Q 403 3881 828 4315 
Q 1253 4750 1959 4750 
Q 2769 4750 3195 4129 
Q 3622 3509 3622 2328 
Q 3622 1225 3098 567 
Q 2575 -91 1691 -91 
Q 1453 -91 1209 -44 
Q 966 3 703 97 
z
M 1959 2075 
Q 2384 2075 2632 2365 
Q 2881 2656 2881 3163 
Q 2881 3666 2632 3958 
Q 2384 4250 1959 4250 
Q 1534 4250 1286 3958 
Q 1038 3666 1038 3163 
Q 1038 2656 1286 2365 
Q 1534 2075 1959 2075 
z
" transform="scale(0.015625)"/>
        </defs>
        <use xlink:href="#DejaVuSans-30"/>
        <use xlink:href="#DejaVuSans-2e" x="63.623047"/>
        <use xlink:href="#DejaVuSans-30" x="95.410156"/>
        <use xlink:href="#DejaVuSans-39" x="159.033203"/>
        <use xlink:href="#DejaVuSans-30" x="222.65625"/>
        <use xlink:href="#DejaVuSans-30" x="286.279297"/>
       </g>
      </g>
     </g>
     <g id="ytick_10">
      <g id="line2d_19">
       <g>
        <use xlink:href="#m4f70a41cbc" x="62.86875" y="296.192502" style="stroke: #000000; stroke-width: 0.8"/>
       </g>
      </g>
      <g id="text_17">
       <!-- 0.0925 -->
       <g transform="translate(20.878125 299.99172) scale(0.1 -0.1)">
        <use xlink:href="#DejaVuSans-30"/>
        <use xlink:href="#DejaVuSans-2e" x="63.623047"/>
        <use xlink:href="#DejaVuSans-30" x="95.410156"/>
        <use xlink:href="#DejaVuSans-39" x="159.033203"/>
        <use xlink:href="#DejaVuSans-32" x="222.65625"/>
        <use xlink:href="#DejaVuSans-35" x="286.279297"/>
       </g>
      </g>
     </g>
     <g id="ytick_11">
      <g id="line2d_20">
       <g>
        <use xlink:href="#m4f70a41cbc" x="62.86875" y="269.147402" style="stroke: #000000; stroke-width: 0.8"/>
       </g>
      </g>
      <g id="text_18">
       <!-- 0.0950 -->
       <g transform="translate(20.878125 272.946621) scale(0.1 -0.1)">
        <use xlink:href="#DejaVuSans-30"/>
        <use xlink:href="#DejaVuSans-2e" x="63.623047"/>
        <use xlink:href="#DejaVuSans-30" x="95.410156"/>
        <use xlink:href="#DejaVuSans-39" x="159.033203"/>
        <use xlink:href="#DejaVuSans-35" x="222.65625"/>
        <use xlink:href="#DejaVuSans-30" x="286.279297"/>
       </g>
      </g>
     </g>
     <g id="text_19">
      <!-- Bias -->
      <g transform="translate(14.798437 311.302033) rotate(-90) scale(0.1 -0.1)">
       <defs>
        <path id="DejaVuSans-42" d="M 1259 2228 
L 1259 519 
L 2272 519 
Q 2781 519 3026 730 
Q 3272 941 3272 1375 
Q 3272 1813 3026 2020 
Q 2781 2228 2272 2228 
L 1259 2228 
z
M 1259 4147 
L 1259 2741 
L 2194 2741 
Q 2656 2741 2882 2914 
Q 3109 3088 3109 3444 
Q 3109 3797 2882 3972 
Q 2656 4147 2194 4147 
L 1259 4147 
z
M 628 4666 
L 2241 4666 
Q 2963 4666 3353 4366 
Q 3744 4066 3744 3513 
Q 3744 3084 3544 2831 
Q 3344 2578 2956 2516 
Q 3422 2416 3680 2098 
Q 3938 1781 3938 1306 
Q 3938 681 3513 340 
Q 3088 0 2303 0 
L 628 0 
L 628 4666 
z
" transform="scale(0.015625)"/>
        <path id="DejaVuSans-73" d="M 2834 3397 
L 2834 2853 
Q 2591 2978 2328 3040 
Q 2066 3103 1784 3103 
Q 1356 3103 1142 2972 
Q 928 2841 928 2578 
Q 928 2378 1081 2264 
Q 1234 2150 1697 2047 
L 1894 2003 
Q 2506 1872 2764 1633 
Q 3022 1394 3022 966 
Q 3022 478 2636 193 
Q 2250 -91 1575 -91 
Q 1294 -91 989 -36 
Q 684 19 347 128 
L 347 722 
Q 666 556 975 473 
Q 1284 391 1588 391 
Q 1994 391 2212 530 
Q 2431 669 2431 922 
Q 2431 1156 2273 1281 
Q 2116 1406 1581 1522 
L 1381 1569 
Q 847 1681 609 1914 
Q 372 2147 372 2553 
Q 372 3047 722 3315 
Q 1072 3584 1716 3584 
Q 2034 3584 2315 3537 
Q 2597 3491 2834 3397 
z
" transform="scale(0.015625)"/>
       </defs>
       <use xlink:href="#DejaVuSans-42"/>
       <use xlink:href="#DejaVuSans-69" x="68.603516"/>
       <use xlink:href="#DejaVuSans-61" x="96.386719"/>
       <use xlink:href="#DejaVuSans-73" x="157.666016"/>
      </g>
     </g>
    </g>
    <g id="line2d_21">
     <path d="M 69.005114 300.813752 
L 70.244783 300.813752 
L 71.484452 300.813752 
L 72.724122 300.813752 
L 73.963791 300.813752 
L 75.203461 300.813752 
L 76.44313 300.813752 
L 77.6828 300.813752 
L 78.922469 300.813752 
L 80.162138 300.813752 
L 81.401808 300.813752 
L 82.641477 300.813752 
L 83.881147 300.813752 
L 85.120816 300.813752 
L 86.360486 300.813752 
L 87.600155 300.813752 
L 88.839824 300.813752 
L 90.079494 300.813752 
L 91.319163 300.813752 
L 92.558833 300.813752 
L 93.798502 300.813752 
L 95.038171 300.813752 
L 96.277841 300.813752 
L 97.51751 300.813752 
L 98.75718 300.813752 
L 99.996849 300.813752 
L 101.236519 300.813752 
L 102.476188 300.813752 
L 103.715857 300.813752 
L 104.955527 300.813752 
L 106.195196 300.813752 
L 107.434866 300.813752 
L 108.674535 300.813752 
L 109.914205 300.813752 
L 111.153874 300.813752 
L 112.393543 300.813752 
L 113.633213 300.813752 
L 114.872882 300.813752 
L 116.112552 300.813752 
L 117.352221 300.813752 
L 118.59189 300.813752 
L 119.83156 300.813752 
L 121.071229 300.813752 
L 122.310899 300.813752 
L 123.550568 300.813752 
L 124.790238 300.813752 
L 126.029907 300.813752 
L 127.269576 300.813752 
L 128.509246 300.813752 
L 129.748915 300.813752 
L 130.988585 300.813752 
L 132.228254 300.813752 
L 133.467924 300.813752 
L 134.707593 300.813752 
L 135.947262 300.813752 
L 137.186932 300.813752 
L 138.426601 300.813752 
L 139.666271 300.813752 
L 140.90594 300.813752 
L 142.14561 300.813752 
L 143.385279 300.813752 
L 144.624948 300.813752 
L 145.864618 300.813752 
L 147.104287 300.813752 
L 148.343957 300.813752 
L 149.583626 300.813752 
L 150.823295 300.813752 
L 152.062965 300.813752 
L 153.302634 300.813752 
L 154.542304 300.813752 
L 155.781973 300.813752 
L 157.021643 300.813752 
L 158.261312 300.813752 
L 159.500981 300.813752 
L 160.740651 300.813752 
L 161.98032 300.813752 
L 163.21999 300.813752 
L 164.459659 300.813752 
L 165.699329 300.813752 
L 166.938998 300.813752 
L 168.178667 300.813752 
L 169.418337 300.813752 
L 170.658006 300.813752 
L 171.897676 300.813752 
L 173.137345 300.813752 
L 174.377014 300.813752 
L 175.616684 300.813752 
L 176.856353 300.813752 
L 178.096023 300.813752 
L 179.335692 300.813752 
L 180.575362 300.813752 
L 181.815031 300.813752 
L 183.0547 300.813752 
L 184.29437 300.813752 
L 185.534039 300.813752 
L 186.773709 300.813752 
L 188.013378 300.813752 
L 189.253048 300.813752 
L 190.492717 300.813752 
L 191.732386 300.813752 
" clip-path="url(#pdf8c8ea6e2)" style="fill: none; stroke: #1f77b4; stroke-width: 1.5; stroke-linecap: square"/>
    </g>
    <g id="patch_16">
     <path d="M 62.86875 355.596361 
L 62.86875 246.031143 
" style="fill: none; stroke: #000000; stroke-width: 0.8; stroke-linejoin: miter; stroke-linecap: square"/>
    </g>
    <g id="patch_17">
     <path d="M 197.86875 355.596361 
L 197.86875 246.031143 
" style="fill: none; stroke: #000000; stroke-width: 0.8; stroke-linejoin: miter; stroke-linecap: square"/>
    </g>
    <g id="patch_18">
     <path d="M 62.86875 355.596361 
L 197.86875 355.596361 
" style="fill: none; stroke: #000000; stroke-width: 0.8; stroke-linejoin: miter; stroke-linecap: square"/>
    </g>
    <g id="patch_19">
     <path d="M 62.86875 246.031143 
L 197.86875 246.031143 
" style="fill: none; stroke: #000000; stroke-width: 0.8; stroke-linejoin: miter; stroke-linecap: square"/>
    </g>
   </g>
   <g id="axes_4">
    <g id="patch_20">
     <path d="M 62.86875 397.231143 
L 197.86875 397.231143 
L 197.86875 375.3181 
L 62.86875 375.3181 
z
" style="fill: #ffffff"/>
    </g>
    <g id="matplotlib.axis_7"/>
    <g id="matplotlib.axis_8"/>
    <g id="patch_21">
     <path d="M 62.86875 397.231143 
L 62.86875 375.3181 
" style="fill: none; stroke: #000000; stroke-width: 0.8; stroke-linejoin: miter; stroke-linecap: square"/>
    </g>
    <g id="patch_22">
     <path d="M 197.86875 397.231143 
L 197.86875 375.3181 
" style="fill: none; stroke: #000000; stroke-width: 0.8; stroke-linejoin: miter; stroke-linecap: square"/>
    </g>
    <g id="patch_23">
     <path d="M 62.86875 397.231143 
L 197.86875 397.231143 
" style="fill: none; stroke: #000000; stroke-width: 0.8; stroke-linejoin: miter; stroke-linecap: square"/>
    </g>
    <g id="patch_24">
     <path d="M 62.86875 375.3181 
L 197.86875 375.3181 
" style="fill: none; stroke: #000000; stroke-width: 0.8; stroke-linejoin: miter; stroke-linecap: square"/>
    </g>
   </g>
  </g>
  <g id="subfigure_3">
   <g id="patch_25">
    <path d="M 267.546169 183.19478 
L 441.739718 183.19478 
L 441.739718 -1 
M 267.546169 -1 
L 267.546169 183.19478 
" style="fill: none"/>
   </g>
   <g id="axes_5">
    <g id="patch_26">
     <path d="M 289.320363 119.959997 
L 424.320363 119.959997 
L 424.320363 10.39478 
L 289.320363 10.39478 
z
" style="fill: #ffffff"/>
    </g>
    <g id="matplotlib.axis_9">
     <g id="xtick_9">
      <g id="line2d_22">
       <g>
        <use xlink:href="#mf871220bc7" x="309.63017" y="119.959997" style="stroke: #000000; stroke-width: 0.8"/>
       </g>
      </g>
     </g>
     <g id="xtick_10">
      <g id="line2d_23">
       <g>
        <use xlink:href="#mf871220bc7" x="350.593879" y="119.959997" style="stroke: #000000; stroke-width: 0.8"/>
       </g>
      </g>
     </g>
     <g id="xtick_11">
      <g id="line2d_24">
       <g>
        <use xlink:href="#mf871220bc7" x="391.557588" y="119.959997" style="stroke: #000000; stroke-width: 0.8"/>
       </g>
      </g>
     </g>
    </g>
    <g id="matplotlib.axis_10">
     <g id="ytick_12">
      <g id="line2d_25">
       <g>
        <use xlink:href="#m4f70a41cbc" x="289.320363" y="85.762937" style="stroke: #000000; stroke-width: 0.8"/>
       </g>
      </g>
      <g id="text_20">
       <!-- −0.01 -->
       <g transform="translate(251.67505 89.562156) scale(0.1 -0.1)">
        <defs>
         <path id="DejaVuSans-2212" d="M 678 2272 
L 4684 2272 
L 4684 1741 
L 678 1741 
L 678 2272 
z
" transform="scale(0.015625)"/>
        </defs>
        <use xlink:href="#DejaVuSans-2212"/>
        <use xlink:href="#DejaVuSans-30" x="83.789062"/>
        <use xlink:href="#DejaVuSans-2e" x="147.412109"/>
        <use xlink:href="#DejaVuSans-30" x="179.199219"/>
        <use xlink:href="#DejaVuSans-31" x="242.822266"/>
       </g>
      </g>
     </g>
     <g id="ytick_13">
      <g id="line2d_26">
       <g>
        <use xlink:href="#m4f70a41cbc" x="289.320363" y="47.578648" style="stroke: #000000; stroke-width: 0.8"/>
       </g>
      </g>
      <g id="text_21">
       <!-- 0.00 -->
       <g transform="translate(260.054738 51.377867) scale(0.1 -0.1)">
        <use xlink:href="#DejaVuSans-30"/>
        <use xlink:href="#DejaVuSans-2e" x="63.623047"/>
        <use xlink:href="#DejaVuSans-30" x="95.410156"/>
        <use xlink:href="#DejaVuSans-30" x="159.033203"/>
       </g>
      </g>
     </g>
     <g id="text_22">
      <!-- Shape function -->
      <g transform="translate(245.595363 102.848482) rotate(-90) scale(0.1 -0.1)">
       <use xlink:href="#DejaVuSans-53"/>
       <use xlink:href="#DejaVuSans-68" x="63.476562"/>
       <use xlink:href="#DejaVuSans-61" x="126.855469"/>
       <use xlink:href="#DejaVuSans-70" x="188.134766"/>
       <use xlink:href="#DejaVuSans-65" x="251.611328"/>
       <use xlink:href="#DejaVuSans-20" x="313.134766"/>
       <use xlink:href="#DejaVuSans-66" x="344.921875"/>
       <use xlink:href="#DejaVuSans-75" x="380.126953"/>
       <use xlink:href="#DejaVuSans-6e" x="443.505859"/>
       <use xlink:href="#DejaVuSans-63" x="506.884766"/>
       <use xlink:href="#DejaVuSans-74" x="561.865234"/>
       <use xlink:href="#DejaVuSans-69" x="601.074219"/>
       <use xlink:href="#DejaVuSans-6f" x="628.857422"/>
       <use xlink:href="#DejaVuSans-6e" x="690.039062"/>
      </g>
     </g>
    </g>
    <g id="line2d_27">
     <path d="M 295.456727 49.881188 
L 296.696396 45.706962 
L 297.936065 41.885944 
L 299.175735 38.4759 
L 300.415404 35.523637 
L 301.655074 33.064141 
L 302.894743 31.119261 
L 304.134412 29.698066 
L 305.374082 28.796821 
L 306.613751 28.399908 
L 307.853421 28.480939 
L 309.09309 29.004453 
L 310.33276 29.927533 
L 311.572429 31.201729 
L 312.812098 32.774824 
L 314.051768 34.592911 
L 315.291437 36.601937 
L 316.531107 38.749264 
L 317.770776 40.984969 
L 319.010446 43.262978 
L 320.250115 45.541642 
L 321.489784 47.784452 
L 322.729454 49.960107 
L 323.969123 52.042825 
L 325.208793 54.011922 
L 326.448462 55.851702 
L 327.688131 57.550892 
L 328.927801 59.102344 
L 330.16747 60.502209 
L 331.40714 61.749578 
L 332.646809 62.845791 
L 333.886479 63.793931 
L 335.126148 64.598217 
L 336.365817 65.26369 
L 337.605487 65.795614 
L 338.845156 66.199238 
L 340.084826 66.479359 
L 341.324495 66.640198 
L 342.564165 66.685092 
L 343.803834 66.61629 
L 345.043503 66.434871 
L 346.283173 66.140582 
L 347.522842 65.731699 
L 348.762512 65.204945 
L 350.002181 64.555411 
L 351.241851 63.776296 
L 352.48152 62.858917 
L 353.721189 61.79248 
L 354.960859 60.563802 
L 356.200528 59.15712 
L 357.440198 57.554427 
L 358.679867 55.751332 
L 359.919536 53.759532 
L 361.159206 51.592732 
L 362.398875 49.266551 
L 363.638545 46.798968 
L 364.878214 44.210717 
L 366.117884 41.525936 
L 367.357553 38.772201 
L 368.597222 35.981048 
L 369.836892 33.188124 
L 371.076561 30.432974 
L 372.316231 27.759203 
L 373.5559 25.214024 
L 374.79557 22.847729 
L 376.035239 20.712821 
L 377.274908 18.863432 
L 378.514578 17.353645 
L 379.754247 16.236376 
L 380.993917 15.561703 
L 382.233586 15.375017 
L 383.473255 15.715394 
L 384.712925 16.613673 
L 385.952594 18.090587 
L 387.192264 20.155474 
L 388.431933 22.804834 
L 389.671603 26.021457 
L 390.911272 29.774133 
L 392.150941 34.017726 
L 393.390611 38.694022 
L 394.63028 43.733064 
L 395.86995 49.055235 
L 397.109619 54.573636 
L 398.349289 60.197298 
L 399.588958 65.834142 
L 400.828627 71.394421 
L 402.068297 76.794064 
L 403.307966 81.957408 
L 404.547636 86.819821 
L 405.787305 91.329481 
L 407.026974 95.448572 
L 408.266644 99.153584 
L 409.506313 102.435001 
L 410.745983 105.296186 
L 411.985652 107.751784 
L 413.225322 109.825704 
L 414.464991 111.548855 
L 415.70466 112.956808 
L 416.94433 114.087612 
L 418.183999 114.97976 
" clip-path="url(#p299f6c5e27)" style="fill: none; stroke: #1f77b4; stroke-width: 1.5; stroke-linecap: square"/>
    </g>
    <g id="patch_27">
     <path d="M 289.320363 119.959997 
L 289.320363 10.39478 
" style="fill: none; stroke: #000000; stroke-width: 0.8; stroke-linejoin: miter; stroke-linecap: square"/>
    </g>
    <g id="patch_28">
     <path d="M 424.320363 119.959997 
L 424.320363 10.39478 
" style="fill: none; stroke: #000000; stroke-width: 0.8; stroke-linejoin: miter; stroke-linecap: square"/>
    </g>
    <g id="patch_29">
     <path d="M 289.320363 119.959997 
L 424.320363 119.959997 
" style="fill: none; stroke: #000000; stroke-width: 0.8; stroke-linejoin: miter; stroke-linecap: square"/>
    </g>
    <g id="patch_30">
     <path d="M 289.320363 10.39478 
L 424.320363 10.39478 
" style="fill: none; stroke: #000000; stroke-width: 0.8; stroke-linejoin: miter; stroke-linecap: square"/>
    </g>
   </g>
   <g id="axes_6">
    <g id="patch_31">
     <path d="M 289.320363 161.59478 
L 424.320363 161.59478 
L 424.320363 139.681736 
L 289.320363 139.681736 
z
" style="fill: #ffffff"/>
    </g>
    <g id="patch_32">
     <path d="M 295.456727 161.59478 
L 295.456727 157.12273 
L 301.59309 157.12273 
L 301.59309 148.178631 
L 307.729454 148.178631 
L 307.729454 151.159997 
L 313.865817 151.159997 
L 313.865817 140.725214 
L 320.002181 140.725214 
L 320.002181 151.159997 
L 326.138545 151.159997 
L 326.138545 149.669314 
L 332.274908 149.669314 
L 332.274908 148.178631 
L 338.411272 148.178631 
L 338.411272 154.141363 
L 344.547636 154.141363 
L 344.547636 157.12273 
L 350.683999 157.12273 
L 350.683999 158.613413 
L 356.820363 158.613413 
L 356.820363 158.613413 
L 362.956727 158.613413 
L 362.956727 158.613413 
L 369.09309 158.613413 
L 369.09309 161.59478 
L 375.229454 161.59478 
L 375.229454 160.104096 
L 381.365817 160.104096 
L 381.365817 158.613413 
L 387.502181 158.613413 
L 387.502181 161.59478 
L 393.638545 161.59478 
L 393.638545 161.59478 
L 399.774908 161.59478 
L 399.774908 161.59478 
L 405.911272 161.59478 
L 405.911272 161.59478 
L 412.047636 161.59478 
L 412.047636 160.104096 
L 418.183999 160.104096 
L 418.183999 161.59478 
" clip-path="url(#p95a7acce38)" style="fill: #1f77b4"/>
    </g>
    <g id="matplotlib.axis_11">
     <g id="xtick_12">
      <g id="line2d_28">
       <g>
        <use xlink:href="#mf871220bc7" x="309.63017" y="161.59478" style="stroke: #000000; stroke-width: 0.8"/>
       </g>
      </g>
      <g id="text_23">
       <!-- 0.25 -->
       <g transform="translate(298.497357 176.193217) scale(0.1 -0.1)">
        <use xlink:href="#DejaVuSans-30"/>
        <use xlink:href="#DejaVuSans-2e" x="63.623047"/>
        <use xlink:href="#DejaVuSans-32" x="95.410156"/>
        <use xlink:href="#DejaVuSans-35" x="159.033203"/>
       </g>
      </g>
     </g>
     <g id="xtick_13">
      <g id="line2d_29">
       <g>
        <use xlink:href="#mf871220bc7" x="350.593879" y="161.59478" style="stroke: #000000; stroke-width: 0.8"/>
       </g>
      </g>
      <g id="text_24">
       <!-- 0.50 -->
       <g transform="translate(339.461067 176.193217) scale(0.1 -0.1)">
        <use xlink:href="#DejaVuSans-30"/>
        <use xlink:href="#DejaVuSans-2e" x="63.623047"/>
        <use xlink:href="#DejaVuSans-35" x="95.410156"/>
        <use xlink:href="#DejaVuSans-30" x="159.033203"/>
       </g>
      </g>
     </g>
     <g id="xtick_14">
      <g id="line2d_30">
       <g>
        <use xlink:href="#mf871220bc7" x="391.557588" y="161.59478" style="stroke: #000000; stroke-width: 0.8"/>
       </g>
      </g>
      <g id="text_25">
       <!-- 0.75 -->
       <g transform="translate(380.424776 176.193217) scale(0.1 -0.1)">
        <use xlink:href="#DejaVuSans-30"/>
        <use xlink:href="#DejaVuSans-2e" x="63.623047"/>
        <use xlink:href="#DejaVuSans-37" x="95.410156"/>
        <use xlink:href="#DejaVuSans-35" x="159.033203"/>
       </g>
      </g>
     </g>
     <g id="text_26">
      <!-- DV_0 -->
      <g transform="translate(343.9563 189.69478) scale(0.1 -0.1)">
       <defs>
        <path id="DejaVuSans-56" d="M 1831 0 
L 50 4666 
L 709 4666 
L 2188 738 
L 3669 4666 
L 4325 4666 
L 2547 0 
L 1831 0 
z
" transform="scale(0.015625)"/>
        <path id="DejaVuSans-5f" d="M 3263 -1063 
L 3263 -1509 
L -63 -1509 
L -63 -1063 
L 3263 -1063 
z
" transform="scale(0.015625)"/>
       </defs>
       <use xlink:href="#DejaVuSans-44"/>
       <use xlink:href="#DejaVuSans-56" x="75.251953"/>
       <use xlink:href="#DejaVuSans-5f" x="143.660156"/>
       <use xlink:href="#DejaVuSans-30" x="193.660156"/>
      </g>
     </g>
    </g>
    <g id="matplotlib.axis_12">
     <g id="ytick_14">
      <g id="line2d_31">
       <g>
        <use xlink:href="#m4f70a41cbc" x="289.320363" y="161.59478" style="stroke: #000000; stroke-width: 0.8"/>
       </g>
      </g>
      <g id="text_27">
       <!-- 0 -->
       <g transform="translate(275.957863 165.393998) scale(0.1 -0.1)">
        <use xlink:href="#DejaVuSans-30"/>
       </g>
      </g>
     </g>
     <g id="ytick_15">
      <g id="line2d_32">
       <g>
        <use xlink:href="#m4f70a41cbc" x="289.320363" y="146.687947" style="stroke: #000000; stroke-width: 0.8"/>
       </g>
      </g>
      <g id="text_28">
       <!-- 10 -->
       <g transform="translate(269.595363 150.487166) scale(0.1 -0.1)">
        <use xlink:href="#DejaVuSans-31"/>
        <use xlink:href="#DejaVuSans-30" x="63.623047"/>
       </g>
      </g>
     </g>
     <g id="text_29">
      <!-- Frequency -->
      <g transform="translate(263.515675 176.467945) rotate(-90) scale(0.1 -0.1)">
       <use xlink:href="#DejaVuSans-46"/>
       <use xlink:href="#DejaVuSans-72" x="50.269531"/>
       <use xlink:href="#DejaVuSans-65" x="89.132812"/>
       <use xlink:href="#DejaVuSans-71" x="150.65625"/>
       <use xlink:href="#DejaVuSans-75" x="214.132812"/>
       <use xlink:href="#DejaVuSans-65" x="277.511719"/>
       <use xlink:href="#DejaVuSans-6e" x="339.035156"/>
       <use xlink:href="#DejaVuSans-63" x="402.414062"/>
       <use xlink:href="#DejaVuSans-79" x="457.394531"/>
      </g>
     </g>
    </g>
    <g id="patch_33">
     <path d="M 289.320363 161.59478 
L 289.320363 139.681736 
" style="fill: none; stroke: #000000; stroke-width: 0.8; stroke-linejoin: miter; stroke-linecap: square"/>
    </g>
    <g id="patch_34">
     <path d="M 424.320363 161.59478 
L 424.320363 139.681736 
" style="fill: none; stroke: #000000; stroke-width: 0.8; stroke-linejoin: miter; stroke-linecap: square"/>
    </g>
    <g id="patch_35">
     <path d="M 289.320363 161.59478 
L 424.320363 161.59478 
" style="fill: none; stroke: #000000; stroke-width: 0.8; stroke-linejoin: miter; stroke-linecap: square"/>
    </g>
    <g id="patch_36">
     <path d="M 289.320363 139.681736 
L 424.320363 139.681736 
" style="fill: none; stroke: #000000; stroke-width: 0.8; stroke-linejoin: miter; stroke-linecap: square"/>
    </g>
   </g>
  </g>
  <g id="subfigure_4">
   <g id="patch_37">
    <path d="M 267.546169 418.831143 
L 441.739718 418.831143 
L 441.739718 222.467507 
L 267.546169 222.467507 
L 267.546169 418.831143 
z
" style="fill: none"/>
   </g>
  </g>
  <g id="subfigure_5">
   <g id="patch_38">
    <path d="M 493.997782 183.19478 
L 668.191331 183.19478 
L 668.191331 -1 
M 493.997782 -1 
L 493.997782 183.19478 
" style="fill: none"/>
   </g>
   <g id="axes_7">
    <g id="patch_39">
     <path d="M 515.771976 119.959997 
L 650.771976 119.959997 
L 650.771976 10.39478 
L 515.771976 10.39478 
z
" style="fill: #ffffff"/>
    </g>
    <g id="patch_40">
     <path d="M 521.908339 63.185291 
L 576.453794 63.185291 
L 576.453794 15.375017 
L 521.908339 15.375017 
z
" clip-path="url(#p77141ead6d)" style="fill: #1f77b4"/>
    </g>
    <g id="patch_41">
     <path d="M 590.090158 63.185291 
L 644.635612 63.185291 
L 644.635612 114.97976 
L 590.090158 114.97976 
z
" clip-path="url(#p77141ead6d)" style="fill: #1f77b4"/>
    </g>
    <g id="matplotlib.axis_13">
     <g id="xtick_15">
      <g id="line2d_33">
       <g>
        <use xlink:href="#mf871220bc7" x="549.181067" y="119.959997" style="stroke: #000000; stroke-width: 0.8"/>
       </g>
      </g>
     </g>
     <g id="xtick_16">
      <g id="line2d_34">
       <g>
        <use xlink:href="#mf871220bc7" x="617.362885" y="119.959997" style="stroke: #000000; stroke-width: 0.8"/>
       </g>
      </g>
     </g>
    </g>
    <g id="matplotlib.axis_14">
     <g id="ytick_16">
      <g id="line2d_35">
       <g>
        <use xlink:href="#m4f70a41cbc" x="515.771976" y="114.125403" style="stroke: #000000; stroke-width: 0.8"/>
       </g>
      </g>
      <g id="text_30">
       <!-- −0.010 -->
       <g transform="translate(471.764163 117.924622) scale(0.1 -0.1)">
        <use xlink:href="#DejaVuSans-2212"/>
        <use xlink:href="#DejaVuSans-30" x="83.789062"/>
        <use xlink:href="#DejaVuSans-2e" x="147.412109"/>
        <use xlink:href="#DejaVuSans-30" x="179.199219"/>
        <use xlink:href="#DejaVuSans-31" x="242.822266"/>
        <use xlink:href="#DejaVuSans-30" x="306.445312"/>
       </g>
      </g>
     </g>
     <g id="ytick_17">
      <g id="line2d_36">
       <g>
        <use xlink:href="#m4f70a41cbc" x="515.771976" y="88.655347" style="stroke: #000000; stroke-width: 0.8"/>
       </g>
      </g>
      <g id="text_31">
       <!-- −0.005 -->
       <g transform="translate(471.764163 92.454566) scale(0.1 -0.1)">
        <use xlink:href="#DejaVuSans-2212"/>
        <use xlink:href="#DejaVuSans-30" x="83.789062"/>
        <use xlink:href="#DejaVuSans-2e" x="147.412109"/>
        <use xlink:href="#DejaVuSans-30" x="179.199219"/>
        <use xlink:href="#DejaVuSans-30" x="242.822266"/>
        <use xlink:href="#DejaVuSans-35" x="306.445312"/>
       </g>
      </g>
     </g>
     <g id="ytick_18">
      <g id="line2d_37">
       <g>
        <use xlink:href="#m4f70a41cbc" x="515.771976" y="63.185291" style="stroke: #000000; stroke-width: 0.8"/>
       </g>
      </g>
      <g id="text_32">
       <!-- 0.000 -->
       <g transform="translate(480.143851 66.98451) scale(0.1 -0.1)">
        <use xlink:href="#DejaVuSans-30"/>
        <use xlink:href="#DejaVuSans-2e" x="63.623047"/>
        <use xlink:href="#DejaVuSans-30" x="95.410156"/>
        <use xlink:href="#DejaVuSans-30" x="159.033203"/>
        <use xlink:href="#DejaVuSans-30" x="222.65625"/>
       </g>
      </g>
     </g>
     <g id="ytick_19">
      <g id="line2d_38">
       <g>
        <use xlink:href="#m4f70a41cbc" x="515.771976" y="37.715235" style="stroke: #000000; stroke-width: 0.8"/>
       </g>
      </g>
      <g id="text_33">
       <!-- 0.005 -->
       <g transform="translate(480.143851 41.514454) scale(0.1 -0.1)">
        <use xlink:href="#DejaVuSans-30"/>
        <use xlink:href="#DejaVuSans-2e" x="63.623047"/>
        <use xlink:href="#DejaVuSans-30" x="95.410156"/>
        <use xlink:href="#DejaVuSans-30" x="159.033203"/>
        <use xlink:href="#DejaVuSans-35" x="222.65625"/>
       </g>
      </g>
     </g>
     <g id="ytick_20">
      <g id="line2d_39">
       <g>
        <use xlink:href="#m4f70a41cbc" x="515.771976" y="12.245179" style="stroke: #000000; stroke-width: 0.8"/>
       </g>
      </g>
      <g id="text_34">
       <!-- 0.010 -->
       <g transform="translate(480.143851 16.044398) scale(0.1 -0.1)">
        <use xlink:href="#DejaVuSans-30"/>
        <use xlink:href="#DejaVuSans-2e" x="63.623047"/>
        <use xlink:href="#DejaVuSans-30" x="95.410156"/>
        <use xlink:href="#DejaVuSans-31" x="159.033203"/>
        <use xlink:href="#DejaVuSans-30" x="222.65625"/>
       </g>
      </g>
     </g>
     <g id="text_35">
      <!-- Shape function -->
      <g transform="translate(465.684476 102.848482) rotate(-90) scale(0.1 -0.1)">
       <use xlink:href="#DejaVuSans-53"/>
       <use xlink:href="#DejaVuSans-68" x="63.476562"/>
       <use xlink:href="#DejaVuSans-61" x="126.855469"/>
       <use xlink:href="#DejaVuSans-70" x="188.134766"/>
       <use xlink:href="#DejaVuSans-65" x="251.611328"/>
       <use xlink:href="#DejaVuSans-20" x="313.134766"/>
       <use xlink:href="#DejaVuSans-66" x="344.921875"/>
       <use xlink:href="#DejaVuSans-75" x="380.126953"/>
       <use xlink:href="#DejaVuSans-6e" x="443.505859"/>
       <use xlink:href="#DejaVuSans-63" x="506.884766"/>
       <use xlink:href="#DejaVuSans-74" x="561.865234"/>
       <use xlink:href="#DejaVuSans-69" x="601.074219"/>
       <use xlink:href="#DejaVuSans-6f" x="628.857422"/>
       <use xlink:href="#DejaVuSans-6e" x="690.039062"/>
      </g>
     </g>
    </g>
    <g id="patch_42">
     <path d="M 515.771976 119.959997 
L 515.771976 10.39478 
" style="fill: none; stroke: #000000; stroke-width: 0.8; stroke-linejoin: miter; stroke-linecap: square"/>
    </g>
    <g id="patch_43">
     <path d="M 650.771976 119.959997 
L 650.771976 10.39478 
" style="fill: none; stroke: #000000; stroke-width: 0.8; stroke-linejoin: miter; stroke-linecap: square"/>
    </g>
    <g id="patch_44">
     <path d="M 515.771976 119.959997 
L 650.771976 119.959997 
" style="fill: none; stroke: #000000; stroke-width: 0.8; stroke-linejoin: miter; stroke-linecap: square"/>
    </g>
    <g id="patch_45">
     <path d="M 515.771976 10.39478 
L 650.771976 10.39478 
" style="fill: none; stroke: #000000; stroke-width: 0.8; stroke-linejoin: miter; stroke-linecap: square"/>
    </g>
   </g>
   <g id="axes_8">
    <g id="patch_46">
     <path d="M 515.771976 161.59478 
L 650.771976 161.59478 
L 650.771976 139.681736 
L 515.771976 139.681736 
z
" style="fill: #ffffff"/>
    </g>
    <g id="patch_47">
     <path d="M 521.908339 161.59478 
L 576.453794 161.59478 
L 576.453794 140.725214 
L 521.908339 140.725214 
z
" clip-path="url(#peca87399f3)" style="fill: #1f77b4"/>
    </g>
    <g id="patch_48">
     <path d="M 590.090158 161.59478 
L 644.635612 161.59478 
L 644.635612 142.330566 
L 590.090158 142.330566 
z
" clip-path="url(#peca87399f3)" style="fill: #1f77b4"/>
    </g>
    <g id="matplotlib.axis_15">
     <g id="xtick_17">
      <g id="line2d_40">
       <g>
        <use xlink:href="#mf871220bc7" x="549.181067" y="161.59478" style="stroke: #000000; stroke-width: 0.8"/>
       </g>
      </g>
      <g id="text_36">
       <!-- 0 -->
       <g transform="translate(545.999817 176.193217) scale(0.1 -0.1)">
        <use xlink:href="#DejaVuSans-30"/>
       </g>
      </g>
     </g>
     <g id="xtick_18">
      <g id="line2d_41">
       <g>
        <use xlink:href="#mf871220bc7" x="617.362885" y="161.59478" style="stroke: #000000; stroke-width: 0.8"/>
       </g>
      </g>
      <g id="text_37">
       <!-- 1 -->
       <g transform="translate(614.181635 176.193217) scale(0.1 -0.1)">
        <use xlink:href="#DejaVuSans-31"/>
       </g>
      </g>
     </g>
     <g id="text_38">
      <!-- SEX -->
      <g transform="translate(573.513382 189.871342) scale(0.1 -0.1)">
       <defs>
        <path id="DejaVuSans-58" d="M 403 4666 
L 1081 4666 
L 2241 2931 
L 3406 4666 
L 4084 4666 
L 2584 2425 
L 4184 0 
L 3506 0 
L 2194 1984 
L 872 0 
L 191 0 
L 1856 2491 
L 403 4666 
z
" transform="scale(0.015625)"/>
       </defs>
       <use xlink:href="#DejaVuSans-53"/>
       <use xlink:href="#DejaVuSans-45" x="63.476562"/>
       <use xlink:href="#DejaVuSans-58" x="126.660156"/>
      </g>
     </g>
    </g>
    <g id="matplotlib.axis_16">
     <g id="ytick_21">
      <g id="line2d_42">
       <g>
        <use xlink:href="#m4f70a41cbc" x="515.771976" y="161.59478" style="stroke: #000000; stroke-width: 0.8"/>
       </g>
      </g>
      <g id="text_39">
       <!-- 0 -->
       <g transform="translate(502.409476 165.393998) scale(0.1 -0.1)">
        <use xlink:href="#DejaVuSans-30"/>
       </g>
      </g>
     </g>
     <g id="ytick_22">
      <g id="line2d_43">
       <g>
        <use xlink:href="#m4f70a41cbc" x="515.771976" y="148.216853" style="stroke: #000000; stroke-width: 0.8"/>
       </g>
      </g>
      <g id="text_40">
       <!-- 25 -->
       <g transform="translate(496.046976 152.016072) scale(0.1 -0.1)">
        <use xlink:href="#DejaVuSans-32"/>
        <use xlink:href="#DejaVuSans-35" x="63.623047"/>
       </g>
      </g>
     </g>
     <g id="text_41">
      <!-- Frequency -->
      <g transform="translate(489.967288 176.467945) rotate(-90) scale(0.1 -0.1)">
       <use xlink:href="#DejaVuSans-46"/>
       <use xlink:href="#DejaVuSans-72" x="50.269531"/>
       <use xlink:href="#DejaVuSans-65" x="89.132812"/>
       <use xlink:href="#DejaVuSans-71" x="150.65625"/>
       <use xlink:href="#DejaVuSans-75" x="214.132812"/>
       <use xlink:href="#DejaVuSans-65" x="277.511719"/>
       <use xlink:href="#DejaVuSans-6e" x="339.035156"/>
       <use xlink:href="#DejaVuSans-63" x="402.414062"/>
       <use xlink:href="#DejaVuSans-79" x="457.394531"/>
      </g>
     </g>
    </g>
    <g id="patch_49">
     <path d="M 515.771976 161.59478 
L 515.771976 139.681736 
" style="fill: none; stroke: #000000; stroke-width: 0.8; stroke-linejoin: miter; stroke-linecap: square"/>
    </g>
    <g id="patch_50">
     <path d="M 650.771976 161.59478 
L 650.771976 139.681736 
" style="fill: none; stroke: #000000; stroke-width: 0.8; stroke-linejoin: miter; stroke-linecap: square"/>
    </g>
    <g id="patch_51">
     <path d="M 515.771976 161.59478 
L 650.771976 161.59478 
" style="fill: none; stroke: #000000; stroke-width: 0.8; stroke-linejoin: miter; stroke-linecap: square"/>
    </g>
    <g id="patch_52">
     <path d="M 515.771976 139.681736 
L 650.771976 139.681736 
" style="fill: none; stroke: #000000; stroke-width: 0.8; stroke-linejoin: miter; stroke-linecap: square"/>
    </g>
   </g>
  </g>
  <g id="subfigure_6">
   <g id="patch_53">
    <path d="M 493.997782 418.831143 
L 668.191331 418.831143 
L 668.191331 222.467507 
L 493.997782 222.467507 
L 493.997782 418.831143 
z
" style="fill: none"/>
   </g>
  </g>
  <g id="subfigure_7">
   <g id="patch_54">
    <path d="M 720.449395 183.19478 
L 894.642944 183.19478 
L 894.642944 -1 
M 720.449395 -1 
L 720.449395 183.19478 
" style="fill: none"/>
   </g>
   <g id="axes_9">
    <g id="patch_55">
     <path d="M 742.223589 119.959997 
L 877.223589 119.959997 
L 877.223589 10.39478 
L 742.223589 10.39478 
z
" style="fill: #ffffff"/>
    </g>
    <g id="patch_56">
     <path d="M 748.359952 67.169479 
L 802.905407 67.169479 
L 802.905407 114.97976 
L 748.359952 114.97976 
z
" clip-path="url(#pc29bcd9d49)" style="fill: #1f77b4"/>
    </g>
    <g id="patch_57">
     <path d="M 816.541771 67.169479 
L 871.087225 67.169479 
L 871.087225 15.375017 
L 816.541771 15.375017 
z
" clip-path="url(#pc29bcd9d49)" style="fill: #1f77b4"/>
    </g>
    <g id="matplotlib.axis_17">
     <g id="xtick_19">
      <g id="line2d_44">
       <g>
        <use xlink:href="#mf871220bc7" x="775.63268" y="119.959997" style="stroke: #000000; stroke-width: 0.8"/>
       </g>
      </g>
     </g>
     <g id="xtick_20">
      <g id="line2d_45">
       <g>
        <use xlink:href="#mf871220bc7" x="843.814498" y="119.959997" style="stroke: #000000; stroke-width: 0.8"/>
       </g>
      </g>
     </g>
    </g>
    <g id="matplotlib.axis_18">
     <g id="ytick_23">
      <g id="line2d_46">
       <g>
        <use xlink:href="#m4f70a41cbc" x="742.223589" y="112.050754" style="stroke: #000000; stroke-width: 0.8"/>
       </g>
      </g>
      <g id="text_42">
       <!-- −0.002 -->
       <g transform="translate(698.215776 115.849973) scale(0.1 -0.1)">
        <use xlink:href="#DejaVuSans-2212"/>
        <use xlink:href="#DejaVuSans-30" x="83.789062"/>
        <use xlink:href="#DejaVuSans-2e" x="147.412109"/>
        <use xlink:href="#DejaVuSans-30" x="179.199219"/>
        <use xlink:href="#DejaVuSans-30" x="242.822266"/>
        <use xlink:href="#DejaVuSans-32" x="306.445312"/>
       </g>
      </g>
     </g>
     <g id="ytick_24">
      <g id="line2d_47">
       <g>
        <use xlink:href="#m4f70a41cbc" x="742.223589" y="89.610117" style="stroke: #000000; stroke-width: 0.8"/>
       </g>
      </g>
      <g id="text_43">
       <!-- −0.001 -->
       <g transform="translate(698.215776 93.409335) scale(0.1 -0.1)">
        <use xlink:href="#DejaVuSans-2212"/>
        <use xlink:href="#DejaVuSans-30" x="83.789062"/>
        <use xlink:href="#DejaVuSans-2e" x="147.412109"/>
        <use xlink:href="#DejaVuSans-30" x="179.199219"/>
        <use xlink:href="#DejaVuSans-30" x="242.822266"/>
        <use xlink:href="#DejaVuSans-31" x="306.445312"/>
       </g>
      </g>
     </g>
     <g id="ytick_25">
      <g id="line2d_48">
       <g>
        <use xlink:href="#m4f70a41cbc" x="742.223589" y="67.169479" style="stroke: #000000; stroke-width: 0.8"/>
       </g>
      </g>
      <g id="text_44">
       <!-- 0.000 -->
       <g transform="translate(706.595464 70.968698) scale(0.1 -0.1)">
        <use xlink:href="#DejaVuSans-30"/>
        <use xlink:href="#DejaVuSans-2e" x="63.623047"/>
        <use xlink:href="#DejaVuSans-30" x="95.410156"/>
        <use xlink:href="#DejaVuSans-30" x="159.033203"/>
        <use xlink:href="#DejaVuSans-30" x="222.65625"/>
       </g>
      </g>
     </g>
     <g id="ytick_26">
      <g id="line2d_49">
       <g>
        <use xlink:href="#m4f70a41cbc" x="742.223589" y="44.728841" style="stroke: #000000; stroke-width: 0.8"/>
       </g>
      </g>
      <g id="text_45">
       <!-- 0.001 -->
       <g transform="translate(706.595464 48.52806) scale(0.1 -0.1)">
        <use xlink:href="#DejaVuSans-30"/>
        <use xlink:href="#DejaVuSans-2e" x="63.623047"/>
        <use xlink:href="#DejaVuSans-30" x="95.410156"/>
        <use xlink:href="#DejaVuSans-30" x="159.033203"/>
        <use xlink:href="#DejaVuSans-31" x="222.65625"/>
       </g>
      </g>
     </g>
     <g id="ytick_27">
      <g id="line2d_50">
       <g>
        <use xlink:href="#m4f70a41cbc" x="742.223589" y="22.288204" style="stroke: #000000; stroke-width: 0.8"/>
       </g>
      </g>
      <g id="text_46">
       <!-- 0.002 -->
       <g transform="translate(706.595464 26.087423) scale(0.1 -0.1)">
        <use xlink:href="#DejaVuSans-30"/>
        <use xlink:href="#DejaVuSans-2e" x="63.623047"/>
        <use xlink:href="#DejaVuSans-30" x="95.410156"/>
        <use xlink:href="#DejaVuSans-30" x="159.033203"/>
        <use xlink:href="#DejaVuSans-32" x="222.65625"/>
       </g>
      </g>
     </g>
     <g id="text_47">
      <!-- Shape function -->
      <g transform="translate(692.136089 102.848482) rotate(-90) scale(0.1 -0.1)">
       <use xlink:href="#DejaVuSans-53"/>
       <use xlink:href="#DejaVuSans-68" x="63.476562"/>
       <use xlink:href="#DejaVuSans-61" x="126.855469"/>
       <use xlink:href="#DejaVuSans-70" x="188.134766"/>
       <use xlink:href="#DejaVuSans-65" x="251.611328"/>
       <use xlink:href="#DejaVuSans-20" x="313.134766"/>
       <use xlink:href="#DejaVuSans-66" x="344.921875"/>
       <use xlink:href="#DejaVuSans-75" x="380.126953"/>
       <use xlink:href="#DejaVuSans-6e" x="443.505859"/>
       <use xlink:href="#DejaVuSans-63" x="506.884766"/>
       <use xlink:href="#DejaVuSans-74" x="561.865234"/>
       <use xlink:href="#DejaVuSans-69" x="601.074219"/>
       <use xlink:href="#DejaVuSans-6f" x="628.857422"/>
       <use xlink:href="#DejaVuSans-6e" x="690.039062"/>
      </g>
     </g>
    </g>
    <g id="patch_58">
     <path d="M 742.223589 119.959997 
L 742.223589 10.39478 
" style="fill: none; stroke: #000000; stroke-width: 0.8; stroke-linejoin: miter; stroke-linecap: square"/>
    </g>
    <g id="patch_59">
     <path d="M 877.223589 119.959997 
L 877.223589 10.39478 
" style="fill: none; stroke: #000000; stroke-width: 0.8; stroke-linejoin: miter; stroke-linecap: square"/>
    </g>
    <g id="patch_60">
     <path d="M 742.223589 119.959997 
L 877.223589 119.959997 
" style="fill: none; stroke: #000000; stroke-width: 0.8; stroke-linejoin: miter; stroke-linecap: square"/>
    </g>
    <g id="patch_61">
     <path d="M 742.223589 10.39478 
L 877.223589 10.39478 
" style="fill: none; stroke: #000000; stroke-width: 0.8; stroke-linejoin: miter; stroke-linecap: square"/>
    </g>
   </g>
   <g id="axes_10">
    <g id="patch_62">
     <path d="M 742.223589 161.59478 
L 877.223589 161.59478 
L 877.223589 139.681736 
L 742.223589 139.681736 
z
" style="fill: #ffffff"/>
    </g>
    <g id="patch_63">
     <path d="M 748.359952 161.59478 
L 802.905407 161.59478 
L 802.905407 140.725214 
L 748.359952 140.725214 
z
" clip-path="url(#p21dee64d47)" style="fill: #1f77b4"/>
    </g>
    <g id="patch_64">
     <path d="M 816.541771 161.59478 
L 871.087225 161.59478 
L 871.087225 142.330566 
L 816.541771 142.330566 
z
" clip-path="url(#p21dee64d47)" style="fill: #1f77b4"/>
    </g>
    <g id="matplotlib.axis_19">
     <g id="xtick_21">
      <g id="line2d_51">
       <g>
        <use xlink:href="#mf871220bc7" x="775.63268" y="161.59478" style="stroke: #000000; stroke-width: 0.8"/>
       </g>
      </g>
      <g id="text_48">
       <!-- 0 -->
       <g transform="translate(772.45143 176.193217) scale(0.1 -0.1)">
        <use xlink:href="#DejaVuSans-30"/>
       </g>
      </g>
     </g>
     <g id="xtick_22">
      <g id="line2d_52">
       <g>
        <use xlink:href="#mf871220bc7" x="843.814498" y="161.59478" style="stroke: #000000; stroke-width: 0.8"/>
       </g>
      </g>
      <g id="text_49">
       <!-- 1 -->
       <g transform="translate(840.633248 176.193217) scale(0.1 -0.1)">
        <use xlink:href="#DejaVuSans-31"/>
       </g>
      </g>
     </g>
     <g id="text_50">
      <!-- CYP -->
      <g transform="translate(800.250932 189.871342) scale(0.1 -0.1)">
       <defs>
        <path id="DejaVuSans-43" d="M 4122 4306 
L 4122 3641 
Q 3803 3938 3442 4084 
Q 3081 4231 2675 4231 
Q 1875 4231 1450 3742 
Q 1025 3253 1025 2328 
Q 1025 1406 1450 917 
Q 1875 428 2675 428 
Q 3081 428 3442 575 
Q 3803 722 4122 1019 
L 4122 359 
Q 3791 134 3420 21 
Q 3050 -91 2638 -91 
Q 1578 -91 968 557 
Q 359 1206 359 2328 
Q 359 3453 968 4101 
Q 1578 4750 2638 4750 
Q 3056 4750 3426 4639 
Q 3797 4528 4122 4306 
z
" transform="scale(0.015625)"/>
        <path id="DejaVuSans-59" d="M -13 4666 
L 666 4666 
L 1959 2747 
L 3244 4666 
L 3922 4666 
L 2272 2222 
L 2272 0 
L 1638 0 
L 1638 2222 
L -13 4666 
z
" transform="scale(0.015625)"/>
        <path id="DejaVuSans-50" d="M 1259 4147 
L 1259 2394 
L 2053 2394 
Q 2494 2394 2734 2622 
Q 2975 2850 2975 3272 
Q 2975 3691 2734 3919 
Q 2494 4147 2053 4147 
L 1259 4147 
z
M 628 4666 
L 2053 4666 
Q 2838 4666 3239 4311 
Q 3641 3956 3641 3272 
Q 3641 2581 3239 2228 
Q 2838 1875 2053 1875 
L 1259 1875 
L 1259 0 
L 628 0 
L 628 4666 
z
" transform="scale(0.015625)"/>
       </defs>
       <use xlink:href="#DejaVuSans-43"/>
       <use xlink:href="#DejaVuSans-59" x="68.074219"/>
       <use xlink:href="#DejaVuSans-50" x="129.158203"/>
      </g>
     </g>
    </g>
    <g id="matplotlib.axis_20">
     <g id="ytick_28">
      <g id="line2d_53">
       <g>
        <use xlink:href="#m4f70a41cbc" x="742.223589" y="161.59478" style="stroke: #000000; stroke-width: 0.8"/>
       </g>
      </g>
      <g id="text_51">
       <!-- 0 -->
       <g transform="translate(728.861089 165.393998) scale(0.1 -0.1)">
        <use xlink:href="#DejaVuSans-30"/>
       </g>
      </g>
     </g>
     <g id="ytick_29">
      <g id="line2d_54">
       <g>
        <use xlink:href="#m4f70a41cbc" x="742.223589" y="148.216853" style="stroke: #000000; stroke-width: 0.8"/>
       </g>
      </g>
      <g id="text_52">
       <!-- 25 -->
       <g transform="translate(722.498589 152.016072) scale(0.1 -0.1)">
        <use xlink:href="#DejaVuSans-32"/>
        <use xlink:href="#DejaVuSans-35" x="63.623047"/>
       </g>
      </g>
     </g>
     <g id="text_53">
      <!-- Frequency -->
      <g transform="translate(716.418901 176.467945) rotate(-90) scale(0.1 -0.1)">
       <use xlink:href="#DejaVuSans-46"/>
       <use xlink:href="#DejaVuSans-72" x="50.269531"/>
       <use xlink:href="#DejaVuSans-65" x="89.132812"/>
       <use xlink:href="#DejaVuSans-71" x="150.65625"/>
       <use xlink:href="#DejaVuSans-75" x="214.132812"/>
       <use xlink:href="#DejaVuSans-65" x="277.511719"/>
       <use xlink:href="#DejaVuSans-6e" x="339.035156"/>
       <use xlink:href="#DejaVuSans-63" x="402.414062"/>
       <use xlink:href="#DejaVuSans-79" x="457.394531"/>
      </g>
     </g>
    </g>
    <g id="patch_65">
     <path d="M 742.223589 161.59478 
L 742.223589 139.681736 
" style="fill: none; stroke: #000000; stroke-width: 0.8; stroke-linejoin: miter; stroke-linecap: square"/>
    </g>
    <g id="patch_66">
     <path d="M 877.223589 161.59478 
L 877.223589 139.681736 
" style="fill: none; stroke: #000000; stroke-width: 0.8; stroke-linejoin: miter; stroke-linecap: square"/>
    </g>
    <g id="patch_67">
     <path d="M 742.223589 161.59478 
L 877.223589 161.59478 
" style="fill: none; stroke: #000000; stroke-width: 0.8; stroke-linejoin: miter; stroke-linecap: square"/>
    </g>
    <g id="patch_68">
     <path d="M 742.223589 139.681736 
L 877.223589 139.681736 
" style="fill: none; stroke: #000000; stroke-width: 0.8; stroke-linejoin: miter; stroke-linecap: square"/>
    </g>
   </g>
  </g>
  <g id="subfigure_8">
   <g id="patch_69">
    <path d="M 720.449395 418.831143 
L 894.642944 418.831143 
L 894.642944 222.467507 
L 720.449395 222.467507 
L 720.449395 418.831143 
z
" style="fill: none"/>
   </g>
  </g>
  <g id="subfigure_9">
   <g id="patch_70">
    <path d="M 946.901008 183.19478 
L 1121.094556 183.19478 
L 1121.094556 -1 
M 946.901008 -1 
L 946.901008 183.19478 
" style="fill: none"/>
   </g>
   <g id="axes_11">
    <g id="patch_71">
     <path d="M 968.675202 119.959997 
L 1103.675202 119.959997 
L 1103.675202 10.39478 
L 968.675202 10.39478 
z
" style="fill: #ffffff"/>
    </g>
    <g id="patch_72">
     <path d="M 974.811565 67.169481 
L 1029.35702 67.169481 
L 1029.35702 114.97976 
L 974.811565 114.97976 
z
" clip-path="url(#p41c90db89b)" style="fill: #1f77b4"/>
    </g>
    <g id="patch_73">
     <path d="M 1042.993383 67.169481 
L 1097.538838 67.169481 
L 1097.538838 15.375017 
L 1042.993383 15.375017 
z
" clip-path="url(#p41c90db89b)" style="fill: #1f77b4"/>
    </g>
    <g id="matplotlib.axis_21">
     <g id="xtick_23">
      <g id="line2d_55">
       <g>
        <use xlink:href="#mf871220bc7" x="1002.084293" y="119.959997" style="stroke: #000000; stroke-width: 0.8"/>
       </g>
      </g>
     </g>
     <g id="xtick_24">
      <g id="line2d_56">
       <g>
        <use xlink:href="#mf871220bc7" x="1070.266111" y="119.959997" style="stroke: #000000; stroke-width: 0.8"/>
       </g>
      </g>
     </g>
    </g>
    <g id="matplotlib.axis_22">
     <g id="ytick_30">
      <g id="line2d_57">
       <g>
        <use xlink:href="#m4f70a41cbc" x="968.675202" y="102.717111" style="stroke: #000000; stroke-width: 0.8"/>
       </g>
      </g>
      <g id="text_54">
       <!-- −0.005 -->
       <g transform="translate(924.667389 106.516329) scale(0.1 -0.1)">
        <use xlink:href="#DejaVuSans-2212"/>
        <use xlink:href="#DejaVuSans-30" x="83.789062"/>
        <use xlink:href="#DejaVuSans-2e" x="147.412109"/>
        <use xlink:href="#DejaVuSans-30" x="179.199219"/>
        <use xlink:href="#DejaVuSans-30" x="242.822266"/>
        <use xlink:href="#DejaVuSans-35" x="306.445312"/>
       </g>
      </g>
     </g>
     <g id="ytick_31">
      <g id="line2d_58">
       <g>
        <use xlink:href="#m4f70a41cbc" x="968.675202" y="67.169481" style="stroke: #000000; stroke-width: 0.8"/>
       </g>
      </g>
      <g id="text_55">
       <!-- 0.000 -->
       <g transform="translate(933.047077 70.9687) scale(0.1 -0.1)">
        <use xlink:href="#DejaVuSans-30"/>
        <use xlink:href="#DejaVuSans-2e" x="63.623047"/>
        <use xlink:href="#DejaVuSans-30" x="95.410156"/>
        <use xlink:href="#DejaVuSans-30" x="159.033203"/>
        <use xlink:href="#DejaVuSans-30" x="222.65625"/>
       </g>
      </g>
     </g>
     <g id="ytick_32">
      <g id="line2d_59">
       <g>
        <use xlink:href="#m4f70a41cbc" x="968.675202" y="31.621852" style="stroke: #000000; stroke-width: 0.8"/>
       </g>
      </g>
      <g id="text_56">
       <!-- 0.005 -->
       <g transform="translate(933.047077 35.42107) scale(0.1 -0.1)">
        <use xlink:href="#DejaVuSans-30"/>
        <use xlink:href="#DejaVuSans-2e" x="63.623047"/>
        <use xlink:href="#DejaVuSans-30" x="95.410156"/>
        <use xlink:href="#DejaVuSans-30" x="159.033203"/>
        <use xlink:href="#DejaVuSans-35" x="222.65625"/>
       </g>
      </g>
     </g>
     <g id="text_57">
      <!-- Shape function -->
      <g transform="translate(918.587702 102.848482) rotate(-90) scale(0.1 -0.1)">
       <use xlink:href="#DejaVuSans-53"/>
       <use xlink:href="#DejaVuSans-68" x="63.476562"/>
       <use xlink:href="#DejaVuSans-61" x="126.855469"/>
       <use xlink:href="#DejaVuSans-70" x="188.134766"/>
       <use xlink:href="#DejaVuSans-65" x="251.611328"/>
       <use xlink:href="#DejaVuSans-20" x="313.134766"/>
       <use xlink:href="#DejaVuSans-66" x="344.921875"/>
       <use xlink:href="#DejaVuSans-75" x="380.126953"/>
       <use xlink:href="#DejaVuSans-6e" x="443.505859"/>
       <use xlink:href="#DejaVuSans-63" x="506.884766"/>
       <use xlink:href="#DejaVuSans-74" x="561.865234"/>
       <use xlink:href="#DejaVuSans-69" x="601.074219"/>
       <use xlink:href="#DejaVuSans-6f" x="628.857422"/>
       <use xlink:href="#DejaVuSans-6e" x="690.039062"/>
      </g>
     </g>
    </g>
    <g id="patch_74">
     <path d="M 968.675202 119.959997 
L 968.675202 10.39478 
" style="fill: none; stroke: #000000; stroke-width: 0.8; stroke-linejoin: miter; stroke-linecap: square"/>
    </g>
    <g id="patch_75">
     <path d="M 1103.675202 119.959997 
L 1103.675202 10.39478 
" style="fill: none; stroke: #000000; stroke-width: 0.8; stroke-linejoin: miter; stroke-linecap: square"/>
    </g>
    <g id="patch_76">
     <path d="M 968.675202 119.959997 
L 1103.675202 119.959997 
" style="fill: none; stroke: #000000; stroke-width: 0.8; stroke-linejoin: miter; stroke-linecap: square"/>
    </g>
    <g id="patch_77">
     <path d="M 968.675202 10.39478 
L 1103.675202 10.39478 
" style="fill: none; stroke: #000000; stroke-width: 0.8; stroke-linejoin: miter; stroke-linecap: square"/>
    </g>
   </g>
   <g id="axes_12">
    <g id="patch_78">
     <path d="M 968.675202 161.59478 
L 1103.675202 161.59478 
L 1103.675202 139.681736 
L 968.675202 139.681736 
z
" style="fill: #ffffff"/>
    </g>
    <g id="patch_79">
     <path d="M 974.811565 161.59478 
L 1029.35702 161.59478 
L 1029.35702 140.725214 
L 974.811565 140.725214 
z
" clip-path="url(#p825ddc6c19)" style="fill: #1f77b4"/>
    </g>
    <g id="patch_80">
     <path d="M 1042.993383 161.59478 
L 1097.538838 161.59478 
L 1097.538838 142.330566 
L 1042.993383 142.330566 
z
" clip-path="url(#p825ddc6c19)" style="fill: #1f77b4"/>
    </g>
    <g id="matplotlib.axis_23">
     <g id="xtick_25">
      <g id="line2d_60">
       <g>
        <use xlink:href="#mf871220bc7" x="1002.084293" y="161.59478" style="stroke: #000000; stroke-width: 0.8"/>
       </g>
      </g>
      <g id="text_58">
       <!-- 0 -->
       <g transform="translate(998.903043 176.193217) scale(0.1 -0.1)">
        <use xlink:href="#DejaVuSans-30"/>
       </g>
      </g>
     </g>
     <g id="xtick_26">
      <g id="line2d_61">
       <g>
        <use xlink:href="#mf871220bc7" x="1070.266111" y="161.59478" style="stroke: #000000; stroke-width: 0.8"/>
       </g>
      </g>
      <g id="text_59">
       <!-- 1 -->
       <g transform="translate(1067.084861 176.193217) scale(0.1 -0.1)">
        <use xlink:href="#DejaVuSans-31"/>
       </g>
      </g>
     </g>
     <g id="text_60">
      <!-- FORM -->
      <g transform="translate(1021.575202 189.871342) scale(0.1 -0.1)">
       <defs>
        <path id="DejaVuSans-52" d="M 2841 2188 
Q 3044 2119 3236 1894 
Q 3428 1669 3622 1275 
L 4263 0 
L 3584 0 
L 2988 1197 
Q 2756 1666 2539 1819 
Q 2322 1972 1947 1972 
L 1259 1972 
L 1259 0 
L 628 0 
L 628 4666 
L 2053 4666 
Q 2853 4666 3247 4331 
Q 3641 3997 3641 3322 
Q 3641 2881 3436 2590 
Q 3231 2300 2841 2188 
z
M 1259 4147 
L 1259 2491 
L 2053 2491 
Q 2509 2491 2742 2702 
Q 2975 2913 2975 3322 
Q 2975 3731 2742 3939 
Q 2509 4147 2053 4147 
L 1259 4147 
z
" transform="scale(0.015625)"/>
        <path id="DejaVuSans-4d" d="M 628 4666 
L 1569 4666 
L 2759 1491 
L 3956 4666 
L 4897 4666 
L 4897 0 
L 4281 0 
L 4281 4097 
L 3078 897 
L 2444 897 
L 1241 4097 
L 1241 0 
L 628 0 
L 628 4666 
z
" transform="scale(0.015625)"/>
       </defs>
       <use xlink:href="#DejaVuSans-46"/>
       <use xlink:href="#DejaVuSans-4f" x="57.519531"/>
       <use xlink:href="#DejaVuSans-52" x="136.230469"/>
       <use xlink:href="#DejaVuSans-4d" x="205.712891"/>
      </g>
     </g>
    </g>
    <g id="matplotlib.axis_24">
     <g id="ytick_33">
      <g id="line2d_62">
       <g>
        <use xlink:href="#m4f70a41cbc" x="968.675202" y="161.59478" style="stroke: #000000; stroke-width: 0.8"/>
       </g>
      </g>
      <g id="text_61">
       <!-- 0 -->
       <g transform="translate(955.312702 165.393998) scale(0.1 -0.1)">
        <use xlink:href="#DejaVuSans-30"/>
       </g>
      </g>
     </g>
     <g id="ytick_34">
      <g id="line2d_63">
       <g>
        <use xlink:href="#m4f70a41cbc" x="968.675202" y="148.216853" style="stroke: #000000; stroke-width: 0.8"/>
       </g>
      </g>
      <g id="text_62">
       <!-- 25 -->
       <g transform="translate(948.950202 152.016072) scale(0.1 -0.1)">
        <use xlink:href="#DejaVuSans-32"/>
        <use xlink:href="#DejaVuSans-35" x="63.623047"/>
       </g>
      </g>
     </g>
     <g id="text_63">
      <!-- Frequency -->
      <g transform="translate(942.870514 176.467945) rotate(-90) scale(0.1 -0.1)">
       <use xlink:href="#DejaVuSans-46"/>
       <use xlink:href="#DejaVuSans-72" x="50.269531"/>
       <use xlink:href="#DejaVuSans-65" x="89.132812"/>
       <use xlink:href="#DejaVuSans-71" x="150.65625"/>
       <use xlink:href="#DejaVuSans-75" x="214.132812"/>
       <use xlink:href="#DejaVuSans-65" x="277.511719"/>
       <use xlink:href="#DejaVuSans-6e" x="339.035156"/>
       <use xlink:href="#DejaVuSans-63" x="402.414062"/>
       <use xlink:href="#DejaVuSans-79" x="457.394531"/>
      </g>
     </g>
    </g>
    <g id="patch_81">
     <path d="M 968.675202 161.59478 
L 968.675202 139.681736 
" style="fill: none; stroke: #000000; stroke-width: 0.8; stroke-linejoin: miter; stroke-linecap: square"/>
    </g>
    <g id="patch_82">
     <path d="M 1103.675202 161.59478 
L 1103.675202 139.681736 
" style="fill: none; stroke: #000000; stroke-width: 0.8; stroke-linejoin: miter; stroke-linecap: square"/>
    </g>
    <g id="patch_83">
     <path d="M 968.675202 161.59478 
L 1103.675202 161.59478 
" style="fill: none; stroke: #000000; stroke-width: 0.8; stroke-linejoin: miter; stroke-linecap: square"/>
    </g>
    <g id="patch_84">
     <path d="M 968.675202 139.681736 
L 1103.675202 139.681736 
" style="fill: none; stroke: #000000; stroke-width: 0.8; stroke-linejoin: miter; stroke-linecap: square"/>
    </g>
   </g>
  </g>
  <g id="subfigure_10">
   <g id="patch_85">
    <path d="M 946.901008 418.831143 
L 1121.094556 418.831143 
L 1121.094556 222.467507 
L 946.901008 222.467507 
L 946.901008 418.831143 
z
" style="fill: none"/>
   </g>
  </g>
 </g>
 <defs>
  <clipPath id="p9e44f030de">
   <rect x="62.86875" y="10.39478" width="135" height="109.565217"/>
  </clipPath>
  <clipPath id="p5b9cfb92ca">
   <rect x="62.86875" y="139.681736" width="135" height="21.913043"/>
  </clipPath>
  <clipPath id="pdf8c8ea6e2">
   <rect x="62.86875" y="246.031143" width="135" height="109.565217"/>
  </clipPath>
  <clipPath id="p299f6c5e27">
   <rect x="289.320363" y="10.39478" width="135" height="109.565217"/>
  </clipPath>
  <clipPath id="p95a7acce38">
   <rect x="289.320363" y="139.681736" width="135" height="21.913043"/>
  </clipPath>
  <clipPath id="p77141ead6d">
   <rect x="515.771976" y="10.39478" width="135" height="109.565217"/>
  </clipPath>
  <clipPath id="peca87399f3">
   <rect x="515.771976" y="139.681736" width="135" height="21.913043"/>
  </clipPath>
  <clipPath id="pc29bcd9d49">
   <rect x="742.223589" y="10.39478" width="135" height="109.565217"/>
  </clipPath>
  <clipPath id="p21dee64d47">
   <rect x="742.223589" y="139.681736" width="135" height="21.913043"/>
  </clipPath>
  <clipPath id="p41c90db89b">
   <rect x="968.675202" y="10.39478" width="135" height="109.565217"/>
  </clipPath>
  <clipPath id="p825ddc6c19">
   <rect x="968.675202" y="139.681736" width="135" height="21.913043"/>
  </clipPath>
 </defs>
</svg>
