<?xml version="1.0" encoding="utf-8" standalone="no"?>
<!DOCTYPE svg PUBLIC "-//W3C//DTD SVG 1.1//EN"
  "http://www.w3.org/Graphics/SVG/1.1/DTD/svg11.dtd">
<svg xmlns:xlink="http://www.w3.org/1999/xlink" width="480.607677pt" height="639.529412pt" viewBox="0 0 480.607677 639.529412" xmlns="http://www.w3.org/2000/svg" version="1.1">
 <metadata>
  <rdf:RDF xmlns:dc="http://purl.org/dc/elements/1.1/" xmlns:cc="http://creativecommons.org/ns#" xmlns:rdf="http://www.w3.org/1999/02/22-rdf-syntax-ns#">
   <cc:Work>
    <dc:type rdf:resource="http://purl.org/dc/dcmitype/StillImage"/>
    <dc:date>2025-06-04T16:18:29.870982</dc:date>
    <dc:format>image/svg+xml</dc:format>
    <dc:creator>
     <cc:Agent>
      <dc:title>Matplotlib v3.8.3, https://matplotlib.org/</dc:title>
     </cc:Agent>
    </dc:creator>
   </cc:Work>
  </rdf:RDF>
 </metadata>
 <defs>
  <style type="text/css">*{stroke-linejoin: round; stroke-linecap: butt}</style>
 </defs>
 <g id="figure_1">
  <g id="patch_1">
   <path d="M 0 639.529412 
L 480.607677 639.529412 
L 480.607677 0 
L 0 0 
z
" style="fill: #ffffff"/>
  </g>
  <g id="subfigure_1">
   <g id="patch_2">
    <path d="M 41.407677 174.917647 
L 229.233764 174.917647 
L 229.233764 -1 
M 41.407677 -1 
L 41.407677 174.917647 
" style="fill: none"/>
   </g>
   <g id="axes_1">
    <g id="patch_3">
     <path d="M 64.885937 113.542711 
L 210.451155 113.542711 
L 210.451155 7.2 
L 64.885937 7.2 
z
" style="fill: #ffffff"/>
    </g>
    <g id="matplotlib.axis_1">
     <g id="xtick_1">
      <g id="line2d_1">
       <defs>
        <path id="me958d3e06c" d="M 0 0 
L 0 3.5 
" style="stroke: #000000; stroke-width: 0.8"/>
       </defs>
       <g>
        <use xlink:href="#me958d3e06c" x="71.462624" y="113.542711" style="stroke: #000000; stroke-width: 0.8"/>
       </g>
      </g>
     </g>
     <g id="xtick_2">
      <g id="line2d_2">
       <g>
        <use xlink:href="#me958d3e06c" x="115.710054" y="113.542711" style="stroke: #000000; stroke-width: 0.8"/>
       </g>
      </g>
     </g>
     <g id="xtick_3">
      <g id="line2d_3">
       <g>
        <use xlink:href="#me958d3e06c" x="159.957484" y="113.542711" style="stroke: #000000; stroke-width: 0.8"/>
       </g>
      </g>
     </g>
     <g id="xtick_4">
      <g id="line2d_4">
       <g>
        <use xlink:href="#me958d3e06c" x="204.204914" y="113.542711" style="stroke: #000000; stroke-width: 0.8"/>
       </g>
      </g>
     </g>
    </g>
    <g id="matplotlib.axis_2">
     <g id="ytick_1">
      <g id="line2d_5">
       <defs>
        <path id="m8ec7c5e0f9" d="M 0 0 
L -3.5 0 
" style="stroke: #000000; stroke-width: 0.8"/>
       </defs>
       <g>
        <use xlink:href="#m8ec7c5e0f9" x="64.885937" y="108.708951" style="stroke: #000000; stroke-width: 0.8"/>
       </g>
      </g>
      <g id="text_1">
       <!-- −0.050 -->
       <g transform="translate(20.878125 112.50817) scale(0.1 -0.1)">
        <defs>
         <path id="DejaVuSans-2212" d="M 678 2272 
L 4684 2272 
L 4684 1741 
L 678 1741 
L 678 2272 
z
" transform="scale(0.015625)"/>
         <path id="DejaVuSans-30" d="M 2034 4250 
Q 1547 4250 1301 3770 
Q 1056 3291 1056 2328 
Q 1056 1369 1301 889 
Q 1547 409 2034 409 
Q 2525 409 2770 889 
Q 3016 1369 3016 2328 
Q 3016 3291 2770 3770 
Q 2525 4250 2034 4250 
z
M 2034 4750 
Q 2819 4750 3233 4129 
Q 3647 3509 3647 2328 
Q 3647 1150 3233 529 
Q 2819 -91 2034 -91 
Q 1250 -91 836 529 
Q 422 1150 422 2328 
Q 422 3509 836 4129 
Q 1250 4750 2034 4750 
z
" transform="scale(0.015625)"/>
         <path id="DejaVuSans-2e" d="M 684 794 
L 1344 794 
L 1344 0 
L 684 0 
L 684 794 
z
" transform="scale(0.015625)"/>
         <path id="DejaVuSans-35" d="M 691 4666 
L 3169 4666 
L 3169 4134 
L 1269 4134 
L 1269 2991 
Q 1406 3038 1543 3061 
Q 1681 3084 1819 3084 
Q 2600 3084 3056 2656 
Q 3513 2228 3513 1497 
Q 3513 744 3044 326 
Q 2575 -91 1722 -91 
Q 1428 -91 1123 -41 
Q 819 9 494 109 
L 494 744 
Q 775 591 1075 516 
Q 1375 441 1709 441 
Q 2250 441 2565 725 
Q 2881 1009 2881 1497 
Q 2881 1984 2565 2268 
Q 2250 2553 1709 2553 
Q 1456 2553 1204 2497 
Q 953 2441 691 2322 
L 691 4666 
z
" transform="scale(0.015625)"/>
        </defs>
        <use xlink:href="#DejaVuSans-2212"/>
        <use xlink:href="#DejaVuSans-30" x="83.789062"/>
        <use xlink:href="#DejaVuSans-2e" x="147.412109"/>
        <use xlink:href="#DejaVuSans-30" x="179.199219"/>
        <use xlink:href="#DejaVuSans-35" x="242.822266"/>
        <use xlink:href="#DejaVuSans-30" x="306.445312"/>
       </g>
      </g>
     </g>
     <g id="ytick_2">
      <g id="line2d_6">
       <g>
        <use xlink:href="#m8ec7c5e0f9" x="64.885937" y="84.540153" style="stroke: #000000; stroke-width: 0.8"/>
       </g>
      </g>
      <g id="text_2">
       <!-- −0.025 -->
       <g transform="translate(20.878125 88.339372) scale(0.1 -0.1)">
        <defs>
         <path id="DejaVuSans-32" d="M 1228 531 
L 3431 531 
L 3431 0 
L 469 0 
L 469 531 
Q 828 903 1448 1529 
Q 2069 2156 2228 2338 
Q 2531 2678 2651 2914 
Q 2772 3150 2772 3378 
Q 2772 3750 2511 3984 
Q 2250 4219 1831 4219 
Q 1534 4219 1204 4116 
Q 875 4013 500 3803 
L 500 4441 
Q 881 4594 1212 4672 
Q 1544 4750 1819 4750 
Q 2544 4750 2975 4387 
Q 3406 4025 3406 3419 
Q 3406 3131 3298 2873 
Q 3191 2616 2906 2266 
Q 2828 2175 2409 1742 
Q 1991 1309 1228 531 
z
" transform="scale(0.015625)"/>
        </defs>
        <use xlink:href="#DejaVuSans-2212"/>
        <use xlink:href="#DejaVuSans-30" x="83.789062"/>
        <use xlink:href="#DejaVuSans-2e" x="147.412109"/>
        <use xlink:href="#DejaVuSans-30" x="179.199219"/>
        <use xlink:href="#DejaVuSans-32" x="242.822266"/>
        <use xlink:href="#DejaVuSans-35" x="306.445312"/>
       </g>
      </g>
     </g>
     <g id="ytick_3">
      <g id="line2d_7">
       <g>
        <use xlink:href="#m8ec7c5e0f9" x="64.885937" y="60.371355" style="stroke: #000000; stroke-width: 0.8"/>
       </g>
      </g>
      <g id="text_3">
       <!-- 0.000 -->
       <g transform="translate(29.257812 64.170574) scale(0.1 -0.1)">
        <use xlink:href="#DejaVuSans-30"/>
        <use xlink:href="#DejaVuSans-2e" x="63.623047"/>
        <use xlink:href="#DejaVuSans-30" x="95.410156"/>
        <use xlink:href="#DejaVuSans-30" x="159.033203"/>
        <use xlink:href="#DejaVuSans-30" x="222.65625"/>
       </g>
      </g>
     </g>
     <g id="ytick_4">
      <g id="line2d_8">
       <g>
        <use xlink:href="#m8ec7c5e0f9" x="64.885937" y="36.202558" style="stroke: #000000; stroke-width: 0.8"/>
       </g>
      </g>
      <g id="text_4">
       <!-- 0.025 -->
       <g transform="translate(29.257812 40.001776) scale(0.1 -0.1)">
        <use xlink:href="#DejaVuSans-30"/>
        <use xlink:href="#DejaVuSans-2e" x="63.623047"/>
        <use xlink:href="#DejaVuSans-30" x="95.410156"/>
        <use xlink:href="#DejaVuSans-32" x="159.033203"/>
        <use xlink:href="#DejaVuSans-35" x="222.65625"/>
       </g>
      </g>
     </g>
     <g id="ytick_5">
      <g id="line2d_9">
       <g>
        <use xlink:href="#m8ec7c5e0f9" x="64.885937" y="12.03376" style="stroke: #000000; stroke-width: 0.8"/>
       </g>
      </g>
      <g id="text_5">
       <!-- 0.050 -->
       <g transform="translate(29.257812 15.832978) scale(0.1 -0.1)">
        <use xlink:href="#DejaVuSans-30"/>
        <use xlink:href="#DejaVuSans-2e" x="63.623047"/>
        <use xlink:href="#DejaVuSans-30" x="95.410156"/>
        <use xlink:href="#DejaVuSans-35" x="159.033203"/>
        <use xlink:href="#DejaVuSans-30" x="222.65625"/>
       </g>
      </g>
     </g>
     <g id="text_6">
      <!-- Shape function -->
      <g transform="translate(14.798437 98.042449) rotate(-90) scale(0.1 -0.1)">
       <defs>
        <path id="DejaVuSans-53" d="M 3425 4513 
L 3425 3897 
Q 3066 4069 2747 4153 
Q 2428 4238 2131 4238 
Q 1616 4238 1336 4038 
Q 1056 3838 1056 3469 
Q 1056 3159 1242 3001 
Q 1428 2844 1947 2747 
L 2328 2669 
Q 3034 2534 3370 2195 
Q 3706 1856 3706 1288 
Q 3706 609 3251 259 
Q 2797 -91 1919 -91 
Q 1588 -91 1214 -16 
Q 841 59 441 206 
L 441 856 
Q 825 641 1194 531 
Q 1563 422 1919 422 
Q 2459 422 2753 634 
Q 3047 847 3047 1241 
Q 3047 1584 2836 1778 
Q 2625 1972 2144 2069 
L 1759 2144 
Q 1053 2284 737 2584 
Q 422 2884 422 3419 
Q 422 4038 858 4394 
Q 1294 4750 2059 4750 
Q 2388 4750 2728 4690 
Q 3069 4631 3425 4513 
z
" transform="scale(0.015625)"/>
        <path id="DejaVuSans-68" d="M 3513 2113 
L 3513 0 
L 2938 0 
L 2938 2094 
Q 2938 2591 2744 2837 
Q 2550 3084 2163 3084 
Q 1697 3084 1428 2787 
Q 1159 2491 1159 1978 
L 1159 0 
L 581 0 
L 581 4863 
L 1159 4863 
L 1159 2956 
Q 1366 3272 1645 3428 
Q 1925 3584 2291 3584 
Q 2894 3584 3203 3211 
Q 3513 2838 3513 2113 
z
" transform="scale(0.015625)"/>
        <path id="DejaVuSans-61" d="M 2194 1759 
Q 1497 1759 1228 1600 
Q 959 1441 959 1056 
Q 959 750 1161 570 
Q 1363 391 1709 391 
Q 2188 391 2477 730 
Q 2766 1069 2766 1631 
L 2766 1759 
L 2194 1759 
z
M 3341 1997 
L 3341 0 
L 2766 0 
L 2766 531 
Q 2569 213 2275 61 
Q 1981 -91 1556 -91 
Q 1019 -91 701 211 
Q 384 513 384 1019 
Q 384 1609 779 1909 
Q 1175 2209 1959 2209 
L 2766 2209 
L 2766 2266 
Q 2766 2663 2505 2880 
Q 2244 3097 1772 3097 
Q 1472 3097 1187 3025 
Q 903 2953 641 2809 
L 641 3341 
Q 956 3463 1253 3523 
Q 1550 3584 1831 3584 
Q 2591 3584 2966 3190 
Q 3341 2797 3341 1997 
z
" transform="scale(0.015625)"/>
        <path id="DejaVuSans-70" d="M 1159 525 
L 1159 -1331 
L 581 -1331 
L 581 3500 
L 1159 3500 
L 1159 2969 
Q 1341 3281 1617 3432 
Q 1894 3584 2278 3584 
Q 2916 3584 3314 3078 
Q 3713 2572 3713 1747 
Q 3713 922 3314 415 
Q 2916 -91 2278 -91 
Q 1894 -91 1617 61 
Q 1341 213 1159 525 
z
M 3116 1747 
Q 3116 2381 2855 2742 
Q 2594 3103 2138 3103 
Q 1681 3103 1420 2742 
Q 1159 2381 1159 1747 
Q 1159 1113 1420 752 
Q 1681 391 2138 391 
Q 2594 391 2855 752 
Q 3116 1113 3116 1747 
z
" transform="scale(0.015625)"/>
        <path id="DejaVuSans-65" d="M 3597 1894 
L 3597 1613 
L 953 1613 
Q 991 1019 1311 708 
Q 1631 397 2203 397 
Q 2534 397 2845 478 
Q 3156 559 3463 722 
L 3463 178 
Q 3153 47 2828 -22 
Q 2503 -91 2169 -91 
Q 1331 -91 842 396 
Q 353 884 353 1716 
Q 353 2575 817 3079 
Q 1281 3584 2069 3584 
Q 2775 3584 3186 3129 
Q 3597 2675 3597 1894 
z
M 3022 2063 
Q 3016 2534 2758 2815 
Q 2500 3097 2075 3097 
Q 1594 3097 1305 2825 
Q 1016 2553 972 2059 
L 3022 2063 
z
" transform="scale(0.015625)"/>
        <path id="DejaVuSans-20" transform="scale(0.015625)"/>
        <path id="DejaVuSans-66" d="M 2375 4863 
L 2375 4384 
L 1825 4384 
Q 1516 4384 1395 4259 
Q 1275 4134 1275 3809 
L 1275 3500 
L 2222 3500 
L 2222 3053 
L 1275 3053 
L 1275 0 
L 697 0 
L 697 3053 
L 147 3053 
L 147 3500 
L 697 3500 
L 697 3744 
Q 697 4328 969 4595 
Q 1241 4863 1831 4863 
L 2375 4863 
z
" transform="scale(0.015625)"/>
        <path id="DejaVuSans-75" d="M 544 1381 
L 544 3500 
L 1119 3500 
L 1119 1403 
Q 1119 906 1312 657 
Q 1506 409 1894 409 
Q 2359 409 2629 706 
Q 2900 1003 2900 1516 
L 2900 3500 
L 3475 3500 
L 3475 0 
L 2900 0 
L 2900 538 
Q 2691 219 2414 64 
Q 2138 -91 1772 -91 
Q 1169 -91 856 284 
Q 544 659 544 1381 
z
M 1991 3584 
L 1991 3584 
z
" transform="scale(0.015625)"/>
        <path id="DejaVuSans-6e" d="M 3513 2113 
L 3513 0 
L 2938 0 
L 2938 2094 
Q 2938 2591 2744 2837 
Q 2550 3084 2163 3084 
Q 1697 3084 1428 2787 
Q 1159 2491 1159 1978 
L 1159 0 
L 581 0 
L 581 3500 
L 1159 3500 
L 1159 2956 
Q 1366 3272 1645 3428 
Q 1925 3584 2291 3584 
Q 2894 3584 3203 3211 
Q 3513 2838 3513 2113 
z
" transform="scale(0.015625)"/>
        <path id="DejaVuSans-63" d="M 3122 3366 
L 3122 2828 
Q 2878 2963 2633 3030 
Q 2388 3097 2138 3097 
Q 1578 3097 1268 2742 
Q 959 2388 959 1747 
Q 959 1106 1268 751 
Q 1578 397 2138 397 
Q 2388 397 2633 464 
Q 2878 531 3122 666 
L 3122 134 
Q 2881 22 2623 -34 
Q 2366 -91 2075 -91 
Q 1284 -91 818 406 
Q 353 903 353 1747 
Q 353 2603 823 3093 
Q 1294 3584 2113 3584 
Q 2378 3584 2631 3529 
Q 2884 3475 3122 3366 
z
" transform="scale(0.015625)"/>
        <path id="DejaVuSans-74" d="M 1172 4494 
L 1172 3500 
L 2356 3500 
L 2356 3053 
L 1172 3053 
L 1172 1153 
Q 1172 725 1289 603 
Q 1406 481 1766 481 
L 2356 481 
L 2356 0 
L 1766 0 
Q 1100 0 847 248 
Q 594 497 594 1153 
L 594 3053 
L 172 3053 
L 172 3500 
L 594 3500 
L 594 4494 
L 1172 4494 
z
" transform="scale(0.015625)"/>
        <path id="DejaVuSans-69" d="M 603 3500 
L 1178 3500 
L 1178 0 
L 603 0 
L 603 3500 
z
M 603 4863 
L 1178 4863 
L 1178 4134 
L 603 4134 
L 603 4863 
z
" transform="scale(0.015625)"/>
        <path id="DejaVuSans-6f" d="M 1959 3097 
Q 1497 3097 1228 2736 
Q 959 2375 959 1747 
Q 959 1119 1226 758 
Q 1494 397 1959 397 
Q 2419 397 2687 759 
Q 2956 1122 2956 1747 
Q 2956 2369 2687 2733 
Q 2419 3097 1959 3097 
z
M 1959 3584 
Q 2709 3584 3137 3096 
Q 3566 2609 3566 1747 
Q 3566 888 3137 398 
Q 2709 -91 1959 -91 
Q 1206 -91 779 398 
Q 353 888 353 1747 
Q 353 2609 779 3096 
Q 1206 3584 1959 3584 
z
" transform="scale(0.015625)"/>
       </defs>
       <use xlink:href="#DejaVuSans-53"/>
       <use xlink:href="#DejaVuSans-68" x="63.476562"/>
       <use xlink:href="#DejaVuSans-61" x="126.855469"/>
       <use xlink:href="#DejaVuSans-70" x="188.134766"/>
       <use xlink:href="#DejaVuSans-65" x="251.611328"/>
       <use xlink:href="#DejaVuSans-20" x="313.134766"/>
       <use xlink:href="#DejaVuSans-66" x="344.921875"/>
       <use xlink:href="#DejaVuSans-75" x="380.126953"/>
       <use xlink:href="#DejaVuSans-6e" x="443.505859"/>
       <use xlink:href="#DejaVuSans-63" x="506.884766"/>
       <use xlink:href="#DejaVuSans-74" x="561.865234"/>
       <use xlink:href="#DejaVuSans-69" x="601.074219"/>
       <use xlink:href="#DejaVuSans-6f" x="628.857422"/>
       <use xlink:href="#DejaVuSans-6e" x="690.039062"/>
      </g>
     </g>
    </g>
    <g id="line2d_10">
     <path d="M 71.502538 60.371355 
L 72.839225 60.371355 
L 74.175912 60.371355 
L 75.512599 60.371355 
L 76.849286 60.371355 
L 78.185973 60.371355 
L 79.52266 60.371355 
L 80.859347 60.371355 
L 82.196035 60.371355 
L 83.532722 60.371355 
L 84.869409 60.371355 
L 86.206096 60.371355 
L 87.542783 60.371355 
L 88.87947 60.371355 
L 90.216157 60.371355 
L 91.552844 60.371355 
L 92.889531 60.371355 
L 94.226218 60.371355 
L 95.562905 60.371355 
L 96.899592 60.371355 
L 98.236279 60.371355 
L 99.572966 60.371355 
L 100.909653 60.371355 
L 102.24634 60.371355 
L 103.583027 60.371355 
L 104.919714 60.371355 
L 106.256401 60.371355 
L 107.593088 60.371355 
L 108.929775 60.371355 
L 110.266462 60.371355 
L 111.603149 60.371355 
L 112.939836 60.371355 
L 114.276523 60.371355 
L 115.61321 60.371355 
L 116.949897 60.371355 
L 118.286584 60.371355 
L 119.623271 60.371355 
L 120.959958 60.371355 
L 122.296645 60.371355 
L 123.633332 60.371355 
L 124.970019 60.371355 
L 126.306706 60.371355 
L 127.643393 60.371355 
L 128.980081 60.371355 
L 130.316768 60.371355 
L 131.653455 60.371355 
L 132.990142 60.371355 
L 134.326829 60.371355 
L 135.663516 60.371355 
L 137.000203 60.371355 
L 138.33689 60.371355 
L 139.673577 60.371355 
L 141.010264 60.371355 
L 142.346951 60.371355 
L 143.683638 60.371355 
L 145.020325 60.371355 
L 146.357012 60.371355 
L 147.693699 60.371355 
L 149.030386 60.371355 
L 150.367073 60.371355 
L 151.70376 60.371355 
L 153.040447 60.371355 
L 154.377134 60.371355 
L 155.713821 60.371355 
L 157.050508 60.371355 
L 158.387195 60.371355 
L 159.723882 60.371355 
L 161.060569 60.371355 
L 162.397256 60.371355 
L 163.733943 60.371355 
L 165.07063 60.371355 
L 166.407317 60.371355 
L 167.744004 60.371355 
L 169.080691 60.371355 
L 170.417378 60.371355 
L 171.754065 60.371355 
L 173.090752 60.371355 
L 174.427439 60.371355 
L 175.764127 60.371355 
L 177.100814 60.371355 
L 178.437501 60.371355 
L 179.774188 60.371355 
L 181.110875 60.371355 
L 182.447562 60.371355 
L 183.784249 60.371355 
L 185.120936 60.371355 
L 186.457623 60.371355 
L 187.79431 60.371355 
L 189.130997 60.371355 
L 190.467684 60.371355 
L 191.804371 60.371355 
L 193.141058 60.371355 
L 194.477745 60.371355 
L 195.814432 60.371355 
L 197.151119 60.371355 
L 198.487806 60.371355 
L 199.824493 60.371355 
L 201.16118 60.371355 
L 202.497867 60.371355 
L 203.834554 60.371355 
" clip-path="url(#p69e2392211)" style="fill: none; stroke: #1f77b4; stroke-width: 1.5; stroke-linecap: square"/>
    </g>
    <g id="patch_4">
     <path d="M 64.885937 113.542711 
L 64.885937 7.2 
" style="fill: none; stroke: #000000; stroke-width: 0.8; stroke-linejoin: miter; stroke-linecap: square"/>
    </g>
    <g id="patch_5">
     <path d="M 210.451155 113.542711 
L 210.451155 7.2 
" style="fill: none; stroke: #000000; stroke-width: 0.8; stroke-linejoin: miter; stroke-linecap: square"/>
    </g>
    <g id="patch_6">
     <path d="M 64.885938 113.542711 
L 210.451155 113.542711 
" style="fill: none; stroke: #000000; stroke-width: 0.8; stroke-linejoin: miter; stroke-linecap: square"/>
    </g>
    <g id="patch_7">
     <path d="M 64.885938 7.2 
L 210.451155 7.2 
" style="fill: none; stroke: #000000; stroke-width: 0.8; stroke-linejoin: miter; stroke-linecap: square"/>
    </g>
   </g>
   <g id="axes_2">
    <g id="patch_8">
     <path d="M 64.885937 153.952941 
L 210.451155 153.952941 
L 210.451155 132.684399 
L 64.885937 132.684399 
z
" style="fill: #ffffff"/>
    </g>
    <g id="patch_9">
     <path d="M 72.313354 153.952941 
L 72.313354 135.722762 
L 78.888089 135.722762 
L 78.888089 143.825064 
L 85.462824 143.825064 
L 85.462824 143.825064 
L 92.037559 143.825064 
L 92.037559 137.748338 
L 98.612294 137.748338 
L 98.612294 143.825064 
L 105.187029 143.825064 
L 105.187029 145.850639 
L 111.761764 145.850639 
L 111.761764 143.825064 
L 118.336499 143.825064 
L 118.336499 141.799488 
L 124.911233 141.799488 
L 124.911233 133.697187 
L 131.485968 133.697187 
L 131.485968 141.799488 
L 138.060703 141.799488 
L 138.060703 135.722762 
L 144.635438 135.722762 
L 144.635438 137.748338 
L 151.210173 137.748338 
L 151.210173 149.90179 
L 157.784908 149.90179 
L 157.784908 135.722762 
L 164.359643 135.722762 
L 164.359643 133.697187 
L 170.934378 133.697187 
L 170.934378 141.799488 
L 177.509113 141.799488 
L 177.509113 139.773913 
L 184.083848 139.773913 
L 184.083848 153.952941 
L 190.658583 153.952941 
L 190.658583 141.799488 
L 197.233318 141.799488 
L 197.233318 137.748338 
L 203.808053 137.748338 
L 203.808053 153.952941 
" clip-path="url(#p165f7b745e)" style="fill: #1f77b4"/>
    </g>
    <g id="matplotlib.axis_3">
     <g id="xtick_5">
      <g id="line2d_11">
       <g>
        <use xlink:href="#me958d3e06c" x="71.462624" y="153.952941" style="stroke: #000000; stroke-width: 0.8"/>
       </g>
      </g>
      <g id="text_7">
       <!-- 20 -->
       <g transform="translate(65.100124 168.551379) scale(0.1 -0.1)">
        <use xlink:href="#DejaVuSans-32"/>
        <use xlink:href="#DejaVuSans-30" x="63.623047"/>
       </g>
      </g>
     </g>
     <g id="xtick_6">
      <g id="line2d_12">
       <g>
        <use xlink:href="#me958d3e06c" x="115.710054" y="153.952941" style="stroke: #000000; stroke-width: 0.8"/>
       </g>
      </g>
      <g id="text_8">
       <!-- 40 -->
       <g transform="translate(109.347554 168.551379) scale(0.1 -0.1)">
        <defs>
         <path id="DejaVuSans-34" d="M 2419 4116 
L 825 1625 
L 2419 1625 
L 2419 4116 
z
M 2253 4666 
L 3047 4666 
L 3047 1625 
L 3713 1625 
L 3713 1100 
L 3047 1100 
L 3047 0 
L 2419 0 
L 2419 1100 
L 313 1100 
L 313 1709 
L 2253 4666 
z
" transform="scale(0.015625)"/>
        </defs>
        <use xlink:href="#DejaVuSans-34"/>
        <use xlink:href="#DejaVuSans-30" x="63.623047"/>
       </g>
      </g>
     </g>
     <g id="xtick_7">
      <g id="line2d_13">
       <g>
        <use xlink:href="#me958d3e06c" x="159.957484" y="153.952941" style="stroke: #000000; stroke-width: 0.8"/>
       </g>
      </g>
      <g id="text_9">
       <!-- 60 -->
       <g transform="translate(153.594984 168.551379) scale(0.1 -0.1)">
        <defs>
         <path id="DejaVuSans-36" d="M 2113 2584 
Q 1688 2584 1439 2293 
Q 1191 2003 1191 1497 
Q 1191 994 1439 701 
Q 1688 409 2113 409 
Q 2538 409 2786 701 
Q 3034 994 3034 1497 
Q 3034 2003 2786 2293 
Q 2538 2584 2113 2584 
z
M 3366 4563 
L 3366 3988 
Q 3128 4100 2886 4159 
Q 2644 4219 2406 4219 
Q 1781 4219 1451 3797 
Q 1122 3375 1075 2522 
Q 1259 2794 1537 2939 
Q 1816 3084 2150 3084 
Q 2853 3084 3261 2657 
Q 3669 2231 3669 1497 
Q 3669 778 3244 343 
Q 2819 -91 2113 -91 
Q 1303 -91 875 529 
Q 447 1150 447 2328 
Q 447 3434 972 4092 
Q 1497 4750 2381 4750 
Q 2619 4750 2861 4703 
Q 3103 4656 3366 4563 
z
" transform="scale(0.015625)"/>
        </defs>
        <use xlink:href="#DejaVuSans-36"/>
        <use xlink:href="#DejaVuSans-30" x="63.623047"/>
       </g>
      </g>
     </g>
     <g id="xtick_8">
      <g id="line2d_14">
       <g>
        <use xlink:href="#me958d3e06c" x="204.204914" y="153.952941" style="stroke: #000000; stroke-width: 0.8"/>
       </g>
      </g>
      <g id="text_10">
       <!-- 80 -->
       <g transform="translate(197.842414 168.551379) scale(0.1 -0.1)">
        <defs>
         <path id="DejaVuSans-38" d="M 2034 2216 
Q 1584 2216 1326 1975 
Q 1069 1734 1069 1313 
Q 1069 891 1326 650 
Q 1584 409 2034 409 
Q 2484 409 2743 651 
Q 3003 894 3003 1313 
Q 3003 1734 2745 1975 
Q 2488 2216 2034 2216 
z
M 1403 2484 
Q 997 2584 770 2862 
Q 544 3141 544 3541 
Q 544 4100 942 4425 
Q 1341 4750 2034 4750 
Q 2731 4750 3128 4425 
Q 3525 4100 3525 3541 
Q 3525 3141 3298 2862 
Q 3072 2584 2669 2484 
Q 3125 2378 3379 2068 
Q 3634 1759 3634 1313 
Q 3634 634 3220 271 
Q 2806 -91 2034 -91 
Q 1263 -91 848 271 
Q 434 634 434 1313 
Q 434 1759 690 2068 
Q 947 2378 1403 2484 
z
M 1172 3481 
Q 1172 3119 1398 2916 
Q 1625 2713 2034 2713 
Q 2441 2713 2670 2916 
Q 2900 3119 2900 3481 
Q 2900 3844 2670 4047 
Q 2441 4250 2034 4250 
Q 1625 4250 1398 4047 
Q 1172 3844 1172 3481 
z
" transform="scale(0.015625)"/>
        </defs>
        <use xlink:href="#DejaVuSans-38"/>
        <use xlink:href="#DejaVuSans-30" x="63.623047"/>
       </g>
      </g>
     </g>
     <g id="text_11">
      <!-- age -->
      <g transform="translate(128.353702 182.229504) scale(0.1 -0.1)">
       <defs>
        <path id="DejaVuSans-67" d="M 2906 1791 
Q 2906 2416 2648 2759 
Q 2391 3103 1925 3103 
Q 1463 3103 1205 2759 
Q 947 2416 947 1791 
Q 947 1169 1205 825 
Q 1463 481 1925 481 
Q 2391 481 2648 825 
Q 2906 1169 2906 1791 
z
M 3481 434 
Q 3481 -459 3084 -895 
Q 2688 -1331 1869 -1331 
Q 1566 -1331 1297 -1286 
Q 1028 -1241 775 -1147 
L 775 -588 
Q 1028 -725 1275 -790 
Q 1522 -856 1778 -856 
Q 2344 -856 2625 -561 
Q 2906 -266 2906 331 
L 2906 616 
Q 2728 306 2450 153 
Q 2172 0 1784 0 
Q 1141 0 747 490 
Q 353 981 353 1791 
Q 353 2603 747 3093 
Q 1141 3584 1784 3584 
Q 2172 3584 2450 3431 
Q 2728 3278 2906 2969 
L 2906 3500 
L 3481 3500 
L 3481 434 
z
" transform="scale(0.015625)"/>
       </defs>
       <use xlink:href="#DejaVuSans-61"/>
       <use xlink:href="#DejaVuSans-67" x="61.279297"/>
       <use xlink:href="#DejaVuSans-65" x="124.755859"/>
      </g>
     </g>
    </g>
    <g id="matplotlib.axis_4">
     <g id="ytick_6">
      <g id="line2d_15">
       <g>
        <use xlink:href="#m8ec7c5e0f9" x="64.885937" y="153.952941" style="stroke: #000000; stroke-width: 0.8"/>
       </g>
      </g>
      <g id="text_12">
       <!-- 0 -->
       <g transform="translate(51.523438 157.75216) scale(0.1 -0.1)">
        <use xlink:href="#DejaVuSans-30"/>
       </g>
      </g>
     </g>
     <g id="ytick_7">
      <g id="line2d_16">
       <g>
        <use xlink:href="#m8ec7c5e0f9" x="64.885937" y="133.697187" style="stroke: #000000; stroke-width: 0.8"/>
       </g>
      </g>
      <g id="text_13">
       <!-- 10 -->
       <g transform="translate(45.160937 137.496405) scale(0.1 -0.1)">
        <defs>
         <path id="DejaVuSans-31" d="M 794 531 
L 1825 531 
L 1825 4091 
L 703 3866 
L 703 4441 
L 1819 4666 
L 2450 4666 
L 2450 531 
L 3481 531 
L 3481 0 
L 794 0 
L 794 531 
z
" transform="scale(0.015625)"/>
        </defs>
        <use xlink:href="#DejaVuSans-31"/>
        <use xlink:href="#DejaVuSans-30" x="63.623047"/>
       </g>
      </g>
     </g>
     <g id="text_14">
      <!-- Frequency -->
      <g transform="translate(39.08125 169.148358) rotate(-90) scale(0.1 -0.1)">
       <defs>
        <path id="DejaVuSans-46" d="M 628 4666 
L 3309 4666 
L 3309 4134 
L 1259 4134 
L 1259 2759 
L 3109 2759 
L 3109 2228 
L 1259 2228 
L 1259 0 
L 628 0 
L 628 4666 
z
" transform="scale(0.015625)"/>
        <path id="DejaVuSans-72" d="M 2631 2963 
Q 2534 3019 2420 3045 
Q 2306 3072 2169 3072 
Q 1681 3072 1420 2755 
Q 1159 2438 1159 1844 
L 1159 0 
L 581 0 
L 581 3500 
L 1159 3500 
L 1159 2956 
Q 1341 3275 1631 3429 
Q 1922 3584 2338 3584 
Q 2397 3584 2469 3576 
Q 2541 3569 2628 3553 
L 2631 2963 
z
" transform="scale(0.015625)"/>
        <path id="DejaVuSans-71" d="M 947 1747 
Q 947 1113 1208 752 
Q 1469 391 1925 391 
Q 2381 391 2643 752 
Q 2906 1113 2906 1747 
Q 2906 2381 2643 2742 
Q 2381 3103 1925 3103 
Q 1469 3103 1208 2742 
Q 947 2381 947 1747 
z
M 2906 525 
Q 2725 213 2448 61 
Q 2172 -91 1784 -91 
Q 1150 -91 751 415 
Q 353 922 353 1747 
Q 353 2572 751 3078 
Q 1150 3584 1784 3584 
Q 2172 3584 2448 3432 
Q 2725 3281 2906 2969 
L 2906 3500 
L 3481 3500 
L 3481 -1331 
L 2906 -1331 
L 2906 525 
z
" transform="scale(0.015625)"/>
        <path id="DejaVuSans-79" d="M 2059 -325 
Q 1816 -950 1584 -1140 
Q 1353 -1331 966 -1331 
L 506 -1331 
L 506 -850 
L 844 -850 
Q 1081 -850 1212 -737 
Q 1344 -625 1503 -206 
L 1606 56 
L 191 3500 
L 800 3500 
L 1894 763 
L 2988 3500 
L 3597 3500 
L 2059 -325 
z
" transform="scale(0.015625)"/>
       </defs>
       <use xlink:href="#DejaVuSans-46"/>
       <use xlink:href="#DejaVuSans-72" x="50.269531"/>
       <use xlink:href="#DejaVuSans-65" x="89.132812"/>
       <use xlink:href="#DejaVuSans-71" x="150.65625"/>
       <use xlink:href="#DejaVuSans-75" x="214.132812"/>
       <use xlink:href="#DejaVuSans-65" x="277.511719"/>
       <use xlink:href="#DejaVuSans-6e" x="339.035156"/>
       <use xlink:href="#DejaVuSans-63" x="402.414062"/>
       <use xlink:href="#DejaVuSans-79" x="457.394531"/>
      </g>
     </g>
    </g>
    <g id="patch_10">
     <path d="M 64.885937 153.952941 
L 64.885937 132.684399 
" style="fill: none; stroke: #000000; stroke-width: 0.8; stroke-linejoin: miter; stroke-linecap: square"/>
    </g>
    <g id="patch_11">
     <path d="M 210.451155 153.952941 
L 210.451155 132.684399 
" style="fill: none; stroke: #000000; stroke-width: 0.8; stroke-linejoin: miter; stroke-linecap: square"/>
    </g>
    <g id="patch_12">
     <path d="M 64.885938 153.952941 
L 210.451155 153.952941 
" style="fill: none; stroke: #000000; stroke-width: 0.8; stroke-linejoin: miter; stroke-linecap: square"/>
    </g>
    <g id="patch_13">
     <path d="M 64.885938 132.684399 
L 210.451155 132.684399 
" style="fill: none; stroke: #000000; stroke-width: 0.8; stroke-linejoin: miter; stroke-linecap: square"/>
    </g>
   </g>
  </g>
  <g id="subfigure_2">
   <g id="patch_14">
    <path d="M 41.407677 403.623529 
L 229.233764 403.623529 
L 229.233764 213.035294 
L 41.407677 213.035294 
L 41.407677 403.623529 
z
" style="fill: none"/>
   </g>
   <g id="axes_3">
    <g id="patch_15">
     <path d="M 64.885937 342.248593 
L 210.451155 342.248593 
L 210.451155 235.905882 
L 64.885937 235.905882 
z
" style="fill: #ffffff"/>
    </g>
    <g id="matplotlib.axis_5">
     <g id="xtick_9">
      <g id="line2d_17">
       <g>
        <use xlink:href="#me958d3e06c" x="104.52105" y="342.248593" style="stroke: #000000; stroke-width: 0.8"/>
       </g>
      </g>
     </g>
     <g id="xtick_10">
      <g id="line2d_18">
       <g>
        <use xlink:href="#me958d3e06c" x="171.068453" y="342.248593" style="stroke: #000000; stroke-width: 0.8"/>
       </g>
      </g>
     </g>
    </g>
    <g id="matplotlib.axis_6">
     <g id="ytick_8">
      <g id="line2d_19">
       <g>
        <use xlink:href="#m8ec7c5e0f9" x="64.885937" y="316.944743" style="stroke: #000000; stroke-width: 0.8"/>
       </g>
      </g>
      <g id="text_15">
       <!-- −0.1 -->
       <g transform="translate(33.603125 320.743962) scale(0.1 -0.1)">
        <use xlink:href="#DejaVuSans-2212"/>
        <use xlink:href="#DejaVuSans-30" x="83.789062"/>
        <use xlink:href="#DejaVuSans-2e" x="147.412109"/>
        <use xlink:href="#DejaVuSans-31" x="179.199219"/>
       </g>
      </g>
     </g>
     <g id="ytick_9">
      <g id="line2d_20">
       <g>
        <use xlink:href="#m8ec7c5e0f9" x="64.885937" y="286.237227" style="stroke: #000000; stroke-width: 0.8"/>
       </g>
      </g>
      <g id="text_16">
       <!-- 0.0 -->
       <g transform="translate(41.982812 290.036446) scale(0.1 -0.1)">
        <use xlink:href="#DejaVuSans-30"/>
        <use xlink:href="#DejaVuSans-2e" x="63.623047"/>
        <use xlink:href="#DejaVuSans-30" x="95.410156"/>
       </g>
      </g>
     </g>
     <g id="ytick_10">
      <g id="line2d_21">
       <g>
        <use xlink:href="#m8ec7c5e0f9" x="64.885937" y="255.529712" style="stroke: #000000; stroke-width: 0.8"/>
       </g>
      </g>
      <g id="text_17">
       <!-- 0.1 -->
       <g transform="translate(41.982812 259.32893) scale(0.1 -0.1)">
        <use xlink:href="#DejaVuSans-30"/>
        <use xlink:href="#DejaVuSans-2e" x="63.623047"/>
        <use xlink:href="#DejaVuSans-31" x="95.410156"/>
       </g>
      </g>
     </g>
     <g id="text_18">
      <!-- Shape function -->
      <g transform="translate(27.523437 326.748332) rotate(-90) scale(0.1 -0.1)">
       <use xlink:href="#DejaVuSans-53"/>
       <use xlink:href="#DejaVuSans-68" x="63.476562"/>
       <use xlink:href="#DejaVuSans-61" x="126.855469"/>
       <use xlink:href="#DejaVuSans-70" x="188.134766"/>
       <use xlink:href="#DejaVuSans-65" x="251.611328"/>
       <use xlink:href="#DejaVuSans-20" x="313.134766"/>
       <use xlink:href="#DejaVuSans-66" x="344.921875"/>
       <use xlink:href="#DejaVuSans-75" x="380.126953"/>
       <use xlink:href="#DejaVuSans-6e" x="443.505859"/>
       <use xlink:href="#DejaVuSans-63" x="506.884766"/>
       <use xlink:href="#DejaVuSans-74" x="561.865234"/>
       <use xlink:href="#DejaVuSans-69" x="601.074219"/>
       <use xlink:href="#DejaVuSans-6f" x="628.857422"/>
       <use xlink:href="#DejaVuSans-6e" x="690.039062"/>
      </g>
     </g>
    </g>
    <g id="line2d_22">
     <path d="M 71.502538 337.414834 
L 72.839225 336.23594 
L 74.175912 335.060871 
L 75.512599 333.889802 
L 76.849286 332.722929 
L 78.185973 331.56043 
L 79.52266 330.402502 
L 80.859347 329.249329 
L 82.196035 328.101106 
L 83.532722 326.958027 
L 84.869409 325.820274 
L 86.206096 324.688039 
L 87.542783 323.561511 
L 88.87947 322.440871 
L 90.216157 321.326303 
L 91.552844 320.217977 
L 92.889531 319.11608 
L 94.226218 318.020767 
L 95.562905 316.932203 
L 96.899592 315.850549 
L 98.236279 314.775951 
L 99.572966 313.708551 
L 100.909653 312.648481 
L 102.24634 311.595869 
L 103.583027 310.550839 
L 104.919714 309.513483 
L 106.256401 308.483906 
L 107.593088 307.4622 
L 108.929775 306.448436 
L 110.266462 305.442685 
L 111.603149 304.444997 
L 112.939836 303.455421 
L 114.276523 302.473986 
L 115.61321 301.500713 
L 116.949897 300.535618 
L 118.286584 299.578695 
L 119.623271 298.629931 
L 120.959958 297.689293 
L 122.296645 296.756768 
L 123.633332 295.832283 
L 124.970019 294.9158 
L 126.306706 294.007239 
L 127.643393 293.106534 
L 128.980081 292.21358 
L 130.316768 291.328305 
L 131.653455 290.450584 
L 132.990142 289.580308 
L 134.326829 288.717371 
L 135.663516 287.861619 
L 137.000203 287.01295 
L 138.33689 286.171181 
L 139.673577 285.336111 
L 141.010264 284.507355 
L 142.346951 283.68453 
L 143.683638 282.867205 
L 145.020325 282.05494 
L 146.357012 281.247224 
L 147.693699 280.443553 
L 149.030386 279.643378 
L 150.367073 278.846131 
L 151.70376 278.051182 
L 153.040447 277.257916 
L 154.377134 276.465648 
L 155.713821 275.6737 
L 157.050508 274.881367 
L 158.387195 274.087882 
L 159.723882 273.29253 
L 161.060569 272.494487 
L 162.397256 271.692976 
L 163.733943 270.887172 
L 165.07063 270.076271 
L 166.407317 269.259404 
L 167.744004 268.435746 
L 169.080691 267.604419 
L 170.417378 266.764572 
L 171.754065 265.915353 
L 173.090752 265.055885 
L 174.427439 264.185335 
L 175.764127 263.302823 
L 177.100814 262.407526 
L 178.437501 261.498622 
L 179.774188 260.575312 
L 181.110875 259.636766 
L 182.447562 258.682268 
L 183.784249 257.711032 
L 185.120936 256.722362 
L 186.457623 255.715563 
L 187.79431 254.690013 
L 189.130997 253.645052 
L 190.467684 252.580141 
L 191.804371 251.494739 
L 193.141058 250.388362 
L 194.477745 249.260552 
L 195.814432 248.110916 
L 197.151119 246.939133 
L 198.487806 245.744901 
L 199.824493 244.527991 
L 201.16118 243.288203 
L 202.497867 242.025444 
L 203.834554 240.739642 
" clip-path="url(#p76e31760b0)" style="fill: none; stroke: #1f77b4; stroke-width: 1.5; stroke-linecap: square"/>
    </g>
    <g id="patch_16">
     <path d="M 64.885937 342.248593 
L 64.885937 235.905882 
" style="fill: none; stroke: #000000; stroke-width: 0.8; stroke-linejoin: miter; stroke-linecap: square"/>
    </g>
    <g id="patch_17">
     <path d="M 210.451155 342.248593 
L 210.451155 235.905882 
" style="fill: none; stroke: #000000; stroke-width: 0.8; stroke-linejoin: miter; stroke-linecap: square"/>
    </g>
    <g id="patch_18">
     <path d="M 64.885937 342.248593 
L 210.451155 342.248593 
" style="fill: none; stroke: #000000; stroke-width: 0.8; stroke-linejoin: miter; stroke-linecap: square"/>
    </g>
    <g id="patch_19">
     <path d="M 64.885937 235.905882 
L 210.451155 235.905882 
" style="fill: none; stroke: #000000; stroke-width: 0.8; stroke-linejoin: miter; stroke-linecap: square"/>
    </g>
   </g>
   <g id="axes_4">
    <g id="patch_20">
     <path d="M 64.885937 382.658824 
L 210.451155 382.658824 
L 210.451155 361.390281 
L 64.885937 361.390281 
z
" style="fill: #ffffff"/>
    </g>
    <g id="patch_21">
     <path d="M 71.744421 382.658824 
L 71.744421 369.154987 
L 78.297551 369.154987 
L 78.297551 372.530946 
L 84.850682 372.530946 
L 84.850682 374.218926 
L 91.403812 374.218926 
L 91.403812 375.906905 
L 97.956942 375.906905 
L 97.956942 370.842967 
L 104.510073 370.842967 
L 104.510073 377.594885 
L 111.063203 377.594885 
L 111.063203 365.779028 
L 117.616333 365.779028 
L 117.616333 370.842967 
L 124.169463 370.842967 
L 124.169463 377.594885 
L 130.722594 377.594885 
L 130.722594 374.218926 
L 137.275724 374.218926 
L 137.275724 365.779028 
L 143.828854 365.779028 
L 143.828854 370.842967 
L 150.381985 370.842967 
L 150.381985 375.906905 
L 156.935115 375.906905 
L 156.935115 374.218926 
L 163.488245 374.218926 
L 163.488245 374.218926 
L 170.041375 374.218926 
L 170.041375 374.218926 
L 176.594506 374.218926 
L 176.594506 369.154987 
L 183.147636 369.154987 
L 183.147636 362.403069 
L 189.700766 362.403069 
L 189.700766 374.218926 
L 196.253896 374.218926 
L 196.253896 367.467008 
L 202.807027 367.467008 
L 202.807027 382.658824 
" clip-path="url(#paed10cc0f1)" style="fill: #1f77b4"/>
    </g>
    <g id="matplotlib.axis_7">
     <g id="xtick_11">
      <g id="line2d_23">
       <g>
        <use xlink:href="#me958d3e06c" x="104.52105" y="382.658824" style="stroke: #000000; stroke-width: 0.8"/>
       </g>
      </g>
      <g id="text_19">
       <!-- 0.2 -->
       <g transform="translate(96.569487 397.257261) scale(0.1 -0.1)">
        <use xlink:href="#DejaVuSans-30"/>
        <use xlink:href="#DejaVuSans-2e" x="63.623047"/>
        <use xlink:href="#DejaVuSans-32" x="95.410156"/>
       </g>
      </g>
     </g>
     <g id="xtick_12">
      <g id="line2d_24">
       <g>
        <use xlink:href="#me958d3e06c" x="171.068453" y="382.658824" style="stroke: #000000; stroke-width: 0.8"/>
       </g>
      </g>
      <g id="text_20">
       <!-- 0.4 -->
       <g transform="translate(163.11689 397.257261) scale(0.1 -0.1)">
        <use xlink:href="#DejaVuSans-30"/>
        <use xlink:href="#DejaVuSans-2e" x="63.623047"/>
        <use xlink:href="#DejaVuSans-34" x="95.410156"/>
       </g>
      </g>
     </g>
     <g id="text_21">
      <!-- initial_tumor_volume -->
      <g transform="translate(85.281827 410.935386) scale(0.1 -0.1)">
       <defs>
        <path id="DejaVuSans-6c" d="M 603 4863 
L 1178 4863 
L 1178 0 
L 603 0 
L 603 4863 
z
" transform="scale(0.015625)"/>
        <path id="DejaVuSans-5f" d="M 3263 -1063 
L 3263 -1509 
L -63 -1509 
L -63 -1063 
L 3263 -1063 
z
" transform="scale(0.015625)"/>
        <path id="DejaVuSans-6d" d="M 3328 2828 
Q 3544 3216 3844 3400 
Q 4144 3584 4550 3584 
Q 5097 3584 5394 3201 
Q 5691 2819 5691 2113 
L 5691 0 
L 5113 0 
L 5113 2094 
Q 5113 2597 4934 2840 
Q 4756 3084 4391 3084 
Q 3944 3084 3684 2787 
Q 3425 2491 3425 1978 
L 3425 0 
L 2847 0 
L 2847 2094 
Q 2847 2600 2669 2842 
Q 2491 3084 2119 3084 
Q 1678 3084 1418 2786 
Q 1159 2488 1159 1978 
L 1159 0 
L 581 0 
L 581 3500 
L 1159 3500 
L 1159 2956 
Q 1356 3278 1631 3431 
Q 1906 3584 2284 3584 
Q 2666 3584 2933 3390 
Q 3200 3197 3328 2828 
z
" transform="scale(0.015625)"/>
        <path id="DejaVuSans-76" d="M 191 3500 
L 800 3500 
L 1894 563 
L 2988 3500 
L 3597 3500 
L 2284 0 
L 1503 0 
L 191 3500 
z
" transform="scale(0.015625)"/>
       </defs>
       <use xlink:href="#DejaVuSans-69"/>
       <use xlink:href="#DejaVuSans-6e" x="27.783203"/>
       <use xlink:href="#DejaVuSans-69" x="91.162109"/>
       <use xlink:href="#DejaVuSans-74" x="118.945312"/>
       <use xlink:href="#DejaVuSans-69" x="158.154297"/>
       <use xlink:href="#DejaVuSans-61" x="185.9375"/>
       <use xlink:href="#DejaVuSans-6c" x="247.216797"/>
       <use xlink:href="#DejaVuSans-5f" x="275"/>
       <use xlink:href="#DejaVuSans-74" x="325"/>
       <use xlink:href="#DejaVuSans-75" x="364.208984"/>
       <use xlink:href="#DejaVuSans-6d" x="427.587891"/>
       <use xlink:href="#DejaVuSans-6f" x="525"/>
       <use xlink:href="#DejaVuSans-72" x="586.181641"/>
       <use xlink:href="#DejaVuSans-5f" x="627.294922"/>
       <use xlink:href="#DejaVuSans-76" x="677.294922"/>
       <use xlink:href="#DejaVuSans-6f" x="736.474609"/>
       <use xlink:href="#DejaVuSans-6c" x="797.65625"/>
       <use xlink:href="#DejaVuSans-75" x="825.439453"/>
       <use xlink:href="#DejaVuSans-6d" x="888.818359"/>
       <use xlink:href="#DejaVuSans-65" x="986.230469"/>
      </g>
     </g>
    </g>
    <g id="matplotlib.axis_8">
     <g id="ytick_11">
      <g id="line2d_25">
       <g>
        <use xlink:href="#m8ec7c5e0f9" x="64.885937" y="382.658824" style="stroke: #000000; stroke-width: 0.8"/>
       </g>
      </g>
      <g id="text_22">
       <!-- 0 -->
       <g transform="translate(51.523438 386.458042) scale(0.1 -0.1)">
        <use xlink:href="#DejaVuSans-30"/>
       </g>
      </g>
     </g>
     <g id="ytick_12">
      <g id="line2d_26">
       <g>
        <use xlink:href="#m8ec7c5e0f9" x="64.885937" y="365.779028" style="stroke: #000000; stroke-width: 0.8"/>
       </g>
      </g>
      <g id="text_23">
       <!-- 10 -->
       <g transform="translate(45.160937 369.578247) scale(0.1 -0.1)">
        <use xlink:href="#DejaVuSans-31"/>
        <use xlink:href="#DejaVuSans-30" x="63.623047"/>
       </g>
      </g>
     </g>
     <g id="text_24">
      <!-- Frequency -->
      <g transform="translate(39.08125 397.85424) rotate(-90) scale(0.1 -0.1)">
       <use xlink:href="#DejaVuSans-46"/>
       <use xlink:href="#DejaVuSans-72" x="50.269531"/>
       <use xlink:href="#DejaVuSans-65" x="89.132812"/>
       <use xlink:href="#DejaVuSans-71" x="150.65625"/>
       <use xlink:href="#DejaVuSans-75" x="214.132812"/>
       <use xlink:href="#DejaVuSans-65" x="277.511719"/>
       <use xlink:href="#DejaVuSans-6e" x="339.035156"/>
       <use xlink:href="#DejaVuSans-63" x="402.414062"/>
       <use xlink:href="#DejaVuSans-79" x="457.394531"/>
      </g>
     </g>
    </g>
    <g id="patch_22">
     <path d="M 64.885937 382.658824 
L 64.885937 361.390281 
" style="fill: none; stroke: #000000; stroke-width: 0.8; stroke-linejoin: miter; stroke-linecap: square"/>
    </g>
    <g id="patch_23">
     <path d="M 210.451155 382.658824 
L 210.451155 361.390281 
" style="fill: none; stroke: #000000; stroke-width: 0.8; stroke-linejoin: miter; stroke-linecap: square"/>
    </g>
    <g id="patch_24">
     <path d="M 64.885937 382.658824 
L 210.451155 382.658824 
" style="fill: none; stroke: #000000; stroke-width: 0.8; stroke-linejoin: miter; stroke-linecap: square"/>
    </g>
    <g id="patch_25">
     <path d="M 64.885937 361.390281 
L 210.451155 361.390281 
" style="fill: none; stroke: #000000; stroke-width: 0.8; stroke-linejoin: miter; stroke-linecap: square"/>
    </g>
   </g>
  </g>
  <g id="subfigure_3">
   <g id="patch_26">
    <path d="M 41.407677 632.329412 
L 229.233764 632.329412 
L 229.233764 441.741176 
L 41.407677 441.741176 
L 41.407677 632.329412 
z
" style="fill: none"/>
   </g>
   <g id="axes_5">
    <g id="patch_27">
     <path d="M 64.885937 570.954476 
L 210.451155 570.954476 
L 210.451155 464.611765 
L 64.885937 464.611765 
z
" style="fill: #ffffff"/>
    </g>
    <g id="matplotlib.axis_9"/>
    <g id="matplotlib.axis_10">
     <g id="ytick_13">
      <g id="line2d_27">
       <g>
        <use xlink:href="#m8ec7c5e0f9" x="64.885937" y="570.618251" style="stroke: #000000; stroke-width: 0.8"/>
       </g>
      </g>
      <g id="text_25">
       <!-- 0.200 -->
       <g transform="translate(29.257812 574.41747) scale(0.1 -0.1)">
        <use xlink:href="#DejaVuSans-30"/>
        <use xlink:href="#DejaVuSans-2e" x="63.623047"/>
        <use xlink:href="#DejaVuSans-32" x="95.410156"/>
        <use xlink:href="#DejaVuSans-30" x="159.033203"/>
        <use xlink:href="#DejaVuSans-30" x="222.65625"/>
       </g>
      </g>
     </g>
     <g id="ytick_14">
      <g id="line2d_28">
       <g>
        <use xlink:href="#m8ec7c5e0f9" x="64.885937" y="547.770331" style="stroke: #000000; stroke-width: 0.8"/>
       </g>
      </g>
      <g id="text_26">
       <!-- 0.205 -->
       <g transform="translate(29.257812 551.56955) scale(0.1 -0.1)">
        <use xlink:href="#DejaVuSans-30"/>
        <use xlink:href="#DejaVuSans-2e" x="63.623047"/>
        <use xlink:href="#DejaVuSans-32" x="95.410156"/>
        <use xlink:href="#DejaVuSans-30" x="159.033203"/>
        <use xlink:href="#DejaVuSans-35" x="222.65625"/>
       </g>
      </g>
     </g>
     <g id="ytick_15">
      <g id="line2d_29">
       <g>
        <use xlink:href="#m8ec7c5e0f9" x="64.885937" y="524.922411" style="stroke: #000000; stroke-width: 0.8"/>
       </g>
      </g>
      <g id="text_27">
       <!-- 0.210 -->
       <g transform="translate(29.257812 528.72163) scale(0.1 -0.1)">
        <use xlink:href="#DejaVuSans-30"/>
        <use xlink:href="#DejaVuSans-2e" x="63.623047"/>
        <use xlink:href="#DejaVuSans-32" x="95.410156"/>
        <use xlink:href="#DejaVuSans-31" x="159.033203"/>
        <use xlink:href="#DejaVuSans-30" x="222.65625"/>
       </g>
      </g>
     </g>
     <g id="ytick_16">
      <g id="line2d_30">
       <g>
        <use xlink:href="#m8ec7c5e0f9" x="64.885937" y="502.074492" style="stroke: #000000; stroke-width: 0.8"/>
       </g>
      </g>
      <g id="text_28">
       <!-- 0.215 -->
       <g transform="translate(29.257812 505.873711) scale(0.1 -0.1)">
        <use xlink:href="#DejaVuSans-30"/>
        <use xlink:href="#DejaVuSans-2e" x="63.623047"/>
        <use xlink:href="#DejaVuSans-32" x="95.410156"/>
        <use xlink:href="#DejaVuSans-31" x="159.033203"/>
        <use xlink:href="#DejaVuSans-35" x="222.65625"/>
       </g>
      </g>
     </g>
     <g id="ytick_17">
      <g id="line2d_31">
       <g>
        <use xlink:href="#m8ec7c5e0f9" x="64.885937" y="479.226572" style="stroke: #000000; stroke-width: 0.8"/>
       </g>
      </g>
      <g id="text_29">
       <!-- 0.220 -->
       <g transform="translate(29.257812 483.025791) scale(0.1 -0.1)">
        <use xlink:href="#DejaVuSans-30"/>
        <use xlink:href="#DejaVuSans-2e" x="63.623047"/>
        <use xlink:href="#DejaVuSans-32" x="95.410156"/>
        <use xlink:href="#DejaVuSans-32" x="159.033203"/>
        <use xlink:href="#DejaVuSans-30" x="222.65625"/>
       </g>
      </g>
     </g>
     <g id="text_30">
      <!-- Bias -->
      <g transform="translate(23.178125 528.271401) rotate(-90) scale(0.1 -0.1)">
       <defs>
        <path id="DejaVuSans-42" d="M 1259 2228 
L 1259 519 
L 2272 519 
Q 2781 519 3026 730 
Q 3272 941 3272 1375 
Q 3272 1813 3026 2020 
Q 2781 2228 2272 2228 
L 1259 2228 
z
M 1259 4147 
L 1259 2741 
L 2194 2741 
Q 2656 2741 2882 2914 
Q 3109 3088 3109 3444 
Q 3109 3797 2882 3972 
Q 2656 4147 2194 4147 
L 1259 4147 
z
M 628 4666 
L 2241 4666 
Q 2963 4666 3353 4366 
Q 3744 4066 3744 3513 
Q 3744 3084 3544 2831 
Q 3344 2578 2956 2516 
Q 3422 2416 3680 2098 
Q 3938 1781 3938 1306 
Q 3938 681 3513 340 
Q 3088 0 2303 0 
L 628 0 
L 628 4666 
z
" transform="scale(0.015625)"/>
        <path id="DejaVuSans-73" d="M 2834 3397 
L 2834 2853 
Q 2591 2978 2328 3040 
Q 2066 3103 1784 3103 
Q 1356 3103 1142 2972 
Q 928 2841 928 2578 
Q 928 2378 1081 2264 
Q 1234 2150 1697 2047 
L 1894 2003 
Q 2506 1872 2764 1633 
Q 3022 1394 3022 966 
Q 3022 478 2636 193 
Q 2250 -91 1575 -91 
Q 1294 -91 989 -36 
Q 684 19 347 128 
L 347 722 
Q 666 556 975 473 
Q 1284 391 1588 391 
Q 1994 391 2212 530 
Q 2431 669 2431 922 
Q 2431 1156 2273 1281 
Q 2116 1406 1581 1522 
L 1381 1569 
Q 847 1681 609 1914 
Q 372 2147 372 2553 
Q 372 3047 722 3315 
Q 1072 3584 1716 3584 
Q 2034 3584 2315 3537 
Q 2597 3491 2834 3397 
z
" transform="scale(0.015625)"/>
       </defs>
       <use xlink:href="#DejaVuSans-42"/>
       <use xlink:href="#DejaVuSans-69" x="68.603516"/>
       <use xlink:href="#DejaVuSans-61" x="96.386719"/>
       <use xlink:href="#DejaVuSans-73" x="157.666016"/>
      </g>
     </g>
    </g>
    <g id="line2d_32">
     <path d="M 71.502538 517.78312 
L 72.839225 517.78312 
L 74.175912 517.78312 
L 75.512599 517.78312 
L 76.849286 517.78312 
L 78.185973 517.78312 
L 79.52266 517.78312 
L 80.859347 517.78312 
L 82.196035 517.78312 
L 83.532722 517.78312 
L 84.869409 517.78312 
L 86.206096 517.78312 
L 87.542783 517.78312 
L 88.87947 517.78312 
L 90.216157 517.78312 
L 91.552844 517.78312 
L 92.889531 517.78312 
L 94.226218 517.78312 
L 95.562905 517.78312 
L 96.899592 517.78312 
L 98.236279 517.78312 
L 99.572966 517.78312 
L 100.909653 517.78312 
L 102.24634 517.78312 
L 103.583027 517.78312 
L 104.919714 517.78312 
L 106.256401 517.78312 
L 107.593088 517.78312 
L 108.929775 517.78312 
L 110.266462 517.78312 
L 111.603149 517.78312 
L 112.939836 517.78312 
L 114.276523 517.78312 
L 115.61321 517.78312 
L 116.949897 517.78312 
L 118.286584 517.78312 
L 119.623271 517.78312 
L 120.959958 517.78312 
L 122.296645 517.78312 
L 123.633332 517.78312 
L 124.970019 517.78312 
L 126.306706 517.78312 
L 127.643393 517.78312 
L 128.980081 517.78312 
L 130.316768 517.78312 
L 131.653455 517.78312 
L 132.990142 517.78312 
L 134.326829 517.78312 
L 135.663516 517.78312 
L 137.000203 517.78312 
L 138.33689 517.78312 
L 139.673577 517.78312 
L 141.010264 517.78312 
L 142.346951 517.78312 
L 143.683638 517.78312 
L 145.020325 517.78312 
L 146.357012 517.78312 
L 147.693699 517.78312 
L 149.030386 517.78312 
L 150.367073 517.78312 
L 151.70376 517.78312 
L 153.040447 517.78312 
L 154.377134 517.78312 
L 155.713821 517.78312 
L 157.050508 517.78312 
L 158.387195 517.78312 
L 159.723882 517.78312 
L 161.060569 517.78312 
L 162.397256 517.78312 
L 163.733943 517.78312 
L 165.07063 517.78312 
L 166.407317 517.78312 
L 167.744004 517.78312 
L 169.080691 517.78312 
L 170.417378 517.78312 
L 171.754065 517.78312 
L 173.090752 517.78312 
L 174.427439 517.78312 
L 175.764127 517.78312 
L 177.100814 517.78312 
L 178.437501 517.78312 
L 179.774188 517.78312 
L 181.110875 517.78312 
L 182.447562 517.78312 
L 183.784249 517.78312 
L 185.120936 517.78312 
L 186.457623 517.78312 
L 187.79431 517.78312 
L 189.130997 517.78312 
L 190.467684 517.78312 
L 191.804371 517.78312 
L 193.141058 517.78312 
L 194.477745 517.78312 
L 195.814432 517.78312 
L 197.151119 517.78312 
L 198.487806 517.78312 
L 199.824493 517.78312 
L 201.16118 517.78312 
L 202.497867 517.78312 
L 203.834554 517.78312 
" clip-path="url(#p823841ed92)" style="fill: none; stroke: #1f77b4; stroke-width: 1.5; stroke-linecap: square"/>
    </g>
    <g id="patch_28">
     <path d="M 64.885937 570.954476 
L 64.885937 464.611765 
" style="fill: none; stroke: #000000; stroke-width: 0.8; stroke-linejoin: miter; stroke-linecap: square"/>
    </g>
    <g id="patch_29">
     <path d="M 210.451155 570.954476 
L 210.451155 464.611765 
" style="fill: none; stroke: #000000; stroke-width: 0.8; stroke-linejoin: miter; stroke-linecap: square"/>
    </g>
    <g id="patch_30">
     <path d="M 64.885937 570.954476 
L 210.451155 570.954476 
" style="fill: none; stroke: #000000; stroke-width: 0.8; stroke-linejoin: miter; stroke-linecap: square"/>
    </g>
    <g id="patch_31">
     <path d="M 64.885937 464.611765 
L 210.451155 464.611765 
" style="fill: none; stroke: #000000; stroke-width: 0.8; stroke-linejoin: miter; stroke-linecap: square"/>
    </g>
   </g>
   <g id="axes_6">
    <g id="patch_32">
     <path d="M 64.885937 611.364706 
L 210.451155 611.364706 
L 210.451155 590.096164 
L 64.885937 590.096164 
z
" style="fill: #ffffff"/>
    </g>
    <g id="matplotlib.axis_11"/>
    <g id="matplotlib.axis_12"/>
    <g id="patch_33">
     <path d="M 64.885937 611.364706 
L 64.885937 590.096164 
" style="fill: none; stroke: #000000; stroke-width: 0.8; stroke-linejoin: miter; stroke-linecap: square"/>
    </g>
    <g id="patch_34">
     <path d="M 210.451155 611.364706 
L 210.451155 590.096164 
" style="fill: none; stroke: #000000; stroke-width: 0.8; stroke-linejoin: miter; stroke-linecap: square"/>
    </g>
    <g id="patch_35">
     <path d="M 64.885937 611.364706 
L 210.451155 611.364706 
" style="fill: none; stroke: #000000; stroke-width: 0.8; stroke-linejoin: miter; stroke-linecap: square"/>
    </g>
    <g id="patch_36">
     <path d="M 64.885937 590.096164 
L 210.451155 590.096164 
" style="fill: none; stroke: #000000; stroke-width: 0.8; stroke-linejoin: miter; stroke-linecap: square"/>
    </g>
   </g>
  </g>
  <g id="subfigure_4">
   <g id="patch_37">
    <path d="M 285.58159 174.917647 
L 473.407677 174.917647 
L 473.407677 -1 
M 285.58159 -1 
L 285.58159 174.917647 
" style="fill: none"/>
   </g>
   <g id="axes_7">
    <g id="patch_38">
     <path d="M 309.059851 113.542711 
L 454.625068 113.542711 
L 454.625068 7.2 
L 309.059851 7.2 
z
" style="fill: #ffffff"/>
    </g>
    <g id="matplotlib.axis_13">
     <g id="xtick_13">
      <g id="line2d_33">
       <g>
        <use xlink:href="#me958d3e06c" x="315.651291" y="113.542711" style="stroke: #000000; stroke-width: 0.8"/>
       </g>
      </g>
     </g>
     <g id="xtick_14">
      <g id="line2d_34">
       <g>
        <use xlink:href="#me958d3e06c" x="359.79236" y="113.542711" style="stroke: #000000; stroke-width: 0.8"/>
       </g>
      </g>
     </g>
     <g id="xtick_15">
      <g id="line2d_35">
       <g>
        <use xlink:href="#me958d3e06c" x="403.93343" y="113.542711" style="stroke: #000000; stroke-width: 0.8"/>
       </g>
      </g>
     </g>
     <g id="xtick_16">
      <g id="line2d_36">
       <g>
        <use xlink:href="#me958d3e06c" x="448.0745" y="113.542711" style="stroke: #000000; stroke-width: 0.8"/>
       </g>
      </g>
     </g>
    </g>
    <g id="matplotlib.axis_14">
     <g id="ytick_18">
      <g id="line2d_37">
       <g>
        <use xlink:href="#m8ec7c5e0f9" x="309.059851" y="108.708951" style="stroke: #000000; stroke-width: 0.8"/>
       </g>
      </g>
      <g id="text_31">
       <!-- −0.050 -->
       <g transform="translate(265.052038 112.50817) scale(0.1 -0.1)">
        <use xlink:href="#DejaVuSans-2212"/>
        <use xlink:href="#DejaVuSans-30" x="83.789062"/>
        <use xlink:href="#DejaVuSans-2e" x="147.412109"/>
        <use xlink:href="#DejaVuSans-30" x="179.199219"/>
        <use xlink:href="#DejaVuSans-35" x="242.822266"/>
        <use xlink:href="#DejaVuSans-30" x="306.445312"/>
       </g>
      </g>
     </g>
     <g id="ytick_19">
      <g id="line2d_38">
       <g>
        <use xlink:href="#m8ec7c5e0f9" x="309.059851" y="84.540153" style="stroke: #000000; stroke-width: 0.8"/>
       </g>
      </g>
      <g id="text_32">
       <!-- −0.025 -->
       <g transform="translate(265.052038 88.339372) scale(0.1 -0.1)">
        <use xlink:href="#DejaVuSans-2212"/>
        <use xlink:href="#DejaVuSans-30" x="83.789062"/>
        <use xlink:href="#DejaVuSans-2e" x="147.412109"/>
        <use xlink:href="#DejaVuSans-30" x="179.199219"/>
        <use xlink:href="#DejaVuSans-32" x="242.822266"/>
        <use xlink:href="#DejaVuSans-35" x="306.445312"/>
       </g>
      </g>
     </g>
     <g id="ytick_20">
      <g id="line2d_39">
       <g>
        <use xlink:href="#m8ec7c5e0f9" x="309.059851" y="60.371355" style="stroke: #000000; stroke-width: 0.8"/>
       </g>
      </g>
      <g id="text_33">
       <!-- 0.000 -->
       <g transform="translate(273.431726 64.170574) scale(0.1 -0.1)">
        <use xlink:href="#DejaVuSans-30"/>
        <use xlink:href="#DejaVuSans-2e" x="63.623047"/>
        <use xlink:href="#DejaVuSans-30" x="95.410156"/>
        <use xlink:href="#DejaVuSans-30" x="159.033203"/>
        <use xlink:href="#DejaVuSans-30" x="222.65625"/>
       </g>
      </g>
     </g>
     <g id="ytick_21">
      <g id="line2d_40">
       <g>
        <use xlink:href="#m8ec7c5e0f9" x="309.059851" y="36.202558" style="stroke: #000000; stroke-width: 0.8"/>
       </g>
      </g>
      <g id="text_34">
       <!-- 0.025 -->
       <g transform="translate(273.431726 40.001776) scale(0.1 -0.1)">
        <use xlink:href="#DejaVuSans-30"/>
        <use xlink:href="#DejaVuSans-2e" x="63.623047"/>
        <use xlink:href="#DejaVuSans-30" x="95.410156"/>
        <use xlink:href="#DejaVuSans-32" x="159.033203"/>
        <use xlink:href="#DejaVuSans-35" x="222.65625"/>
       </g>
      </g>
     </g>
     <g id="ytick_22">
      <g id="line2d_41">
       <g>
        <use xlink:href="#m8ec7c5e0f9" x="309.059851" y="12.03376" style="stroke: #000000; stroke-width: 0.8"/>
       </g>
      </g>
      <g id="text_35">
       <!-- 0.050 -->
       <g transform="translate(273.431726 15.832978) scale(0.1 -0.1)">
        <use xlink:href="#DejaVuSans-30"/>
        <use xlink:href="#DejaVuSans-2e" x="63.623047"/>
        <use xlink:href="#DejaVuSans-30" x="95.410156"/>
        <use xlink:href="#DejaVuSans-35" x="159.033203"/>
        <use xlink:href="#DejaVuSans-30" x="222.65625"/>
       </g>
      </g>
     </g>
     <g id="text_36">
      <!-- Shape function -->
      <g transform="translate(258.972351 98.042449) rotate(-90) scale(0.1 -0.1)">
       <use xlink:href="#DejaVuSans-53"/>
       <use xlink:href="#DejaVuSans-68" x="63.476562"/>
       <use xlink:href="#DejaVuSans-61" x="126.855469"/>
       <use xlink:href="#DejaVuSans-70" x="188.134766"/>
       <use xlink:href="#DejaVuSans-65" x="251.611328"/>
       <use xlink:href="#DejaVuSans-20" x="313.134766"/>
       <use xlink:href="#DejaVuSans-66" x="344.921875"/>
       <use xlink:href="#DejaVuSans-75" x="380.126953"/>
       <use xlink:href="#DejaVuSans-6e" x="443.505859"/>
       <use xlink:href="#DejaVuSans-63" x="506.884766"/>
       <use xlink:href="#DejaVuSans-74" x="561.865234"/>
       <use xlink:href="#DejaVuSans-69" x="601.074219"/>
       <use xlink:href="#DejaVuSans-6f" x="628.857422"/>
       <use xlink:href="#DejaVuSans-6e" x="690.039062"/>
      </g>
     </g>
    </g>
    <g id="line2d_42">
     <path d="M 315.676451 60.371355 
L 317.013138 60.371355 
L 318.349825 60.371355 
L 319.686512 60.371355 
L 321.023199 60.371355 
L 322.359886 60.371355 
L 323.696574 60.371355 
L 325.033261 60.371355 
L 326.369948 60.371355 
L 327.706635 60.371355 
L 329.043322 60.371355 
L 330.380009 60.371355 
L 331.716696 60.371355 
L 333.053383 60.371355 
L 334.39007 60.371355 
L 335.726757 60.371355 
L 337.063444 60.371355 
L 338.400131 60.371355 
L 339.736818 60.371355 
L 341.073505 60.371355 
L 342.410192 60.371355 
L 343.746879 60.371355 
L 345.083566 60.371355 
L 346.420253 60.371355 
L 347.75694 60.371355 
L 349.093627 60.371355 
L 350.430314 60.371355 
L 351.767001 60.371355 
L 353.103688 60.371355 
L 354.440375 60.371355 
L 355.777062 60.371355 
L 357.113749 60.371355 
L 358.450436 60.371355 
L 359.787123 60.371355 
L 361.12381 60.371355 
L 362.460497 60.371355 
L 363.797184 60.371355 
L 365.133871 60.371355 
L 366.470558 60.371355 
L 367.807245 60.371355 
L 369.143932 60.371355 
L 370.480619 60.371355 
L 371.817307 60.371355 
L 373.153994 60.371355 
L 374.490681 60.371355 
L 375.827368 60.371355 
L 377.164055 60.371355 
L 378.500742 60.371355 
L 379.837429 60.371355 
L 381.174116 60.371355 
L 382.510803 60.371355 
L 383.84749 60.371355 
L 385.184177 60.371355 
L 386.520864 60.371355 
L 387.857551 60.371355 
L 389.194238 60.371355 
L 390.530925 60.371355 
L 391.867612 60.371355 
L 393.204299 60.371355 
L 394.540986 60.371355 
L 395.877673 60.371355 
L 397.21436 60.371355 
L 398.551047 60.371355 
L 399.887734 60.371355 
L 401.224421 60.371355 
L 402.561108 60.371355 
L 403.897795 60.371355 
L 405.234482 60.371355 
L 406.571169 60.371355 
L 407.907856 60.371355 
L 409.244543 60.371355 
L 410.58123 60.371355 
L 411.917917 60.371355 
L 413.254604 60.371355 
L 414.591291 60.371355 
L 415.927978 60.371355 
L 417.264665 60.371355 
L 418.601353 60.371355 
L 419.93804 60.371355 
L 421.274727 60.371355 
L 422.611414 60.371355 
L 423.948101 60.371355 
L 425.284788 60.371355 
L 426.621475 60.371355 
L 427.958162 60.371355 
L 429.294849 60.371355 
L 430.631536 60.371355 
L 431.968223 60.371355 
L 433.30491 60.371355 
L 434.641597 60.371355 
L 435.978284 60.371355 
L 437.314971 60.371355 
L 438.651658 60.371355 
L 439.988345 60.371355 
L 441.325032 60.371355 
L 442.661719 60.371355 
L 443.998406 60.371355 
L 445.335093 60.371355 
L 446.67178 60.371355 
L 448.008467 60.371355 
" clip-path="url(#p8572564729)" style="fill: none; stroke: #1f77b4; stroke-width: 1.5; stroke-linecap: square"/>
    </g>
    <g id="patch_39">
     <path d="M 309.059851 113.542711 
L 309.059851 7.2 
" style="fill: none; stroke: #000000; stroke-width: 0.8; stroke-linejoin: miter; stroke-linecap: square"/>
    </g>
    <g id="patch_40">
     <path d="M 454.625068 113.542711 
L 454.625068 7.2 
" style="fill: none; stroke: #000000; stroke-width: 0.8; stroke-linejoin: miter; stroke-linecap: square"/>
    </g>
    <g id="patch_41">
     <path d="M 309.059851 113.542711 
L 454.625068 113.542711 
" style="fill: none; stroke: #000000; stroke-width: 0.8; stroke-linejoin: miter; stroke-linecap: square"/>
    </g>
    <g id="patch_42">
     <path d="M 309.059851 7.2 
L 454.625068 7.2 
" style="fill: none; stroke: #000000; stroke-width: 0.8; stroke-linejoin: miter; stroke-linecap: square"/>
    </g>
   </g>
   <g id="axes_8">
    <g id="patch_43">
     <path d="M 309.059851 153.952941 
L 454.625068 153.952941 
L 454.625068 132.684399 
L 309.059851 132.684399 
z
" style="fill: #ffffff"/>
    </g>
    <g id="patch_44">
     <path d="M 316.525088 153.952941 
L 316.525088 142.137084 
L 323.071438 142.137084 
L 323.071438 147.201023 
L 329.617788 147.201023 
L 329.617788 140.449105 
L 336.164138 140.449105 
L 336.164138 150.576982 
L 342.710488 150.576982 
L 342.710488 142.137084 
L 349.256837 142.137084 
L 349.256837 133.697187 
L 355.803187 133.697187 
L 355.803187 145.513043 
L 362.349537 145.513043 
L 362.349537 140.449105 
L 368.895887 140.449105 
L 368.895887 138.761125 
L 375.442237 138.761125 
L 375.442237 148.889003 
L 381.988586 148.889003 
L 381.988586 145.513043 
L 388.534936 145.513043 
L 388.534936 140.449105 
L 395.081286 140.449105 
L 395.081286 148.889003 
L 401.627636 148.889003 
L 401.627636 140.449105 
L 408.173986 140.449105 
L 408.173986 137.073146 
L 414.720336 137.073146 
L 414.720336 142.137084 
L 421.266685 142.137084 
L 421.266685 138.761125 
L 427.813035 138.761125 
L 427.813035 147.201023 
L 434.359385 147.201023 
L 434.359385 145.513043 
L 440.905735 145.513043 
L 440.905735 147.201023 
L 447.452085 147.201023 
L 447.452085 153.952941 
" clip-path="url(#p2952ea33b3)" style="fill: #1f77b4"/>
    </g>
    <g id="matplotlib.axis_15">
     <g id="xtick_17">
      <g id="line2d_43">
       <g>
        <use xlink:href="#me958d3e06c" x="315.651291" y="153.952941" style="stroke: #000000; stroke-width: 0.8"/>
       </g>
      </g>
      <g id="text_37">
       <!-- 40 -->
       <g transform="translate(309.288791 168.551379) scale(0.1 -0.1)">
        <use xlink:href="#DejaVuSans-34"/>
        <use xlink:href="#DejaVuSans-30" x="63.623047"/>
       </g>
      </g>
     </g>
     <g id="xtick_18">
      <g id="line2d_44">
       <g>
        <use xlink:href="#me958d3e06c" x="359.79236" y="153.952941" style="stroke: #000000; stroke-width: 0.8"/>
       </g>
      </g>
      <g id="text_38">
       <!-- 60 -->
       <g transform="translate(353.42986 168.551379) scale(0.1 -0.1)">
        <use xlink:href="#DejaVuSans-36"/>
        <use xlink:href="#DejaVuSans-30" x="63.623047"/>
       </g>
      </g>
     </g>
     <g id="xtick_19">
      <g id="line2d_45">
       <g>
        <use xlink:href="#me958d3e06c" x="403.93343" y="153.952941" style="stroke: #000000; stroke-width: 0.8"/>
       </g>
      </g>
      <g id="text_39">
       <!-- 80 -->
       <g transform="translate(397.57093 168.551379) scale(0.1 -0.1)">
        <use xlink:href="#DejaVuSans-38"/>
        <use xlink:href="#DejaVuSans-30" x="63.623047"/>
       </g>
      </g>
     </g>
     <g id="xtick_20">
      <g id="line2d_46">
       <g>
        <use xlink:href="#me958d3e06c" x="448.0745" y="153.952941" style="stroke: #000000; stroke-width: 0.8"/>
       </g>
      </g>
      <g id="text_40">
       <!-- 100 -->
       <g transform="translate(438.53075 168.551379) scale(0.1 -0.1)">
        <use xlink:href="#DejaVuSans-31"/>
        <use xlink:href="#DejaVuSans-30" x="63.623047"/>
        <use xlink:href="#DejaVuSans-30" x="127.246094"/>
       </g>
      </g>
     </g>
     <g id="text_41">
      <!-- weight -->
      <g transform="translate(364.984647 182.229504) scale(0.1 -0.1)">
       <defs>
        <path id="DejaVuSans-77" d="M 269 3500 
L 844 3500 
L 1563 769 
L 2278 3500 
L 2956 3500 
L 3675 769 
L 4391 3500 
L 4966 3500 
L 4050 0 
L 3372 0 
L 2619 2869 
L 1863 0 
L 1184 0 
L 269 3500 
z
" transform="scale(0.015625)"/>
       </defs>
       <use xlink:href="#DejaVuSans-77"/>
       <use xlink:href="#DejaVuSans-65" x="81.787109"/>
       <use xlink:href="#DejaVuSans-69" x="143.310547"/>
       <use xlink:href="#DejaVuSans-67" x="171.09375"/>
       <use xlink:href="#DejaVuSans-68" x="234.570312"/>
       <use xlink:href="#DejaVuSans-74" x="297.949219"/>
      </g>
     </g>
    </g>
    <g id="matplotlib.axis_16">
     <g id="ytick_23">
      <g id="line2d_47">
       <g>
        <use xlink:href="#m8ec7c5e0f9" x="309.059851" y="153.952941" style="stroke: #000000; stroke-width: 0.8"/>
       </g>
      </g>
      <g id="text_42">
       <!-- 0 -->
       <g transform="translate(295.697351 157.75216) scale(0.1 -0.1)">
        <use xlink:href="#DejaVuSans-30"/>
       </g>
      </g>
     </g>
     <g id="ytick_24">
      <g id="line2d_48">
       <g>
        <use xlink:href="#m8ec7c5e0f9" x="309.059851" y="137.073146" style="stroke: #000000; stroke-width: 0.8"/>
       </g>
      </g>
      <g id="text_43">
       <!-- 10 -->
       <g transform="translate(289.334851 140.872365) scale(0.1 -0.1)">
        <use xlink:href="#DejaVuSans-31"/>
        <use xlink:href="#DejaVuSans-30" x="63.623047"/>
       </g>
      </g>
     </g>
     <g id="text_44">
      <!-- Frequency -->
      <g transform="translate(283.255163 169.148358) rotate(-90) scale(0.1 -0.1)">
       <use xlink:href="#DejaVuSans-46"/>
       <use xlink:href="#DejaVuSans-72" x="50.269531"/>
       <use xlink:href="#DejaVuSans-65" x="89.132812"/>
       <use xlink:href="#DejaVuSans-71" x="150.65625"/>
       <use xlink:href="#DejaVuSans-75" x="214.132812"/>
       <use xlink:href="#DejaVuSans-65" x="277.511719"/>
       <use xlink:href="#DejaVuSans-6e" x="339.035156"/>
       <use xlink:href="#DejaVuSans-63" x="402.414062"/>
       <use xlink:href="#DejaVuSans-79" x="457.394531"/>
      </g>
     </g>
    </g>
    <g id="patch_45">
     <path d="M 309.059851 153.952941 
L 309.059851 132.684399 
" style="fill: none; stroke: #000000; stroke-width: 0.8; stroke-linejoin: miter; stroke-linecap: square"/>
    </g>
    <g id="patch_46">
     <path d="M 454.625068 153.952941 
L 454.625068 132.684399 
" style="fill: none; stroke: #000000; stroke-width: 0.8; stroke-linejoin: miter; stroke-linecap: square"/>
    </g>
    <g id="patch_47">
     <path d="M 309.059851 153.952941 
L 454.625068 153.952941 
" style="fill: none; stroke: #000000; stroke-width: 0.8; stroke-linejoin: miter; stroke-linecap: square"/>
    </g>
    <g id="patch_48">
     <path d="M 309.059851 132.684399 
L 454.625068 132.684399 
" style="fill: none; stroke: #000000; stroke-width: 0.8; stroke-linejoin: miter; stroke-linecap: square"/>
    </g>
   </g>
  </g>
  <g id="subfigure_5">
   <g id="patch_49">
    <path d="M 285.58159 403.623529 
L 473.407677 403.623529 
L 473.407677 213.035294 
L 285.58159 213.035294 
L 285.58159 403.623529 
z
" style="fill: none"/>
   </g>
   <g id="axes_9">
    <g id="patch_50">
     <path d="M 309.059851 342.248593 
L 454.625068 342.248593 
L 454.625068 235.905882 
L 309.059851 235.905882 
z
" style="fill: #ffffff"/>
    </g>
    <g id="matplotlib.axis_17">
     <g id="xtick_21">
      <g id="line2d_49">
       <g>
        <use xlink:href="#me958d3e06c" x="319.559909" y="342.248593" style="stroke: #000000; stroke-width: 0.8"/>
       </g>
      </g>
     </g>
     <g id="xtick_22">
      <g id="line2d_50">
       <g>
        <use xlink:href="#me958d3e06c" x="365.095217" y="342.248593" style="stroke: #000000; stroke-width: 0.8"/>
       </g>
      </g>
     </g>
     <g id="xtick_23">
      <g id="line2d_51">
       <g>
        <use xlink:href="#me958d3e06c" x="410.630525" y="342.248593" style="stroke: #000000; stroke-width: 0.8"/>
       </g>
      </g>
     </g>
    </g>
    <g id="matplotlib.axis_18">
     <g id="ytick_25">
      <g id="line2d_52">
       <g>
        <use xlink:href="#m8ec7c5e0f9" x="309.059851" y="327.891692" style="stroke: #000000; stroke-width: 0.8"/>
       </g>
      </g>
      <g id="text_45">
       <!-- −0.050 -->
       <g transform="translate(265.052038 331.69091) scale(0.1 -0.1)">
        <use xlink:href="#DejaVuSans-2212"/>
        <use xlink:href="#DejaVuSans-30" x="83.789062"/>
        <use xlink:href="#DejaVuSans-2e" x="147.412109"/>
        <use xlink:href="#DejaVuSans-30" x="179.199219"/>
        <use xlink:href="#DejaVuSans-35" x="242.822266"/>
        <use xlink:href="#DejaVuSans-30" x="306.445312"/>
       </g>
      </g>
     </g>
     <g id="ytick_26">
      <g id="line2d_53">
       <g>
        <use xlink:href="#m8ec7c5e0f9" x="309.059851" y="303.287757" style="stroke: #000000; stroke-width: 0.8"/>
       </g>
      </g>
      <g id="text_46">
       <!-- −0.025 -->
       <g transform="translate(265.052038 307.086976) scale(0.1 -0.1)">
        <use xlink:href="#DejaVuSans-2212"/>
        <use xlink:href="#DejaVuSans-30" x="83.789062"/>
        <use xlink:href="#DejaVuSans-2e" x="147.412109"/>
        <use xlink:href="#DejaVuSans-30" x="179.199219"/>
        <use xlink:href="#DejaVuSans-32" x="242.822266"/>
        <use xlink:href="#DejaVuSans-35" x="306.445312"/>
       </g>
      </g>
     </g>
     <g id="ytick_27">
      <g id="line2d_54">
       <g>
        <use xlink:href="#m8ec7c5e0f9" x="309.059851" y="278.683822" style="stroke: #000000; stroke-width: 0.8"/>
       </g>
      </g>
      <g id="text_47">
       <!-- 0.000 -->
       <g transform="translate(273.431726 282.483041) scale(0.1 -0.1)">
        <use xlink:href="#DejaVuSans-30"/>
        <use xlink:href="#DejaVuSans-2e" x="63.623047"/>
        <use xlink:href="#DejaVuSans-30" x="95.410156"/>
        <use xlink:href="#DejaVuSans-30" x="159.033203"/>
        <use xlink:href="#DejaVuSans-30" x="222.65625"/>
       </g>
      </g>
     </g>
     <g id="ytick_28">
      <g id="line2d_55">
       <g>
        <use xlink:href="#m8ec7c5e0f9" x="309.059851" y="254.079888" style="stroke: #000000; stroke-width: 0.8"/>
       </g>
      </g>
      <g id="text_48">
       <!-- 0.025 -->
       <g transform="translate(273.431726 257.879107) scale(0.1 -0.1)">
        <use xlink:href="#DejaVuSans-30"/>
        <use xlink:href="#DejaVuSans-2e" x="63.623047"/>
        <use xlink:href="#DejaVuSans-30" x="95.410156"/>
        <use xlink:href="#DejaVuSans-32" x="159.033203"/>
        <use xlink:href="#DejaVuSans-35" x="222.65625"/>
       </g>
      </g>
     </g>
     <g id="text_49">
      <!-- Shape function -->
      <g transform="translate(258.972351 326.748332) rotate(-90) scale(0.1 -0.1)">
       <use xlink:href="#DejaVuSans-53"/>
       <use xlink:href="#DejaVuSans-68" x="63.476562"/>
       <use xlink:href="#DejaVuSans-61" x="126.855469"/>
       <use xlink:href="#DejaVuSans-70" x="188.134766"/>
       <use xlink:href="#DejaVuSans-65" x="251.611328"/>
       <use xlink:href="#DejaVuSans-20" x="313.134766"/>
       <use xlink:href="#DejaVuSans-66" x="344.921875"/>
       <use xlink:href="#DejaVuSans-75" x="380.126953"/>
       <use xlink:href="#DejaVuSans-6e" x="443.505859"/>
       <use xlink:href="#DejaVuSans-63" x="506.884766"/>
       <use xlink:href="#DejaVuSans-74" x="561.865234"/>
       <use xlink:href="#DejaVuSans-69" x="601.074219"/>
       <use xlink:href="#DejaVuSans-6f" x="628.857422"/>
       <use xlink:href="#DejaVuSans-6e" x="690.039062"/>
      </g>
     </g>
    </g>
    <g id="line2d_56">
     <path d="M 315.676451 240.910344 
L 317.013138 240.864687 
L 318.349825 240.828076 
L 319.686512 240.79912 
L 321.023199 240.776759 
L 322.359886 240.760169 
L 323.696574 240.748734 
L 325.033261 240.741999 
L 326.369948 240.739642 
L 327.706635 240.74146 
L 329.043322 240.747352 
L 330.380009 240.757306 
L 331.716696 240.771388 
L 333.053383 240.789753 
L 334.39007 240.812637 
L 335.726757 240.840358 
L 337.063444 240.873318 
L 338.400131 240.912008 
L 339.736818 240.957026 
L 341.073505 241.009065 
L 342.410192 241.06895 
L 343.746879 241.13763 
L 345.083566 241.216206 
L 346.420253 241.305931 
L 347.75694 241.408242 
L 349.093627 241.524781 
L 350.430314 241.657401 
L 351.767001 241.808195 
L 353.103688 241.979516 
L 354.440375 242.174005 
L 355.777062 242.394597 
L 357.113749 242.644553 
L 358.450436 242.92746 
L 359.787123 243.247251 
L 361.12381 243.608199 
L 362.460497 244.014917 
L 363.797184 244.472317 
L 365.133871 244.985606 
L 366.470558 245.560196 
L 367.807245 246.201643 
L 369.143932 246.915561 
L 370.480619 247.707439 
L 371.817307 248.582542 
L 373.153994 249.545672 
L 374.490681 250.600935 
L 375.827368 251.75151 
L 377.164055 252.999318 
L 378.500742 254.344726 
L 379.837429 255.786196 
L 381.174116 257.319972 
L 382.510803 258.939839 
L 383.84749 260.640219 
L 385.184177 262.417404 
L 386.520864 264.267081 
L 387.857551 266.184264 
L 389.194238 268.163367 
L 390.530925 270.19819 
L 391.867612 272.282127 
L 393.204299 274.408073 
L 394.540986 276.568629 
L 395.877673 278.756184 
L 397.21436 280.962891 
L 398.551047 283.180927 
L 399.887734 285.402456 
L 401.224421 287.619766 
L 402.561108 289.825341 
L 403.897795 292.011931 
L 405.234482 294.172681 
L 406.571169 296.301102 
L 407.907856 298.391211 
L 409.244543 300.43753 
L 410.58123 302.435182 
L 411.917917 304.379832 
L 413.254604 306.267822 
L 414.591291 308.096097 
L 415.927978 309.862265 
L 417.264665 311.564603 
L 418.601353 313.202019 
L 419.93804 314.774065 
L 421.274727 316.28088 
L 422.611414 317.723265 
L 423.948101 319.102539 
L 425.284788 320.420629 
L 426.621475 321.679972 
L 427.958162 322.883433 
L 429.294849 324.034452 
L 430.631536 325.136826 
L 431.968223 326.194788 
L 433.30491 327.212933 
L 434.641597 328.196198 
L 435.978284 329.149913 
L 437.314971 330.079606 
L 438.651658 330.991232 
L 439.988345 331.890891 
L 441.325032 332.785 
L 442.661719 333.680237 
L 443.998406 334.583526 
L 445.335093 335.502037 
L 446.67178 336.443228 
L 448.008467 337.414834 
" clip-path="url(#pdb4701c8eb)" style="fill: none; stroke: #1f77b4; stroke-width: 1.5; stroke-linecap: square"/>
    </g>
    <g id="patch_51">
     <path d="M 309.059851 342.248593 
L 309.059851 235.905882 
" style="fill: none; stroke: #000000; stroke-width: 0.8; stroke-linejoin: miter; stroke-linecap: square"/>
    </g>
    <g id="patch_52">
     <path d="M 454.625068 342.248593 
L 454.625068 235.905882 
" style="fill: none; stroke: #000000; stroke-width: 0.8; stroke-linejoin: miter; stroke-linecap: square"/>
    </g>
    <g id="patch_53">
     <path d="M 309.059851 342.248593 
L 454.625068 342.248593 
" style="fill: none; stroke: #000000; stroke-width: 0.8; stroke-linejoin: miter; stroke-linecap: square"/>
    </g>
    <g id="patch_54">
     <path d="M 309.059851 235.905882 
L 454.625068 235.905882 
" style="fill: none; stroke: #000000; stroke-width: 0.8; stroke-linejoin: miter; stroke-linecap: square"/>
    </g>
   </g>
   <g id="axes_10">
    <g id="patch_55">
     <path d="M 309.059851 382.658824 
L 454.625068 382.658824 
L 454.625068 361.390281 
L 309.059851 361.390281 
z
" style="fill: #ffffff"/>
    </g>
    <g id="patch_56">
     <path d="M 315.800214 382.658824 
L 315.800214 368.479795 
L 322.410627 368.479795 
L 322.410627 376.582097 
L 329.02104 376.582097 
L 329.02104 370.505371 
L 335.631452 370.505371 
L 335.631452 372.530946 
L 342.241865 372.530946 
L 342.241865 376.582097 
L 348.852278 376.582097 
L 348.852278 374.556522 
L 355.46269 374.556522 
L 355.46269 366.45422 
L 362.073103 366.45422 
L 362.073103 368.479795 
L 368.683515 368.479795 
L 368.683515 370.505371 
L 375.293928 370.505371 
L 375.293928 376.582097 
L 381.904341 376.582097 
L 381.904341 366.45422 
L 388.514753 366.45422 
L 388.514753 362.403069 
L 395.125166 362.403069 
L 395.125166 368.479795 
L 401.735579 368.479795 
L 401.735579 368.479795 
L 408.345991 368.479795 
L 408.345991 366.45422 
L 414.956404 366.45422 
L 414.956404 370.505371 
L 421.566817 370.505371 
L 421.566817 372.530946 
L 428.177229 372.530946 
L 428.177229 362.403069 
L 434.787642 362.403069 
L 434.787642 362.403069 
L 441.398055 362.403069 
L 441.398055 372.530946 
L 448.008467 372.530946 
L 448.008467 382.658824 
" clip-path="url(#pc60c695fe9)" style="fill: #1f77b4"/>
    </g>
    <g id="matplotlib.axis_19">
     <g id="xtick_24">
      <g id="line2d_57">
       <g>
        <use xlink:href="#me958d3e06c" x="319.559909" y="382.658824" style="stroke: #000000; stroke-width: 0.8"/>
       </g>
      </g>
      <g id="text_50">
       <!-- 0.2 -->
       <g transform="translate(311.608347 397.257261) scale(0.1 -0.1)">
        <use xlink:href="#DejaVuSans-30"/>
        <use xlink:href="#DejaVuSans-2e" x="63.623047"/>
        <use xlink:href="#DejaVuSans-32" x="95.410156"/>
       </g>
      </g>
     </g>
     <g id="xtick_25">
      <g id="line2d_58">
       <g>
        <use xlink:href="#me958d3e06c" x="365.095217" y="382.658824" style="stroke: #000000; stroke-width: 0.8"/>
       </g>
      </g>
      <g id="text_51">
       <!-- 0.3 -->
       <g transform="translate(357.143655 397.257261) scale(0.1 -0.1)">
        <defs>
         <path id="DejaVuSans-33" d="M 2597 2516 
Q 3050 2419 3304 2112 
Q 3559 1806 3559 1356 
Q 3559 666 3084 287 
Q 2609 -91 1734 -91 
Q 1441 -91 1130 -33 
Q 819 25 488 141 
L 488 750 
Q 750 597 1062 519 
Q 1375 441 1716 441 
Q 2309 441 2620 675 
Q 2931 909 2931 1356 
Q 2931 1769 2642 2001 
Q 2353 2234 1838 2234 
L 1294 2234 
L 1294 2753 
L 1863 2753 
Q 2328 2753 2575 2939 
Q 2822 3125 2822 3475 
Q 2822 3834 2567 4026 
Q 2313 4219 1838 4219 
Q 1578 4219 1281 4162 
Q 984 4106 628 3988 
L 628 4550 
Q 988 4650 1302 4700 
Q 1616 4750 1894 4750 
Q 2613 4750 3031 4423 
Q 3450 4097 3450 3541 
Q 3450 3153 3228 2886 
Q 3006 2619 2597 2516 
z
" transform="scale(0.015625)"/>
        </defs>
        <use xlink:href="#DejaVuSans-30"/>
        <use xlink:href="#DejaVuSans-2e" x="63.623047"/>
        <use xlink:href="#DejaVuSans-33" x="95.410156"/>
       </g>
      </g>
     </g>
     <g id="xtick_26">
      <g id="line2d_59">
       <g>
        <use xlink:href="#me958d3e06c" x="410.630525" y="382.658824" style="stroke: #000000; stroke-width: 0.8"/>
       </g>
      </g>
      <g id="text_52">
       <!-- 0.4 -->
       <g transform="translate(402.678963 397.257261) scale(0.1 -0.1)">
        <use xlink:href="#DejaVuSans-30"/>
        <use xlink:href="#DejaVuSans-2e" x="63.623047"/>
        <use xlink:href="#DejaVuSans-34" x="95.410156"/>
       </g>
      </g>
     </g>
     <g id="text_53">
      <!-- dosage -->
      <g transform="translate(363.689334 410.935386) scale(0.1 -0.1)">
       <defs>
        <path id="DejaVuSans-64" d="M 2906 2969 
L 2906 4863 
L 3481 4863 
L 3481 0 
L 2906 0 
L 2906 525 
Q 2725 213 2448 61 
Q 2172 -91 1784 -91 
Q 1150 -91 751 415 
Q 353 922 353 1747 
Q 353 2572 751 3078 
Q 1150 3584 1784 3584 
Q 2172 3584 2448 3432 
Q 2725 3281 2906 2969 
z
M 947 1747 
Q 947 1113 1208 752 
Q 1469 391 1925 391 
Q 2381 391 2643 752 
Q 2906 1113 2906 1747 
Q 2906 2381 2643 2742 
Q 2381 3103 1925 3103 
Q 1469 3103 1208 2742 
Q 947 2381 947 1747 
z
" transform="scale(0.015625)"/>
       </defs>
       <use xlink:href="#DejaVuSans-64"/>
       <use xlink:href="#DejaVuSans-6f" x="63.476562"/>
       <use xlink:href="#DejaVuSans-73" x="124.658203"/>
       <use xlink:href="#DejaVuSans-61" x="176.757812"/>
       <use xlink:href="#DejaVuSans-67" x="238.037109"/>
       <use xlink:href="#DejaVuSans-65" x="301.513672"/>
      </g>
     </g>
    </g>
    <g id="matplotlib.axis_20">
     <g id="ytick_29">
      <g id="line2d_60">
       <g>
        <use xlink:href="#m8ec7c5e0f9" x="309.059851" y="382.658824" style="stroke: #000000; stroke-width: 0.8"/>
       </g>
      </g>
      <g id="text_54">
       <!-- 0 -->
       <g transform="translate(295.697351 386.458042) scale(0.1 -0.1)">
        <use xlink:href="#DejaVuSans-30"/>
       </g>
      </g>
     </g>
     <g id="ytick_30">
      <g id="line2d_61">
       <g>
        <use xlink:href="#m8ec7c5e0f9" x="309.059851" y="362.403069" style="stroke: #000000; stroke-width: 0.8"/>
       </g>
      </g>
      <g id="text_55">
       <!-- 10 -->
       <g transform="translate(289.334851 366.202288) scale(0.1 -0.1)">
        <use xlink:href="#DejaVuSans-31"/>
        <use xlink:href="#DejaVuSans-30" x="63.623047"/>
       </g>
      </g>
     </g>
     <g id="text_56">
      <!-- Frequency -->
      <g transform="translate(283.255163 397.85424) rotate(-90) scale(0.1 -0.1)">
       <use xlink:href="#DejaVuSans-46"/>
       <use xlink:href="#DejaVuSans-72" x="50.269531"/>
       <use xlink:href="#DejaVuSans-65" x="89.132812"/>
       <use xlink:href="#DejaVuSans-71" x="150.65625"/>
       <use xlink:href="#DejaVuSans-75" x="214.132812"/>
       <use xlink:href="#DejaVuSans-65" x="277.511719"/>
       <use xlink:href="#DejaVuSans-6e" x="339.035156"/>
       <use xlink:href="#DejaVuSans-63" x="402.414062"/>
       <use xlink:href="#DejaVuSans-79" x="457.394531"/>
      </g>
     </g>
    </g>
    <g id="patch_57">
     <path d="M 309.059851 382.658824 
L 309.059851 361.390281 
" style="fill: none; stroke: #000000; stroke-width: 0.8; stroke-linejoin: miter; stroke-linecap: square"/>
    </g>
    <g id="patch_58">
     <path d="M 454.625068 382.658824 
L 454.625068 361.390281 
" style="fill: none; stroke: #000000; stroke-width: 0.8; stroke-linejoin: miter; stroke-linecap: square"/>
    </g>
    <g id="patch_59">
     <path d="M 309.059851 382.658824 
L 454.625068 382.658824 
" style="fill: none; stroke: #000000; stroke-width: 0.8; stroke-linejoin: miter; stroke-linecap: square"/>
    </g>
    <g id="patch_60">
     <path d="M 309.059851 361.390281 
L 454.625068 361.390281 
" style="fill: none; stroke: #000000; stroke-width: 0.8; stroke-linejoin: miter; stroke-linecap: square"/>
    </g>
   </g>
  </g>
  <g id="subfigure_6">
   <g id="patch_61">
    <path d="M 285.58159 632.329412 
L 473.407677 632.329412 
L 473.407677 441.741176 
L 285.58159 441.741176 
L 285.58159 632.329412 
z
" style="fill: none"/>
   </g>
  </g>
 </g>
 <defs>
  <clipPath id="p69e2392211">
   <rect x="64.885937" y="7.2" width="145.565217" height="106.342711"/>
  </clipPath>
  <clipPath id="p165f7b745e">
   <rect x="64.885937" y="132.684399" width="145.565217" height="21.268542"/>
  </clipPath>
  <clipPath id="p76e31760b0">
   <rect x="64.885937" y="235.905882" width="145.565217" height="106.342711"/>
  </clipPath>
  <clipPath id="paed10cc0f1">
   <rect x="64.885937" y="361.390281" width="145.565217" height="21.268542"/>
  </clipPath>
  <clipPath id="p823841ed92">
   <rect x="64.885937" y="464.611765" width="145.565217" height="106.342711"/>
  </clipPath>
  <clipPath id="p8572564729">
   <rect x="309.059851" y="7.2" width="145.565217" height="106.342711"/>
  </clipPath>
  <clipPath id="p2952ea33b3">
   <rect x="309.059851" y="132.684399" width="145.565217" height="21.268542"/>
  </clipPath>
  <clipPath id="pdb4701c8eb">
   <rect x="309.059851" y="235.905882" width="145.565217" height="106.342711"/>
  </clipPath>
  <clipPath id="pc60c695fe9">
   <rect x="309.059851" y="361.390281" width="145.565217" height="21.268542"/>
  </clipPath>
 </defs>
</svg>
