<?xml version="1.0" encoding="utf-8" standalone="no"?>
<!DOCTYPE svg PUBLIC "-//W3C//DTD SVG 1.1//EN"
  "http://www.w3.org/Graphics/SVG/1.1/DTD/svg11.dtd">
<svg xmlns:xlink="http://www.w3.org/1999/xlink" width="907.682621pt" height="442.191051pt" viewBox="0 0 907.682621 442.191051" xmlns="http://www.w3.org/2000/svg" version="1.1">
 <metadata>
  <rdf:RDF xmlns:dc="http://purl.org/dc/elements/1.1/" xmlns:cc="http://creativecommons.org/ns#" xmlns:rdf="http://www.w3.org/1999/02/22-rdf-syntax-ns#">
   <cc:Work>
    <dc:type rdf:resource="http://purl.org/dc/dcmitype/StillImage"/>
    <dc:date>2025-06-04T00:54:09.361661</dc:date>
    <dc:format>image/svg+xml</dc:format>
    <dc:creator>
     <cc:Agent>
      <dc:title>Matplotlib v3.8.3, https://matplotlib.org/</dc:title>
     </cc:Agent>
    </dc:creator>
   </cc:Work>
  </rdf:RDF>
 </metadata>
 <defs>
  <style type="text/css">*{stroke-linejoin: round; stroke-linecap: butt}</style>
 </defs>
 <g id="figure_1">
  <g id="patch_1">
   <path d="M 0 442.191051 
L 907.682621 442.191051 
L 907.682621 -0 
L 0 -0 
z
" style="fill: #ffffff"/>
  </g>
  <g id="subfigure_1">
   <g id="patch_2">
    <path d="M 36.482621 190.598437 
L 212.809152 190.598437 
L 212.809152 -1 
M 36.482621 -1 
L 36.482621 190.598437 
" style="fill: none"/>
   </g>
   <g id="axes_1">
    <g id="patch_3">
     <path d="M 58.523438 127.363655 
L 195.176499 127.363655 
L 195.176499 17.798437 
L 58.523438 17.798437 
z
" style="fill: #ffffff"/>
    </g>
    <g id="matplotlib.axis_1">
     <g id="xtick_1">
      <g id="line2d_1">
       <defs>
        <path id="m945b2066ad" d="M 0 0 
L 0 3.5 
" style="stroke: #000000; stroke-width: 0.8"/>
       </defs>
       <g>
        <use xlink:href="#m945b2066ad" x="79.350241" y="127.363655" style="stroke: #000000; stroke-width: 0.8"/>
       </g>
      </g>
     </g>
     <g id="xtick_2">
      <g id="line2d_2">
       <g>
        <use xlink:href="#m945b2066ad" x="115.888493" y="127.363655" style="stroke: #000000; stroke-width: 0.8"/>
       </g>
      </g>
     </g>
     <g id="xtick_3">
      <g id="line2d_3">
       <g>
        <use xlink:href="#m945b2066ad" x="152.426744" y="127.363655" style="stroke: #000000; stroke-width: 0.8"/>
       </g>
      </g>
     </g>
     <g id="xtick_4">
      <g id="line2d_4">
       <g>
        <use xlink:href="#m945b2066ad" x="188.964996" y="127.363655" style="stroke: #000000; stroke-width: 0.8"/>
       </g>
      </g>
     </g>
    </g>
    <g id="matplotlib.axis_2">
     <g id="ytick_1">
      <g id="line2d_5">
       <defs>
        <path id="m5b60b90e48" d="M 0 0 
L -3.5 0 
" style="stroke: #000000; stroke-width: 0.8"/>
       </defs>
       <g>
        <use xlink:href="#m5b60b90e48" x="58.523438" y="121.914077" style="stroke: #000000; stroke-width: 0.8"/>
       </g>
      </g>
      <g id="text_1">
       <!-- 0.0 -->
       <g transform="translate(35.620312 125.713296) scale(0.1 -0.1)">
        <defs>
         <path id="DejaVuSans-30" d="M 2034 4250 
Q 1547 4250 1301 3770 
Q 1056 3291 1056 2328 
Q 1056 1369 1301 889 
Q 1547 409 2034 409 
Q 2525 409 2770 889 
Q 3016 1369 3016 2328 
Q 3016 3291 2770 3770 
Q 2525 4250 2034 4250 
z
M 2034 4750 
Q 2819 4750 3233 4129 
Q 3647 3509 3647 2328 
Q 3647 1150 3233 529 
Q 2819 -91 2034 -91 
Q 1250 -91 836 529 
Q 422 1150 422 2328 
Q 422 3509 836 4129 
Q 1250 4750 2034 4750 
z
" transform="scale(0.015625)"/>
         <path id="DejaVuSans-2e" d="M 684 794 
L 1344 794 
L 1344 0 
L 684 0 
L 684 794 
z
" transform="scale(0.015625)"/>
        </defs>
        <use xlink:href="#DejaVuSans-30"/>
        <use xlink:href="#DejaVuSans-2e" x="63.623047"/>
        <use xlink:href="#DejaVuSans-30" x="95.410156"/>
       </g>
      </g>
     </g>
     <g id="ytick_2">
      <g id="line2d_6">
       <g>
        <use xlink:href="#m5b60b90e48" x="58.523438" y="97.640534" style="stroke: #000000; stroke-width: 0.8"/>
       </g>
      </g>
      <g id="text_2">
       <!-- 0.5 -->
       <g transform="translate(35.620312 101.439753) scale(0.1 -0.1)">
        <defs>
         <path id="DejaVuSans-35" d="M 691 4666 
L 3169 4666 
L 3169 4134 
L 1269 4134 
L 1269 2991 
Q 1406 3038 1543 3061 
Q 1681 3084 1819 3084 
Q 2600 3084 3056 2656 
Q 3513 2228 3513 1497 
Q 3513 744 3044 326 
Q 2575 -91 1722 -91 
Q 1428 -91 1123 -41 
Q 819 9 494 109 
L 494 744 
Q 775 591 1075 516 
Q 1375 441 1709 441 
Q 2250 441 2565 725 
Q 2881 1009 2881 1497 
Q 2881 1984 2565 2268 
Q 2250 2553 1709 2553 
Q 1456 2553 1204 2497 
Q 953 2441 691 2322 
L 691 4666 
z
" transform="scale(0.015625)"/>
        </defs>
        <use xlink:href="#DejaVuSans-30"/>
        <use xlink:href="#DejaVuSans-2e" x="63.623047"/>
        <use xlink:href="#DejaVuSans-35" x="95.410156"/>
       </g>
      </g>
     </g>
     <g id="ytick_3">
      <g id="line2d_7">
       <g>
        <use xlink:href="#m5b60b90e48" x="58.523438" y="73.366992" style="stroke: #000000; stroke-width: 0.8"/>
       </g>
      </g>
      <g id="text_3">
       <!-- 1.0 -->
       <g transform="translate(35.620312 77.16621) scale(0.1 -0.1)">
        <defs>
         <path id="DejaVuSans-31" d="M 794 531 
L 1825 531 
L 1825 4091 
L 703 3866 
L 703 4441 
L 1819 4666 
L 2450 4666 
L 2450 531 
L 3481 531 
L 3481 0 
L 794 0 
L 794 531 
z
" transform="scale(0.015625)"/>
        </defs>
        <use xlink:href="#DejaVuSans-31"/>
        <use xlink:href="#DejaVuSans-2e" x="63.623047"/>
        <use xlink:href="#DejaVuSans-30" x="95.410156"/>
       </g>
      </g>
     </g>
     <g id="ytick_4">
      <g id="line2d_8">
       <g>
        <use xlink:href="#m5b60b90e48" x="58.523438" y="49.093449" style="stroke: #000000; stroke-width: 0.8"/>
       </g>
      </g>
      <g id="text_4">
       <!-- 1.5 -->
       <g transform="translate(35.620312 52.892668) scale(0.1 -0.1)">
        <use xlink:href="#DejaVuSans-31"/>
        <use xlink:href="#DejaVuSans-2e" x="63.623047"/>
        <use xlink:href="#DejaVuSans-35" x="95.410156"/>
       </g>
      </g>
     </g>
     <g id="ytick_5">
      <g id="line2d_9">
       <g>
        <use xlink:href="#m5b60b90e48" x="58.523438" y="24.819907" style="stroke: #000000; stroke-width: 0.8"/>
       </g>
      </g>
      <g id="text_5">
       <!-- 2.0 -->
       <g transform="translate(35.620312 28.619125) scale(0.1 -0.1)">
        <defs>
         <path id="DejaVuSans-32" d="M 1228 531 
L 3431 531 
L 3431 0 
L 469 0 
L 469 531 
Q 828 903 1448 1529 
Q 2069 2156 2228 2338 
Q 2531 2678 2651 2914 
Q 2772 3150 2772 3378 
Q 2772 3750 2511 3984 
Q 2250 4219 1831 4219 
Q 1534 4219 1204 4116 
Q 875 4013 500 3803 
L 500 4441 
Q 881 4594 1212 4672 
Q 1544 4750 1819 4750 
Q 2544 4750 2975 4387 
Q 3406 4025 3406 3419 
Q 3406 3131 3298 2873 
Q 3191 2616 2906 2266 
Q 2828 2175 2409 1742 
Q 1991 1309 1228 531 
z
" transform="scale(0.015625)"/>
        </defs>
        <use xlink:href="#DejaVuSans-32"/>
        <use xlink:href="#DejaVuSans-2e" x="63.623047"/>
        <use xlink:href="#DejaVuSans-30" x="95.410156"/>
       </g>
      </g>
     </g>
     <g id="text_6">
      <!-- Shape function -->
      <g transform="translate(29.540625 110.25214) rotate(-90) scale(0.1 -0.1)">
       <defs>
        <path id="DejaVuSans-53" d="M 3425 4513 
L 3425 3897 
Q 3066 4069 2747 4153 
Q 2428 4238 2131 4238 
Q 1616 4238 1336 4038 
Q 1056 3838 1056 3469 
Q 1056 3159 1242 3001 
Q 1428 2844 1947 2747 
L 2328 2669 
Q 3034 2534 3370 2195 
Q 3706 1856 3706 1288 
Q 3706 609 3251 259 
Q 2797 -91 1919 -91 
Q 1588 -91 1214 -16 
Q 841 59 441 206 
L 441 856 
Q 825 641 1194 531 
Q 1563 422 1919 422 
Q 2459 422 2753 634 
Q 3047 847 3047 1241 
Q 3047 1584 2836 1778 
Q 2625 1972 2144 2069 
L 1759 2144 
Q 1053 2284 737 2584 
Q 422 2884 422 3419 
Q 422 4038 858 4394 
Q 1294 4750 2059 4750 
Q 2388 4750 2728 4690 
Q 3069 4631 3425 4513 
z
" transform="scale(0.015625)"/>
        <path id="DejaVuSans-68" d="M 3513 2113 
L 3513 0 
L 2938 0 
L 2938 2094 
Q 2938 2591 2744 2837 
Q 2550 3084 2163 3084 
Q 1697 3084 1428 2787 
Q 1159 2491 1159 1978 
L 1159 0 
L 581 0 
L 581 4863 
L 1159 4863 
L 1159 2956 
Q 1366 3272 1645 3428 
Q 1925 3584 2291 3584 
Q 2894 3584 3203 3211 
Q 3513 2838 3513 2113 
z
" transform="scale(0.015625)"/>
        <path id="DejaVuSans-61" d="M 2194 1759 
Q 1497 1759 1228 1600 
Q 959 1441 959 1056 
Q 959 750 1161 570 
Q 1363 391 1709 391 
Q 2188 391 2477 730 
Q 2766 1069 2766 1631 
L 2766 1759 
L 2194 1759 
z
M 3341 1997 
L 3341 0 
L 2766 0 
L 2766 531 
Q 2569 213 2275 61 
Q 1981 -91 1556 -91 
Q 1019 -91 701 211 
Q 384 513 384 1019 
Q 384 1609 779 1909 
Q 1175 2209 1959 2209 
L 2766 2209 
L 2766 2266 
Q 2766 2663 2505 2880 
Q 2244 3097 1772 3097 
Q 1472 3097 1187 3025 
Q 903 2953 641 2809 
L 641 3341 
Q 956 3463 1253 3523 
Q 1550 3584 1831 3584 
Q 2591 3584 2966 3190 
Q 3341 2797 3341 1997 
z
" transform="scale(0.015625)"/>
        <path id="DejaVuSans-70" d="M 1159 525 
L 1159 -1331 
L 581 -1331 
L 581 3500 
L 1159 3500 
L 1159 2969 
Q 1341 3281 1617 3432 
Q 1894 3584 2278 3584 
Q 2916 3584 3314 3078 
Q 3713 2572 3713 1747 
Q 3713 922 3314 415 
Q 2916 -91 2278 -91 
Q 1894 -91 1617 61 
Q 1341 213 1159 525 
z
M 3116 1747 
Q 3116 2381 2855 2742 
Q 2594 3103 2138 3103 
Q 1681 3103 1420 2742 
Q 1159 2381 1159 1747 
Q 1159 1113 1420 752 
Q 1681 391 2138 391 
Q 2594 391 2855 752 
Q 3116 1113 3116 1747 
z
" transform="scale(0.015625)"/>
        <path id="DejaVuSans-65" d="M 3597 1894 
L 3597 1613 
L 953 1613 
Q 991 1019 1311 708 
Q 1631 397 2203 397 
Q 2534 397 2845 478 
Q 3156 559 3463 722 
L 3463 178 
Q 3153 47 2828 -22 
Q 2503 -91 2169 -91 
Q 1331 -91 842 396 
Q 353 884 353 1716 
Q 353 2575 817 3079 
Q 1281 3584 2069 3584 
Q 2775 3584 3186 3129 
Q 3597 2675 3597 1894 
z
M 3022 2063 
Q 3016 2534 2758 2815 
Q 2500 3097 2075 3097 
Q 1594 3097 1305 2825 
Q 1016 2553 972 2059 
L 3022 2063 
z
" transform="scale(0.015625)"/>
        <path id="DejaVuSans-20" transform="scale(0.015625)"/>
        <path id="DejaVuSans-66" d="M 2375 4863 
L 2375 4384 
L 1825 4384 
Q 1516 4384 1395 4259 
Q 1275 4134 1275 3809 
L 1275 3500 
L 2222 3500 
L 2222 3053 
L 1275 3053 
L 1275 0 
L 697 0 
L 697 3053 
L 147 3053 
L 147 3500 
L 697 3500 
L 697 3744 
Q 697 4328 969 4595 
Q 1241 4863 1831 4863 
L 2375 4863 
z
" transform="scale(0.015625)"/>
        <path id="DejaVuSans-75" d="M 544 1381 
L 544 3500 
L 1119 3500 
L 1119 1403 
Q 1119 906 1312 657 
Q 1506 409 1894 409 
Q 2359 409 2629 706 
Q 2900 1003 2900 1516 
L 2900 3500 
L 3475 3500 
L 3475 0 
L 2900 0 
L 2900 538 
Q 2691 219 2414 64 
Q 2138 -91 1772 -91 
Q 1169 -91 856 284 
Q 544 659 544 1381 
z
M 1991 3584 
L 1991 3584 
z
" transform="scale(0.015625)"/>
        <path id="DejaVuSans-6e" d="M 3513 2113 
L 3513 0 
L 2938 0 
L 2938 2094 
Q 2938 2591 2744 2837 
Q 2550 3084 2163 3084 
Q 1697 3084 1428 2787 
Q 1159 2491 1159 1978 
L 1159 0 
L 581 0 
L 581 3500 
L 1159 3500 
L 1159 2956 
Q 1366 3272 1645 3428 
Q 1925 3584 2291 3584 
Q 2894 3584 3203 3211 
Q 3513 2838 3513 2113 
z
" transform="scale(0.015625)"/>
        <path id="DejaVuSans-63" d="M 3122 3366 
L 3122 2828 
Q 2878 2963 2633 3030 
Q 2388 3097 2138 3097 
Q 1578 3097 1268 2742 
Q 959 2388 959 1747 
Q 959 1106 1268 751 
Q 1578 397 2138 397 
Q 2388 397 2633 464 
Q 2878 531 3122 666 
L 3122 134 
Q 2881 22 2623 -34 
Q 2366 -91 2075 -91 
Q 1284 -91 818 406 
Q 353 903 353 1747 
Q 353 2603 823 3093 
Q 1294 3584 2113 3584 
Q 2378 3584 2631 3529 
Q 2884 3475 3122 3366 
z
" transform="scale(0.015625)"/>
        <path id="DejaVuSans-74" d="M 1172 4494 
L 1172 3500 
L 2356 3500 
L 2356 3053 
L 1172 3053 
L 1172 1153 
Q 1172 725 1289 603 
Q 1406 481 1766 481 
L 2356 481 
L 2356 0 
L 1766 0 
Q 1100 0 847 248 
Q 594 497 594 1153 
L 594 3053 
L 172 3053 
L 172 3500 
L 594 3500 
L 594 4494 
L 1172 4494 
z
" transform="scale(0.015625)"/>
        <path id="DejaVuSans-69" d="M 603 3500 
L 1178 3500 
L 1178 0 
L 603 0 
L 603 3500 
z
M 603 4863 
L 1178 4863 
L 1178 4134 
L 603 4134 
L 603 4863 
z
" transform="scale(0.015625)"/>
        <path id="DejaVuSans-6f" d="M 1959 3097 
Q 1497 3097 1228 2736 
Q 959 2375 959 1747 
Q 959 1119 1226 758 
Q 1494 397 1959 397 
Q 2419 397 2687 759 
Q 2956 1122 2956 1747 
Q 2956 2369 2687 2733 
Q 2419 3097 1959 3097 
z
M 1959 3584 
Q 2709 3584 3137 3096 
Q 3566 2609 3566 1747 
Q 3566 888 3137 398 
Q 2709 -91 1959 -91 
Q 1206 -91 779 398 
Q 353 888 353 1747 
Q 353 2609 779 3096 
Q 1206 3584 1959 3584 
z
" transform="scale(0.015625)"/>
       </defs>
       <use xlink:href="#DejaVuSans-53"/>
       <use xlink:href="#DejaVuSans-68" x="63.476562"/>
       <use xlink:href="#DejaVuSans-61" x="126.855469"/>
       <use xlink:href="#DejaVuSans-70" x="188.134766"/>
       <use xlink:href="#DejaVuSans-65" x="251.611328"/>
       <use xlink:href="#DejaVuSans-20" x="313.134766"/>
       <use xlink:href="#DejaVuSans-66" x="344.921875"/>
       <use xlink:href="#DejaVuSans-75" x="380.126953"/>
       <use xlink:href="#DejaVuSans-6e" x="443.505859"/>
       <use xlink:href="#DejaVuSans-63" x="506.884766"/>
       <use xlink:href="#DejaVuSans-74" x="561.865234"/>
       <use xlink:href="#DejaVuSans-69" x="601.074219"/>
       <use xlink:href="#DejaVuSans-6f" x="628.857422"/>
       <use xlink:href="#DejaVuSans-6e" x="690.039062"/>
      </g>
     </g>
     <g id="text_7">
      <!-- 1e−5 -->
      <g transform="translate(58.523438 14.798437) scale(0.1 -0.1)">
       <defs>
        <path id="DejaVuSans-2212" d="M 678 2272 
L 4684 2272 
L 4684 1741 
L 678 1741 
L 678 2272 
z
" transform="scale(0.015625)"/>
       </defs>
       <use xlink:href="#DejaVuSans-31"/>
       <use xlink:href="#DejaVuSans-65" x="63.623047"/>
       <use xlink:href="#DejaVuSans-2212" x="125.146484"/>
       <use xlink:href="#DejaVuSans-35" x="208.935547"/>
      </g>
     </g>
    </g>
    <g id="line2d_10">
     <path d="M 64.73494 22.778675 
L 65.989789 75.013475 
L 67.244638 99.736879 
L 68.499487 111.501036 
L 69.754336 117.12793 
L 71.009186 119.832975 
L 72.264035 121.139831 
L 73.518884 121.774245 
L 74.773733 122.083672 
L 76.028582 122.235281 
L 77.283431 122.309897 
L 78.53828 122.346778 
L 79.793129 122.365086 
L 81.047978 122.37421 
L 82.302827 122.378775 
L 83.557676 122.381069 
L 84.812525 122.382225 
L 86.067374 122.38281 
L 87.322223 122.383107 
L 88.577072 122.383258 
L 89.831921 122.383336 
L 91.08677 122.383375 
L 92.341619 122.383396 
L 93.596468 122.383406 
L 94.851317 122.383412 
L 96.106166 122.383415 
L 97.361016 122.383416 
L 98.615865 122.383417 
L 99.870714 122.383417 
L 101.125563 122.383417 
L 102.380412 122.383418 
L 103.635261 122.383418 
L 104.89011 122.383418 
L 106.144959 122.383418 
L 107.399808 122.383418 
L 108.654657 122.383418 
L 109.909506 122.383418 
L 111.164355 122.383418 
L 112.419204 122.383418 
L 113.674053 122.383418 
L 114.928902 122.383418 
L 116.183751 122.383418 
L 117.4386 122.383418 
L 118.693449 122.383418 
L 119.948298 122.383418 
L 121.203147 122.383418 
L 122.457996 122.383418 
L 123.712845 122.383418 
L 124.967695 122.383418 
L 126.222544 122.383418 
L 127.477393 122.383418 
L 128.732242 122.383418 
L 129.987091 122.383418 
L 131.24194 122.383418 
L 132.496789 122.383418 
L 133.751638 122.383418 
L 135.006487 122.383418 
L 136.261336 122.383418 
L 137.516185 122.383418 
L 138.771034 122.383418 
L 140.025883 122.383418 
L 141.280732 122.383418 
L 142.535581 122.383418 
L 143.79043 122.383418 
L 145.045279 122.383418 
L 146.300128 122.383418 
L 147.554977 122.383418 
L 148.809826 122.383418 
L 150.064675 122.383418 
L 151.319525 122.383418 
L 152.574374 122.383418 
L 153.829223 122.383418 
L 155.084072 122.383418 
L 156.338921 122.383418 
L 157.59377 122.383418 
L 158.848619 122.383418 
L 160.103468 122.383418 
L 161.358317 122.383418 
L 162.613166 122.383418 
L 163.868015 122.383418 
L 165.122864 122.383418 
L 166.377713 122.383418 
L 167.632562 122.383418 
L 168.887411 122.383418 
L 170.14226 122.383418 
L 171.397109 122.383418 
L 172.651958 122.383418 
L 173.906807 122.383418 
L 175.161656 122.383418 
L 176.416505 122.383418 
L 177.671355 122.383418 
L 178.926204 122.383418 
L 180.181053 122.383418 
L 181.435902 122.383418 
L 182.690751 122.383418 
L 183.9456 122.383418 
L 185.200449 122.383418 
L 186.455298 122.383418 
L 187.710147 122.383418 
L 188.964996 122.383418 
" clip-path="url(#p97eedda03d)" style="fill: none; stroke: #1f77b4; stroke-width: 1.5; stroke-linecap: square"/>
    </g>
    <g id="patch_4">
     <path d="M 58.523438 127.363655 
L 58.523438 17.798437 
" style="fill: none; stroke: #000000; stroke-width: 0.8; stroke-linejoin: miter; stroke-linecap: square"/>
    </g>
    <g id="patch_5">
     <path d="M 195.176499 127.363655 
L 195.176499 17.798437 
" style="fill: none; stroke: #000000; stroke-width: 0.8; stroke-linejoin: miter; stroke-linecap: square"/>
    </g>
    <g id="patch_6">
     <path d="M 58.523438 127.363655 
L 195.176499 127.363655 
" style="fill: none; stroke: #000000; stroke-width: 0.8; stroke-linejoin: miter; stroke-linecap: square"/>
    </g>
    <g id="patch_7">
     <path d="M 58.523438 17.798437 
L 195.176499 17.798437 
" style="fill: none; stroke: #000000; stroke-width: 0.8; stroke-linejoin: miter; stroke-linecap: square"/>
    </g>
   </g>
   <g id="axes_2">
    <g id="patch_8">
     <path d="M 58.523438 168.998437 
L 195.176499 168.998437 
L 195.176499 147.085394 
L 58.523438 147.085394 
z
" style="fill: #ffffff"/>
    </g>
    <g id="patch_9">
     <path d="M 64.73494 168.998437 
L 64.73494 166.017071 
L 70.946443 166.017071 
L 70.946443 158.563655 
L 77.157946 158.563655 
L 77.157946 160.054338 
L 83.369449 160.054338 
L 83.369449 154.091605 
L 89.580951 154.091605 
L 89.580951 160.054338 
L 95.792454 160.054338 
L 95.792454 148.128872 
L 102.003957 148.128872 
L 102.003957 168.998437 
L 108.21546 168.998437 
L 108.21546 157.072972 
L 114.426963 157.072972 
L 114.426963 158.563655 
L 120.638465 158.563655 
L 120.638465 163.035705 
L 126.849968 163.035705 
L 126.849968 163.035705 
L 133.061471 163.035705 
L 133.061471 167.507754 
L 139.272974 167.507754 
L 139.272974 163.035705 
L 145.484476 163.035705 
L 145.484476 168.998437 
L 151.695979 168.998437 
L 151.695979 168.998437 
L 157.907482 168.998437 
L 157.907482 168.998437 
L 164.118985 168.998437 
L 164.118985 168.998437 
L 170.330488 168.998437 
L 170.330488 168.998437 
L 176.54199 168.998437 
L 176.54199 168.998437 
L 182.753493 168.998437 
L 182.753493 166.017071 
L 188.964996 166.017071 
L 188.964996 168.998437 
" clip-path="url(#pe09971622b)" style="fill: #1f77b4"/>
    </g>
    <g id="matplotlib.axis_3">
     <g id="xtick_5">
      <g id="line2d_11">
       <g>
        <use xlink:href="#m945b2066ad" x="79.350241" y="168.998437" style="stroke: #000000; stroke-width: 0.8"/>
       </g>
      </g>
      <g id="text_8">
       <!-- 2.5 -->
       <g transform="translate(71.398678 183.596875) scale(0.1 -0.1)">
        <use xlink:href="#DejaVuSans-32"/>
        <use xlink:href="#DejaVuSans-2e" x="63.623047"/>
        <use xlink:href="#DejaVuSans-35" x="95.410156"/>
       </g>
      </g>
     </g>
     <g id="xtick_6">
      <g id="line2d_12">
       <g>
        <use xlink:href="#m945b2066ad" x="115.888493" y="168.998437" style="stroke: #000000; stroke-width: 0.8"/>
       </g>
      </g>
      <g id="text_9">
       <!-- 5.0 -->
       <g transform="translate(107.93693 183.596875) scale(0.1 -0.1)">
        <use xlink:href="#DejaVuSans-35"/>
        <use xlink:href="#DejaVuSans-2e" x="63.623047"/>
        <use xlink:href="#DejaVuSans-30" x="95.410156"/>
       </g>
      </g>
     </g>
     <g id="xtick_7">
      <g id="line2d_13">
       <g>
        <use xlink:href="#m945b2066ad" x="152.426744" y="168.998437" style="stroke: #000000; stroke-width: 0.8"/>
       </g>
      </g>
      <g id="text_10">
       <!-- 7.5 -->
       <g transform="translate(144.475182 183.596875) scale(0.1 -0.1)">
        <defs>
         <path id="DejaVuSans-37" d="M 525 4666 
L 3525 4666 
L 3525 4397 
L 1831 0 
L 1172 0 
L 2766 4134 
L 525 4134 
L 525 4666 
z
" transform="scale(0.015625)"/>
        </defs>
        <use xlink:href="#DejaVuSans-37"/>
        <use xlink:href="#DejaVuSans-2e" x="63.623047"/>
        <use xlink:href="#DejaVuSans-35" x="95.410156"/>
       </g>
      </g>
     </g>
     <g id="xtick_8">
      <g id="line2d_14">
       <g>
        <use xlink:href="#m945b2066ad" x="188.964996" y="168.998437" style="stroke: #000000; stroke-width: 0.8"/>
       </g>
      </g>
      <g id="text_11">
       <!-- 10.0 -->
       <g transform="translate(177.832183 183.596875) scale(0.1 -0.1)">
        <use xlink:href="#DejaVuSans-31"/>
        <use xlink:href="#DejaVuSans-30" x="63.623047"/>
        <use xlink:href="#DejaVuSans-2e" x="127.246094"/>
        <use xlink:href="#DejaVuSans-30" x="159.033203"/>
       </g>
      </g>
     </g>
     <g id="text_12">
      <!-- DOSE -->
      <g transform="translate(112.730437 197.275) scale(0.1 -0.1)">
       <defs>
        <path id="DejaVuSans-44" d="M 1259 4147 
L 1259 519 
L 2022 519 
Q 2988 519 3436 956 
Q 3884 1394 3884 2338 
Q 3884 3275 3436 3711 
Q 2988 4147 2022 4147 
L 1259 4147 
z
M 628 4666 
L 1925 4666 
Q 3281 4666 3915 4102 
Q 4550 3538 4550 2338 
Q 4550 1131 3912 565 
Q 3275 0 1925 0 
L 628 0 
L 628 4666 
z
" transform="scale(0.015625)"/>
        <path id="DejaVuSans-4f" d="M 2522 4238 
Q 1834 4238 1429 3725 
Q 1025 3213 1025 2328 
Q 1025 1447 1429 934 
Q 1834 422 2522 422 
Q 3209 422 3611 934 
Q 4013 1447 4013 2328 
Q 4013 3213 3611 3725 
Q 3209 4238 2522 4238 
z
M 2522 4750 
Q 3503 4750 4090 4092 
Q 4678 3434 4678 2328 
Q 4678 1225 4090 567 
Q 3503 -91 2522 -91 
Q 1538 -91 948 565 
Q 359 1222 359 2328 
Q 359 3434 948 4092 
Q 1538 4750 2522 4750 
z
" transform="scale(0.015625)"/>
        <path id="DejaVuSans-45" d="M 628 4666 
L 3578 4666 
L 3578 4134 
L 1259 4134 
L 1259 2753 
L 3481 2753 
L 3481 2222 
L 1259 2222 
L 1259 531 
L 3634 531 
L 3634 0 
L 628 0 
L 628 4666 
z
" transform="scale(0.015625)"/>
       </defs>
       <use xlink:href="#DejaVuSans-44"/>
       <use xlink:href="#DejaVuSans-4f" x="77.001953"/>
       <use xlink:href="#DejaVuSans-53" x="155.712891"/>
       <use xlink:href="#DejaVuSans-45" x="219.189453"/>
      </g>
     </g>
    </g>
    <g id="matplotlib.axis_4">
     <g id="ytick_6">
      <g id="line2d_15">
       <g>
        <use xlink:href="#m5b60b90e48" x="58.523438" y="168.998437" style="stroke: #000000; stroke-width: 0.8"/>
       </g>
      </g>
      <g id="text_13">
       <!-- 0 -->
       <g transform="translate(45.160938 172.797656) scale(0.1 -0.1)">
        <use xlink:href="#DejaVuSans-30"/>
       </g>
      </g>
     </g>
     <g id="ytick_7">
      <g id="line2d_16">
       <g>
        <use xlink:href="#m5b60b90e48" x="58.523438" y="154.091605" style="stroke: #000000; stroke-width: 0.8"/>
       </g>
      </g>
      <g id="text_14">
       <!-- 10 -->
       <g transform="translate(38.798437 157.890824) scale(0.1 -0.1)">
        <use xlink:href="#DejaVuSans-31"/>
        <use xlink:href="#DejaVuSans-30" x="63.623047"/>
       </g>
      </g>
     </g>
     <g id="text_15">
      <!-- Frequency -->
      <g transform="translate(32.71875 183.871603) rotate(-90) scale(0.1 -0.1)">
       <defs>
        <path id="DejaVuSans-46" d="M 628 4666 
L 3309 4666 
L 3309 4134 
L 1259 4134 
L 1259 2759 
L 3109 2759 
L 3109 2228 
L 1259 2228 
L 1259 0 
L 628 0 
L 628 4666 
z
" transform="scale(0.015625)"/>
        <path id="DejaVuSans-72" d="M 2631 2963 
Q 2534 3019 2420 3045 
Q 2306 3072 2169 3072 
Q 1681 3072 1420 2755 
Q 1159 2438 1159 1844 
L 1159 0 
L 581 0 
L 581 3500 
L 1159 3500 
L 1159 2956 
Q 1341 3275 1631 3429 
Q 1922 3584 2338 3584 
Q 2397 3584 2469 3576 
Q 2541 3569 2628 3553 
L 2631 2963 
z
" transform="scale(0.015625)"/>
        <path id="DejaVuSans-71" d="M 947 1747 
Q 947 1113 1208 752 
Q 1469 391 1925 391 
Q 2381 391 2643 752 
Q 2906 1113 2906 1747 
Q 2906 2381 2643 2742 
Q 2381 3103 1925 3103 
Q 1469 3103 1208 2742 
Q 947 2381 947 1747 
z
M 2906 525 
Q 2725 213 2448 61 
Q 2172 -91 1784 -91 
Q 1150 -91 751 415 
Q 353 922 353 1747 
Q 353 2572 751 3078 
Q 1150 3584 1784 3584 
Q 2172 3584 2448 3432 
Q 2725 3281 2906 2969 
L 2906 3500 
L 3481 3500 
L 3481 -1331 
L 2906 -1331 
L 2906 525 
z
" transform="scale(0.015625)"/>
        <path id="DejaVuSans-79" d="M 2059 -325 
Q 1816 -950 1584 -1140 
Q 1353 -1331 966 -1331 
L 506 -1331 
L 506 -850 
L 844 -850 
Q 1081 -850 1212 -737 
Q 1344 -625 1503 -206 
L 1606 56 
L 191 3500 
L 800 3500 
L 1894 763 
L 2988 3500 
L 3597 3500 
L 2059 -325 
z
" transform="scale(0.015625)"/>
       </defs>
       <use xlink:href="#DejaVuSans-46"/>
       <use xlink:href="#DejaVuSans-72" x="50.269531"/>
       <use xlink:href="#DejaVuSans-65" x="89.132812"/>
       <use xlink:href="#DejaVuSans-71" x="150.65625"/>
       <use xlink:href="#DejaVuSans-75" x="214.132812"/>
       <use xlink:href="#DejaVuSans-65" x="277.511719"/>
       <use xlink:href="#DejaVuSans-6e" x="339.035156"/>
       <use xlink:href="#DejaVuSans-63" x="402.414062"/>
       <use xlink:href="#DejaVuSans-79" x="457.394531"/>
      </g>
     </g>
    </g>
    <g id="patch_10">
     <path d="M 58.523438 168.998437 
L 58.523438 147.085394 
" style="fill: none; stroke: #000000; stroke-width: 0.8; stroke-linejoin: miter; stroke-linecap: square"/>
    </g>
    <g id="patch_11">
     <path d="M 195.176499 168.998437 
L 195.176499 147.085394 
" style="fill: none; stroke: #000000; stroke-width: 0.8; stroke-linejoin: miter; stroke-linecap: square"/>
    </g>
    <g id="patch_12">
     <path d="M 58.523438 168.998437 
L 195.176499 168.998437 
" style="fill: none; stroke: #000000; stroke-width: 0.8; stroke-linejoin: miter; stroke-linecap: square"/>
    </g>
    <g id="patch_13">
     <path d="M 58.523438 147.085394 
L 195.176499 147.085394 
" style="fill: none; stroke: #000000; stroke-width: 0.8; stroke-linejoin: miter; stroke-linecap: square"/>
    </g>
   </g>
  </g>
  <g id="subfigure_2">
   <g id="patch_14">
    <path d="M 36.482621 426.234801 
L 212.809152 426.234801 
L 212.809152 229.871165 
L 36.482621 229.871165 
L 36.482621 426.234801 
z
" style="fill: none"/>
   </g>
   <g id="axes_3">
    <g id="patch_15">
     <path d="M 58.523438 363.000019 
L 195.176499 363.000019 
L 195.176499 253.434801 
L 58.523438 253.434801 
z
" style="fill: #ffffff"/>
    </g>
    <g id="patch_16">
     <path d="M 64.73494 306.225313 
L 119.948298 306.225313 
L 119.948298 258.415038 
L 64.73494 258.415038 
z
" clip-path="url(#p38bda8db73)" style="fill: #1f77b4"/>
    </g>
    <g id="patch_17">
     <path d="M 133.751638 306.225313 
L 188.964996 306.225313 
L 188.964996 358.019781 
L 133.751638 358.019781 
z
" clip-path="url(#p38bda8db73)" style="fill: #1f77b4"/>
    </g>
    <g id="matplotlib.axis_5">
     <g id="xtick_9">
      <g id="line2d_17">
       <g>
        <use xlink:href="#m945b2066ad" x="92.341619" y="363.000019" style="stroke: #000000; stroke-width: 0.8"/>
       </g>
      </g>
     </g>
     <g id="xtick_10">
      <g id="line2d_18">
       <g>
        <use xlink:href="#m945b2066ad" x="161.358317" y="363.000019" style="stroke: #000000; stroke-width: 0.8"/>
       </g>
      </g>
     </g>
    </g>
    <g id="matplotlib.axis_6">
     <g id="ytick_8">
      <g id="line2d_19">
       <g>
        <use xlink:href="#m5b60b90e48" x="58.523438" y="356.017993" style="stroke: #000000; stroke-width: 0.8"/>
       </g>
      </g>
      <g id="text_16">
       <!-- −0.10 -->
       <g transform="translate(20.878125 359.817212) scale(0.1 -0.1)">
        <use xlink:href="#DejaVuSans-2212"/>
        <use xlink:href="#DejaVuSans-30" x="83.789062"/>
        <use xlink:href="#DejaVuSans-2e" x="147.412109"/>
        <use xlink:href="#DejaVuSans-31" x="179.199219"/>
        <use xlink:href="#DejaVuSans-30" x="242.822266"/>
       </g>
      </g>
     </g>
     <g id="ytick_9">
      <g id="line2d_20">
       <g>
        <use xlink:href="#m5b60b90e48" x="58.523438" y="331.121653" style="stroke: #000000; stroke-width: 0.8"/>
       </g>
      </g>
      <g id="text_17">
       <!-- −0.05 -->
       <g transform="translate(20.878125 334.920872) scale(0.1 -0.1)">
        <use xlink:href="#DejaVuSans-2212"/>
        <use xlink:href="#DejaVuSans-30" x="83.789062"/>
        <use xlink:href="#DejaVuSans-2e" x="147.412109"/>
        <use xlink:href="#DejaVuSans-30" x="179.199219"/>
        <use xlink:href="#DejaVuSans-35" x="242.822266"/>
       </g>
      </g>
     </g>
     <g id="ytick_10">
      <g id="line2d_21">
       <g>
        <use xlink:href="#m5b60b90e48" x="58.523438" y="306.225313" style="stroke: #000000; stroke-width: 0.8"/>
       </g>
      </g>
      <g id="text_18">
       <!-- 0.00 -->
       <g transform="translate(29.257812 310.024531) scale(0.1 -0.1)">
        <use xlink:href="#DejaVuSans-30"/>
        <use xlink:href="#DejaVuSans-2e" x="63.623047"/>
        <use xlink:href="#DejaVuSans-30" x="95.410156"/>
        <use xlink:href="#DejaVuSans-30" x="159.033203"/>
       </g>
      </g>
     </g>
     <g id="ytick_11">
      <g id="line2d_22">
       <g>
        <use xlink:href="#m5b60b90e48" x="58.523438" y="281.328972" style="stroke: #000000; stroke-width: 0.8"/>
       </g>
      </g>
      <g id="text_19">
       <!-- 0.05 -->
       <g transform="translate(29.257812 285.128191) scale(0.1 -0.1)">
        <use xlink:href="#DejaVuSans-30"/>
        <use xlink:href="#DejaVuSans-2e" x="63.623047"/>
        <use xlink:href="#DejaVuSans-30" x="95.410156"/>
        <use xlink:href="#DejaVuSans-35" x="159.033203"/>
       </g>
      </g>
     </g>
     <g id="ytick_12">
      <g id="line2d_23">
       <g>
        <use xlink:href="#m5b60b90e48" x="58.523438" y="256.432632" style="stroke: #000000; stroke-width: 0.8"/>
       </g>
      </g>
      <g id="text_20">
       <!-- 0.10 -->
       <g transform="translate(29.257812 260.231851) scale(0.1 -0.1)">
        <use xlink:href="#DejaVuSans-30"/>
        <use xlink:href="#DejaVuSans-2e" x="63.623047"/>
        <use xlink:href="#DejaVuSans-31" x="95.410156"/>
        <use xlink:href="#DejaVuSans-30" x="159.033203"/>
       </g>
      </g>
     </g>
     <g id="text_21">
      <!-- Shape function -->
      <g transform="translate(14.798437 345.888504) rotate(-90) scale(0.1 -0.1)">
       <use xlink:href="#DejaVuSans-53"/>
       <use xlink:href="#DejaVuSans-68" x="63.476562"/>
       <use xlink:href="#DejaVuSans-61" x="126.855469"/>
       <use xlink:href="#DejaVuSans-70" x="188.134766"/>
       <use xlink:href="#DejaVuSans-65" x="251.611328"/>
       <use xlink:href="#DejaVuSans-20" x="313.134766"/>
       <use xlink:href="#DejaVuSans-66" x="344.921875"/>
       <use xlink:href="#DejaVuSans-75" x="380.126953"/>
       <use xlink:href="#DejaVuSans-6e" x="443.505859"/>
       <use xlink:href="#DejaVuSans-63" x="506.884766"/>
       <use xlink:href="#DejaVuSans-74" x="561.865234"/>
       <use xlink:href="#DejaVuSans-69" x="601.074219"/>
       <use xlink:href="#DejaVuSans-6f" x="628.857422"/>
       <use xlink:href="#DejaVuSans-6e" x="690.039062"/>
      </g>
     </g>
    </g>
    <g id="patch_18">
     <path d="M 58.523438 363.000019 
L 58.523438 253.434801 
" style="fill: none; stroke: #000000; stroke-width: 0.8; stroke-linejoin: miter; stroke-linecap: square"/>
    </g>
    <g id="patch_19">
     <path d="M 195.176499 363.000019 
L 195.176499 253.434801 
" style="fill: none; stroke: #000000; stroke-width: 0.8; stroke-linejoin: miter; stroke-linecap: square"/>
    </g>
    <g id="patch_20">
     <path d="M 58.523437 363.000019 
L 195.176499 363.000019 
" style="fill: none; stroke: #000000; stroke-width: 0.8; stroke-linejoin: miter; stroke-linecap: square"/>
    </g>
    <g id="patch_21">
     <path d="M 58.523437 253.434801 
L 195.176499 253.434801 
" style="fill: none; stroke: #000000; stroke-width: 0.8; stroke-linejoin: miter; stroke-linecap: square"/>
    </g>
   </g>
   <g id="axes_4">
    <g id="patch_22">
     <path d="M 58.523438 404.634801 
L 195.176499 404.634801 
L 195.176499 382.721758 
L 58.523438 382.721758 
z
" style="fill: #ffffff"/>
    </g>
    <g id="patch_23">
     <path d="M 64.73494 404.634801 
L 119.948298 404.634801 
L 119.948298 383.765236 
L 64.73494 383.765236 
z
" clip-path="url(#pe5317d4414)" style="fill: #1f77b4"/>
    </g>
    <g id="patch_24">
     <path d="M 133.751638 404.634801 
L 188.964996 404.634801 
L 188.964996 385.370587 
L 133.751638 385.370587 
z
" clip-path="url(#pe5317d4414)" style="fill: #1f77b4"/>
    </g>
    <g id="matplotlib.axis_7">
     <g id="xtick_11">
      <g id="line2d_24">
       <g>
        <use xlink:href="#m945b2066ad" x="92.341619" y="404.634801" style="stroke: #000000; stroke-width: 0.8"/>
       </g>
      </g>
      <g id="text_22">
       <!-- 0 -->
       <g transform="translate(89.160369 419.233239) scale(0.1 -0.1)">
        <use xlink:href="#DejaVuSans-30"/>
       </g>
      </g>
     </g>
     <g id="xtick_12">
      <g id="line2d_25">
       <g>
        <use xlink:href="#m945b2066ad" x="161.358317" y="404.634801" style="stroke: #000000; stroke-width: 0.8"/>
       </g>
      </g>
      <g id="text_23">
       <!-- 1 -->
       <g transform="translate(158.177067 419.233239) scale(0.1 -0.1)">
        <use xlink:href="#DejaVuSans-31"/>
       </g>
      </g>
     </g>
     <g id="text_24">
      <!-- CYP -->
      <g transform="translate(117.377312 432.911364) scale(0.1 -0.1)">
       <defs>
        <path id="DejaVuSans-43" d="M 4122 4306 
L 4122 3641 
Q 3803 3938 3442 4084 
Q 3081 4231 2675 4231 
Q 1875 4231 1450 3742 
Q 1025 3253 1025 2328 
Q 1025 1406 1450 917 
Q 1875 428 2675 428 
Q 3081 428 3442 575 
Q 3803 722 4122 1019 
L 4122 359 
Q 3791 134 3420 21 
Q 3050 -91 2638 -91 
Q 1578 -91 968 557 
Q 359 1206 359 2328 
Q 359 3453 968 4101 
Q 1578 4750 2638 4750 
Q 3056 4750 3426 4639 
Q 3797 4528 4122 4306 
z
" transform="scale(0.015625)"/>
        <path id="DejaVuSans-59" d="M -13 4666 
L 666 4666 
L 1959 2747 
L 3244 4666 
L 3922 4666 
L 2272 2222 
L 2272 0 
L 1638 0 
L 1638 2222 
L -13 4666 
z
" transform="scale(0.015625)"/>
        <path id="DejaVuSans-50" d="M 1259 4147 
L 1259 2394 
L 2053 2394 
Q 2494 2394 2734 2622 
Q 2975 2850 2975 3272 
Q 2975 3691 2734 3919 
Q 2494 4147 2053 4147 
L 1259 4147 
z
M 628 4666 
L 2053 4666 
Q 2838 4666 3239 4311 
Q 3641 3956 3641 3272 
Q 3641 2581 3239 2228 
Q 2838 1875 2053 1875 
L 1259 1875 
L 1259 0 
L 628 0 
L 628 4666 
z
" transform="scale(0.015625)"/>
       </defs>
       <use xlink:href="#DejaVuSans-43"/>
       <use xlink:href="#DejaVuSans-59" x="68.074219"/>
       <use xlink:href="#DejaVuSans-50" x="129.158203"/>
      </g>
     </g>
    </g>
    <g id="matplotlib.axis_8">
     <g id="ytick_13">
      <g id="line2d_26">
       <g>
        <use xlink:href="#m5b60b90e48" x="58.523438" y="404.634801" style="stroke: #000000; stroke-width: 0.8"/>
       </g>
      </g>
      <g id="text_25">
       <!-- 0 -->
       <g transform="translate(45.160938 408.43402) scale(0.1 -0.1)">
        <use xlink:href="#DejaVuSans-30"/>
       </g>
      </g>
     </g>
     <g id="ytick_14">
      <g id="line2d_27">
       <g>
        <use xlink:href="#m5b60b90e48" x="58.523438" y="391.256875" style="stroke: #000000; stroke-width: 0.8"/>
       </g>
      </g>
      <g id="text_26">
       <!-- 25 -->
       <g transform="translate(38.798437 395.056093) scale(0.1 -0.1)">
        <use xlink:href="#DejaVuSans-32"/>
        <use xlink:href="#DejaVuSans-35" x="63.623047"/>
       </g>
      </g>
     </g>
     <g id="text_27">
      <!-- Frequency -->
      <g transform="translate(32.71875 419.507967) rotate(-90) scale(0.1 -0.1)">
       <use xlink:href="#DejaVuSans-46"/>
       <use xlink:href="#DejaVuSans-72" x="50.269531"/>
       <use xlink:href="#DejaVuSans-65" x="89.132812"/>
       <use xlink:href="#DejaVuSans-71" x="150.65625"/>
       <use xlink:href="#DejaVuSans-75" x="214.132812"/>
       <use xlink:href="#DejaVuSans-65" x="277.511719"/>
       <use xlink:href="#DejaVuSans-6e" x="339.035156"/>
       <use xlink:href="#DejaVuSans-63" x="402.414062"/>
       <use xlink:href="#DejaVuSans-79" x="457.394531"/>
      </g>
     </g>
    </g>
    <g id="patch_25">
     <path d="M 58.523438 404.634801 
L 58.523438 382.721758 
" style="fill: none; stroke: #000000; stroke-width: 0.8; stroke-linejoin: miter; stroke-linecap: square"/>
    </g>
    <g id="patch_26">
     <path d="M 195.176499 404.634801 
L 195.176499 382.721758 
" style="fill: none; stroke: #000000; stroke-width: 0.8; stroke-linejoin: miter; stroke-linecap: square"/>
    </g>
    <g id="patch_27">
     <path d="M 58.523437 404.634801 
L 195.176499 404.634801 
" style="fill: none; stroke: #000000; stroke-width: 0.8; stroke-linejoin: miter; stroke-linecap: square"/>
    </g>
    <g id="patch_28">
     <path d="M 58.523437 382.721758 
L 195.176499 382.721758 
" style="fill: none; stroke: #000000; stroke-width: 0.8; stroke-linejoin: miter; stroke-linecap: square"/>
    </g>
   </g>
  </g>
  <g id="subfigure_3">
   <g id="patch_29">
    <path d="M 265.707111 190.598437 
L 442.033642 190.598437 
L 442.033642 -1 
M 265.707111 -1 
L 265.707111 190.598437 
" style="fill: none"/>
   </g>
   <g id="axes_5">
    <g id="patch_30">
     <path d="M 287.747927 127.363655 
L 424.400989 127.363655 
L 424.400989 17.798437 
L 287.747927 17.798437 
z
" style="fill: #ffffff"/>
    </g>
    <g id="matplotlib.axis_9">
     <g id="xtick_13">
      <g id="line2d_28">
       <g>
        <use xlink:href="#m945b2066ad" x="308.306426" y="127.363655" style="stroke: #000000; stroke-width: 0.8"/>
       </g>
      </g>
     </g>
     <g id="xtick_14">
      <g id="line2d_29">
       <g>
        <use xlink:href="#m945b2066ad" x="349.771731" y="127.363655" style="stroke: #000000; stroke-width: 0.8"/>
       </g>
      </g>
     </g>
     <g id="xtick_15">
      <g id="line2d_30">
       <g>
        <use xlink:href="#m945b2066ad" x="391.237037" y="127.363655" style="stroke: #000000; stroke-width: 0.8"/>
       </g>
      </g>
     </g>
    </g>
    <g id="matplotlib.axis_10">
     <g id="ytick_15">
      <g id="line2d_31">
       <g>
        <use xlink:href="#m5b60b90e48" x="287.747927" y="111.185897" style="stroke: #000000; stroke-width: 0.8"/>
       </g>
      </g>
      <g id="text_28">
       <!-- −0.25 -->
       <g transform="translate(250.102615 114.985116) scale(0.1 -0.1)">
        <use xlink:href="#DejaVuSans-2212"/>
        <use xlink:href="#DejaVuSans-30" x="83.789062"/>
        <use xlink:href="#DejaVuSans-2e" x="147.412109"/>
        <use xlink:href="#DejaVuSans-32" x="179.199219"/>
        <use xlink:href="#DejaVuSans-35" x="242.822266"/>
       </g>
      </g>
     </g>
     <g id="ytick_16">
      <g id="line2d_32">
       <g>
        <use xlink:href="#m5b60b90e48" x="287.747927" y="85.287359" style="stroke: #000000; stroke-width: 0.8"/>
       </g>
      </g>
      <g id="text_29">
       <!-- 0.00 -->
       <g transform="translate(258.482302 89.086578) scale(0.1 -0.1)">
        <use xlink:href="#DejaVuSans-30"/>
        <use xlink:href="#DejaVuSans-2e" x="63.623047"/>
        <use xlink:href="#DejaVuSans-30" x="95.410156"/>
        <use xlink:href="#DejaVuSans-30" x="159.033203"/>
       </g>
      </g>
     </g>
     <g id="ytick_17">
      <g id="line2d_33">
       <g>
        <use xlink:href="#m5b60b90e48" x="287.747927" y="59.388822" style="stroke: #000000; stroke-width: 0.8"/>
       </g>
      </g>
      <g id="text_30">
       <!-- 0.25 -->
       <g transform="translate(258.482302 63.188041) scale(0.1 -0.1)">
        <use xlink:href="#DejaVuSans-30"/>
        <use xlink:href="#DejaVuSans-2e" x="63.623047"/>
        <use xlink:href="#DejaVuSans-32" x="95.410156"/>
        <use xlink:href="#DejaVuSans-35" x="159.033203"/>
       </g>
      </g>
     </g>
     <g id="ytick_18">
      <g id="line2d_34">
       <g>
        <use xlink:href="#m5b60b90e48" x="287.747927" y="33.490284" style="stroke: #000000; stroke-width: 0.8"/>
       </g>
      </g>
      <g id="text_31">
       <!-- 0.50 -->
       <g transform="translate(258.482302 37.289503) scale(0.1 -0.1)">
        <use xlink:href="#DejaVuSans-30"/>
        <use xlink:href="#DejaVuSans-2e" x="63.623047"/>
        <use xlink:href="#DejaVuSans-35" x="95.410156"/>
        <use xlink:href="#DejaVuSans-30" x="159.033203"/>
       </g>
      </g>
     </g>
     <g id="text_32">
      <!-- Shape function -->
      <g transform="translate(244.022927 110.25214) rotate(-90) scale(0.1 -0.1)">
       <use xlink:href="#DejaVuSans-53"/>
       <use xlink:href="#DejaVuSans-68" x="63.476562"/>
       <use xlink:href="#DejaVuSans-61" x="126.855469"/>
       <use xlink:href="#DejaVuSans-70" x="188.134766"/>
       <use xlink:href="#DejaVuSans-65" x="251.611328"/>
       <use xlink:href="#DejaVuSans-20" x="313.134766"/>
       <use xlink:href="#DejaVuSans-66" x="344.921875"/>
       <use xlink:href="#DejaVuSans-75" x="380.126953"/>
       <use xlink:href="#DejaVuSans-6e" x="443.505859"/>
       <use xlink:href="#DejaVuSans-63" x="506.884766"/>
       <use xlink:href="#DejaVuSans-74" x="561.865234"/>
       <use xlink:href="#DejaVuSans-69" x="601.074219"/>
       <use xlink:href="#DejaVuSans-6f" x="628.857422"/>
       <use xlink:href="#DejaVuSans-6e" x="690.039062"/>
      </g>
     </g>
    </g>
    <g id="line2d_35">
     <path d="M 293.95943 122.383418 
L 295.214279 121.517065 
L 296.469128 120.610275 
L 297.723977 119.66383 
L 298.978826 118.678318 
L 300.233675 117.654144 
L 301.488524 116.591538 
L 302.743373 115.490599 
L 303.998222 114.35131 
L 305.253072 113.173546 
L 306.507921 111.957107 
L 307.76277 110.701715 
L 309.017619 109.407079 
L 310.272468 108.072839 
L 311.527317 106.698661 
L 312.782166 105.284206 
L 314.037015 103.829152 
L 315.291864 102.333246 
L 316.546713 100.796298 
L 317.801562 99.2182 
L 319.056411 97.598955 
L 320.31126 95.93871 
L 321.566109 94.237761 
L 322.820958 92.49656 
L 324.075807 90.715772 
L 325.330656 88.8963 
L 326.585505 87.039243 
L 327.840354 85.145996 
L 329.095203 83.218201 
L 330.350052 81.257804 
L 331.604901 79.267077 
L 332.859751 77.248589 
L 334.1146 75.205235 
L 335.369449 73.140257 
L 336.624298 71.057262 
L 337.879147 68.960157 
L 339.133996 66.853216 
L 340.388845 64.741045 
L 341.643694 62.628584 
L 342.898543 60.521063 
L 344.153392 58.424045 
L 345.408241 56.343328 
L 346.66309 54.284988 
L 347.917939 52.255348 
L 349.172788 50.260873 
L 350.427637 48.308262 
L 351.682486 46.404283 
L 352.937335 44.555864 
L 354.192184 42.769933 
L 355.447033 41.053443 
L 356.701882 39.41321 
L 357.956731 37.853186 
L 359.211581 36.374347 
L 360.46643 34.9772 
L 361.721279 33.661978 
L 362.976128 32.428583 
L 364.230977 31.276682 
L 365.485826 30.205694 
L 366.740675 29.214717 
L 367.995524 28.302727 
L 369.250373 27.468354 
L 370.505222 26.710114 
L 371.760071 26.026316 
L 373.01492 25.415071 
L 374.269769 24.874328 
L 375.524618 24.401915 
L 376.779467 23.995472 
L 378.034316 23.652567 
L 379.289165 23.370605 
L 380.544014 23.146921 
L 381.798863 22.978747 
L 383.053712 22.863268 
L 384.308561 22.797569 
L 385.563411 22.778675 
L 386.81826 22.80362 
L 388.073109 22.869356 
L 389.327958 22.972819 
L 390.582807 23.110984 
L 391.837656 23.280788 
L 393.092505 23.479169 
L 394.347354 23.703113 
L 395.602203 23.949656 
L 396.857052 24.215822 
L 398.111901 24.498697 
L 399.36675 24.795477 
L 400.621599 25.103385 
L 401.876448 25.419702 
L 403.131297 25.741848 
L 404.386146 26.067279 
L 405.640995 26.393574 
L 406.895844 26.718413 
L 408.150693 27.039558 
L 409.405542 27.354912 
L 410.660391 27.662461 
L 411.915241 27.960365 
L 413.17009 28.246809 
L 414.424939 28.5202 
L 415.679788 28.778994 
L 416.934637 29.021783 
L 418.189486 29.247307 
" clip-path="url(#p7191a4bd35)" style="fill: none; stroke: #1f77b4; stroke-width: 1.5; stroke-linecap: square"/>
    </g>
    <g id="patch_31">
     <path d="M 287.747927 127.363655 
L 287.747927 17.798437 
" style="fill: none; stroke: #000000; stroke-width: 0.8; stroke-linejoin: miter; stroke-linecap: square"/>
    </g>
    <g id="patch_32">
     <path d="M 424.400989 127.363655 
L 424.400989 17.798437 
" style="fill: none; stroke: #000000; stroke-width: 0.8; stroke-linejoin: miter; stroke-linecap: square"/>
    </g>
    <g id="patch_33">
     <path d="M 287.747927 127.363655 
L 424.400989 127.363655 
" style="fill: none; stroke: #000000; stroke-width: 0.8; stroke-linejoin: miter; stroke-linecap: square"/>
    </g>
    <g id="patch_34">
     <path d="M 287.747927 17.798437 
L 424.400989 17.798437 
" style="fill: none; stroke: #000000; stroke-width: 0.8; stroke-linejoin: miter; stroke-linecap: square"/>
    </g>
   </g>
   <g id="axes_6">
    <g id="patch_35">
     <path d="M 287.747927 168.998437 
L 424.400989 168.998437 
L 424.400989 147.085394 
L 287.747927 147.085394 
z
" style="fill: #ffffff"/>
    </g>
    <g id="patch_36">
     <path d="M 293.95943 168.998437 
L 293.95943 164.526388 
L 300.170933 164.526388 
L 300.170933 155.582288 
L 306.382436 155.582288 
L 306.382436 158.563655 
L 312.593938 158.563655 
L 312.593938 148.128872 
L 318.805441 148.128872 
L 318.805441 158.563655 
L 325.016944 158.563655 
L 325.016944 157.072972 
L 331.228447 157.072972 
L 331.228447 155.582288 
L 337.43995 155.582288 
L 337.43995 161.545021 
L 343.651452 161.545021 
L 343.651452 164.526388 
L 349.862955 164.526388 
L 349.862955 166.017071 
L 356.074458 166.017071 
L 356.074458 166.017071 
L 362.285961 166.017071 
L 362.285961 166.017071 
L 368.497463 166.017071 
L 368.497463 168.998437 
L 374.708966 168.998437 
L 374.708966 167.507754 
L 380.920469 167.507754 
L 380.920469 166.017071 
L 387.131972 166.017071 
L 387.131972 168.998437 
L 393.343475 168.998437 
L 393.343475 168.998437 
L 399.554977 168.998437 
L 399.554977 168.998437 
L 405.76648 168.998437 
L 405.76648 168.998437 
L 411.977983 168.998437 
L 411.977983 167.507754 
L 418.189486 167.507754 
L 418.189486 168.998437 
" clip-path="url(#pc79c17c165)" style="fill: #1f77b4"/>
    </g>
    <g id="matplotlib.axis_11">
     <g id="xtick_16">
      <g id="line2d_36">
       <g>
        <use xlink:href="#m945b2066ad" x="308.306426" y="168.998437" style="stroke: #000000; stroke-width: 0.8"/>
       </g>
      </g>
      <g id="text_33">
       <!-- 0.25 -->
       <g transform="translate(297.173613 183.596875) scale(0.1 -0.1)">
        <use xlink:href="#DejaVuSans-30"/>
        <use xlink:href="#DejaVuSans-2e" x="63.623047"/>
        <use xlink:href="#DejaVuSans-32" x="95.410156"/>
        <use xlink:href="#DejaVuSans-35" x="159.033203"/>
       </g>
      </g>
     </g>
     <g id="xtick_17">
      <g id="line2d_37">
       <g>
        <use xlink:href="#m945b2066ad" x="349.771731" y="168.998437" style="stroke: #000000; stroke-width: 0.8"/>
       </g>
      </g>
      <g id="text_34">
       <!-- 0.50 -->
       <g transform="translate(338.638919 183.596875) scale(0.1 -0.1)">
        <use xlink:href="#DejaVuSans-30"/>
        <use xlink:href="#DejaVuSans-2e" x="63.623047"/>
        <use xlink:href="#DejaVuSans-35" x="95.410156"/>
        <use xlink:href="#DejaVuSans-30" x="159.033203"/>
       </g>
      </g>
     </g>
     <g id="xtick_18">
      <g id="line2d_38">
       <g>
        <use xlink:href="#m945b2066ad" x="391.237037" y="168.998437" style="stroke: #000000; stroke-width: 0.8"/>
       </g>
      </g>
      <g id="text_35">
       <!-- 0.75 -->
       <g transform="translate(380.104225 183.596875) scale(0.1 -0.1)">
        <use xlink:href="#DejaVuSans-30"/>
        <use xlink:href="#DejaVuSans-2e" x="63.623047"/>
        <use xlink:href="#DejaVuSans-37" x="95.410156"/>
        <use xlink:href="#DejaVuSans-35" x="159.033203"/>
       </g>
      </g>
     </g>
     <g id="text_36">
      <!-- DV_0 -->
      <g transform="translate(343.210395 197.098437) scale(0.1 -0.1)">
       <defs>
        <path id="DejaVuSans-56" d="M 1831 0 
L 50 4666 
L 709 4666 
L 2188 738 
L 3669 4666 
L 4325 4666 
L 2547 0 
L 1831 0 
z
" transform="scale(0.015625)"/>
        <path id="DejaVuSans-5f" d="M 3263 -1063 
L 3263 -1509 
L -63 -1509 
L -63 -1063 
L 3263 -1063 
z
" transform="scale(0.015625)"/>
       </defs>
       <use xlink:href="#DejaVuSans-44"/>
       <use xlink:href="#DejaVuSans-56" x="75.251953"/>
       <use xlink:href="#DejaVuSans-5f" x="143.660156"/>
       <use xlink:href="#DejaVuSans-30" x="193.660156"/>
      </g>
     </g>
    </g>
    <g id="matplotlib.axis_12">
     <g id="ytick_19">
      <g id="line2d_39">
       <g>
        <use xlink:href="#m5b60b90e48" x="287.747927" y="168.998437" style="stroke: #000000; stroke-width: 0.8"/>
       </g>
      </g>
      <g id="text_37">
       <!-- 0 -->
       <g transform="translate(274.385427 172.797656) scale(0.1 -0.1)">
        <use xlink:href="#DejaVuSans-30"/>
       </g>
      </g>
     </g>
     <g id="ytick_20">
      <g id="line2d_40">
       <g>
        <use xlink:href="#m5b60b90e48" x="287.747927" y="154.091605" style="stroke: #000000; stroke-width: 0.8"/>
       </g>
      </g>
      <g id="text_38">
       <!-- 10 -->
       <g transform="translate(268.022927 157.890824) scale(0.1 -0.1)">
        <use xlink:href="#DejaVuSans-31"/>
        <use xlink:href="#DejaVuSans-30" x="63.623047"/>
       </g>
      </g>
     </g>
     <g id="text_39">
      <!-- Frequency -->
      <g transform="translate(261.94324 183.871603) rotate(-90) scale(0.1 -0.1)">
       <use xlink:href="#DejaVuSans-46"/>
       <use xlink:href="#DejaVuSans-72" x="50.269531"/>
       <use xlink:href="#DejaVuSans-65" x="89.132812"/>
       <use xlink:href="#DejaVuSans-71" x="150.65625"/>
       <use xlink:href="#DejaVuSans-75" x="214.132812"/>
       <use xlink:href="#DejaVuSans-65" x="277.511719"/>
       <use xlink:href="#DejaVuSans-6e" x="339.035156"/>
       <use xlink:href="#DejaVuSans-63" x="402.414062"/>
       <use xlink:href="#DejaVuSans-79" x="457.394531"/>
      </g>
     </g>
    </g>
    <g id="patch_37">
     <path d="M 287.747927 168.998437 
L 287.747927 147.085394 
" style="fill: none; stroke: #000000; stroke-width: 0.8; stroke-linejoin: miter; stroke-linecap: square"/>
    </g>
    <g id="patch_38">
     <path d="M 424.400989 168.998437 
L 424.400989 147.085394 
" style="fill: none; stroke: #000000; stroke-width: 0.8; stroke-linejoin: miter; stroke-linecap: square"/>
    </g>
    <g id="patch_39">
     <path d="M 287.747927 168.998437 
L 424.400989 168.998437 
" style="fill: none; stroke: #000000; stroke-width: 0.8; stroke-linejoin: miter; stroke-linecap: square"/>
    </g>
    <g id="patch_40">
     <path d="M 287.747927 147.085394 
L 424.400989 147.085394 
" style="fill: none; stroke: #000000; stroke-width: 0.8; stroke-linejoin: miter; stroke-linecap: square"/>
    </g>
   </g>
  </g>
  <g id="subfigure_4">
   <g id="patch_41">
    <path d="M 265.707111 426.234801 
L 442.033642 426.234801 
L 442.033642 229.871165 
L 265.707111 229.871165 
L 265.707111 426.234801 
z
" style="fill: none"/>
   </g>
   <g id="axes_7">
    <g id="patch_42">
     <path d="M 287.747927 363.000019 
L 424.400989 363.000019 
L 424.400989 253.434801 
L 287.747927 253.434801 
z
" style="fill: #ffffff"/>
    </g>
    <g id="patch_43">
     <path d="M 293.95943 306.225315 
L 349.172788 306.225315 
L 349.172788 258.415038 
L 293.95943 258.415038 
z
" clip-path="url(#p2c7956c9ce)" style="fill: #1f77b4"/>
    </g>
    <g id="patch_44">
     <path d="M 362.976128 306.225315 
L 418.189486 306.225315 
L 418.189486 358.019781 
L 362.976128 358.019781 
z
" clip-path="url(#p2c7956c9ce)" style="fill: #1f77b4"/>
    </g>
    <g id="matplotlib.axis_13">
     <g id="xtick_19">
      <g id="line2d_41">
       <g>
        <use xlink:href="#m945b2066ad" x="321.566109" y="363.000019" style="stroke: #000000; stroke-width: 0.8"/>
       </g>
      </g>
     </g>
     <g id="xtick_20">
      <g id="line2d_42">
       <g>
        <use xlink:href="#m945b2066ad" x="390.582807" y="363.000019" style="stroke: #000000; stroke-width: 0.8"/>
       </g>
      </g>
     </g>
    </g>
    <g id="matplotlib.axis_14">
     <g id="ytick_21">
      <g id="line2d_43">
       <g>
        <use xlink:href="#m5b60b90e48" x="287.747927" y="337.068511" style="stroke: #000000; stroke-width: 0.8"/>
       </g>
      </g>
      <g id="text_40">
       <!-- −0.05 -->
       <g transform="translate(250.102615 340.86773) scale(0.1 -0.1)">
        <use xlink:href="#DejaVuSans-2212"/>
        <use xlink:href="#DejaVuSans-30" x="83.789062"/>
        <use xlink:href="#DejaVuSans-2e" x="147.412109"/>
        <use xlink:href="#DejaVuSans-30" x="179.199219"/>
        <use xlink:href="#DejaVuSans-35" x="242.822266"/>
       </g>
      </g>
     </g>
     <g id="ytick_22">
      <g id="line2d_44">
       <g>
        <use xlink:href="#m5b60b90e48" x="287.747927" y="306.225315" style="stroke: #000000; stroke-width: 0.8"/>
       </g>
      </g>
      <g id="text_41">
       <!-- 0.00 -->
       <g transform="translate(258.482302 310.024534) scale(0.1 -0.1)">
        <use xlink:href="#DejaVuSans-30"/>
        <use xlink:href="#DejaVuSans-2e" x="63.623047"/>
        <use xlink:href="#DejaVuSans-30" x="95.410156"/>
        <use xlink:href="#DejaVuSans-30" x="159.033203"/>
       </g>
      </g>
     </g>
     <g id="ytick_23">
      <g id="line2d_45">
       <g>
        <use xlink:href="#m5b60b90e48" x="287.747927" y="275.382119" style="stroke: #000000; stroke-width: 0.8"/>
       </g>
      </g>
      <g id="text_42">
       <!-- 0.05 -->
       <g transform="translate(258.482302 279.181338) scale(0.1 -0.1)">
        <use xlink:href="#DejaVuSans-30"/>
        <use xlink:href="#DejaVuSans-2e" x="63.623047"/>
        <use xlink:href="#DejaVuSans-30" x="95.410156"/>
        <use xlink:href="#DejaVuSans-35" x="159.033203"/>
       </g>
      </g>
     </g>
     <g id="text_43">
      <!-- Shape function -->
      <g transform="translate(244.022927 345.888504) rotate(-90) scale(0.1 -0.1)">
       <use xlink:href="#DejaVuSans-53"/>
       <use xlink:href="#DejaVuSans-68" x="63.476562"/>
       <use xlink:href="#DejaVuSans-61" x="126.855469"/>
       <use xlink:href="#DejaVuSans-70" x="188.134766"/>
       <use xlink:href="#DejaVuSans-65" x="251.611328"/>
       <use xlink:href="#DejaVuSans-20" x="313.134766"/>
       <use xlink:href="#DejaVuSans-66" x="344.921875"/>
       <use xlink:href="#DejaVuSans-75" x="380.126953"/>
       <use xlink:href="#DejaVuSans-6e" x="443.505859"/>
       <use xlink:href="#DejaVuSans-63" x="506.884766"/>
       <use xlink:href="#DejaVuSans-74" x="561.865234"/>
       <use xlink:href="#DejaVuSans-69" x="601.074219"/>
       <use xlink:href="#DejaVuSans-6f" x="628.857422"/>
       <use xlink:href="#DejaVuSans-6e" x="690.039062"/>
      </g>
     </g>
    </g>
    <g id="patch_45">
     <path d="M 287.747927 363.000019 
L 287.747927 253.434801 
" style="fill: none; stroke: #000000; stroke-width: 0.8; stroke-linejoin: miter; stroke-linecap: square"/>
    </g>
    <g id="patch_46">
     <path d="M 424.400989 363.000019 
L 424.400989 253.434801 
" style="fill: none; stroke: #000000; stroke-width: 0.8; stroke-linejoin: miter; stroke-linecap: square"/>
    </g>
    <g id="patch_47">
     <path d="M 287.747927 363.000019 
L 424.400989 363.000019 
" style="fill: none; stroke: #000000; stroke-width: 0.8; stroke-linejoin: miter; stroke-linecap: square"/>
    </g>
    <g id="patch_48">
     <path d="M 287.747927 253.434801 
L 424.400989 253.434801 
" style="fill: none; stroke: #000000; stroke-width: 0.8; stroke-linejoin: miter; stroke-linecap: square"/>
    </g>
   </g>
   <g id="axes_8">
    <g id="patch_49">
     <path d="M 287.747927 404.634801 
L 424.400989 404.634801 
L 424.400989 382.721758 
L 287.747927 382.721758 
z
" style="fill: #ffffff"/>
    </g>
    <g id="patch_50">
     <path d="M 293.95943 404.634801 
L 349.172788 404.634801 
L 349.172788 383.765236 
L 293.95943 383.765236 
z
" clip-path="url(#pb6255c2b51)" style="fill: #1f77b4"/>
    </g>
    <g id="patch_51">
     <path d="M 362.976128 404.634801 
L 418.189486 404.634801 
L 418.189486 385.370587 
L 362.976128 385.370587 
z
" clip-path="url(#pb6255c2b51)" style="fill: #1f77b4"/>
    </g>
    <g id="matplotlib.axis_15">
     <g id="xtick_21">
      <g id="line2d_46">
       <g>
        <use xlink:href="#m945b2066ad" x="321.566109" y="404.634801" style="stroke: #000000; stroke-width: 0.8"/>
       </g>
      </g>
      <g id="text_44">
       <!-- 0 -->
       <g transform="translate(318.384859 419.233239) scale(0.1 -0.1)">
        <use xlink:href="#DejaVuSans-30"/>
       </g>
      </g>
     </g>
     <g id="xtick_22">
      <g id="line2d_47">
       <g>
        <use xlink:href="#m945b2066ad" x="390.582807" y="404.634801" style="stroke: #000000; stroke-width: 0.8"/>
       </g>
      </g>
      <g id="text_45">
       <!-- 1 -->
       <g transform="translate(387.401557 419.233239) scale(0.1 -0.1)">
        <use xlink:href="#DejaVuSans-31"/>
       </g>
      </g>
     </g>
     <g id="text_46">
      <!-- FORM -->
      <g transform="translate(341.474458 432.911364) scale(0.1 -0.1)">
       <defs>
        <path id="DejaVuSans-52" d="M 2841 2188 
Q 3044 2119 3236 1894 
Q 3428 1669 3622 1275 
L 4263 0 
L 3584 0 
L 2988 1197 
Q 2756 1666 2539 1819 
Q 2322 1972 1947 1972 
L 1259 1972 
L 1259 0 
L 628 0 
L 628 4666 
L 2053 4666 
Q 2853 4666 3247 4331 
Q 3641 3997 3641 3322 
Q 3641 2881 3436 2590 
Q 3231 2300 2841 2188 
z
M 1259 4147 
L 1259 2491 
L 2053 2491 
Q 2509 2491 2742 2702 
Q 2975 2913 2975 3322 
Q 2975 3731 2742 3939 
Q 2509 4147 2053 4147 
L 1259 4147 
z
" transform="scale(0.015625)"/>
        <path id="DejaVuSans-4d" d="M 628 4666 
L 1569 4666 
L 2759 1491 
L 3956 4666 
L 4897 4666 
L 4897 0 
L 4281 0 
L 4281 4097 
L 3078 897 
L 2444 897 
L 1241 4097 
L 1241 0 
L 628 0 
L 628 4666 
z
" transform="scale(0.015625)"/>
       </defs>
       <use xlink:href="#DejaVuSans-46"/>
       <use xlink:href="#DejaVuSans-4f" x="57.519531"/>
       <use xlink:href="#DejaVuSans-52" x="136.230469"/>
       <use xlink:href="#DejaVuSans-4d" x="205.712891"/>
      </g>
     </g>
    </g>
    <g id="matplotlib.axis_16">
     <g id="ytick_24">
      <g id="line2d_48">
       <g>
        <use xlink:href="#m5b60b90e48" x="287.747927" y="404.634801" style="stroke: #000000; stroke-width: 0.8"/>
       </g>
      </g>
      <g id="text_47">
       <!-- 0 -->
       <g transform="translate(274.385427 408.43402) scale(0.1 -0.1)">
        <use xlink:href="#DejaVuSans-30"/>
       </g>
      </g>
     </g>
     <g id="ytick_25">
      <g id="line2d_49">
       <g>
        <use xlink:href="#m5b60b90e48" x="287.747927" y="391.256875" style="stroke: #000000; stroke-width: 0.8"/>
       </g>
      </g>
      <g id="text_48">
       <!-- 25 -->
       <g transform="translate(268.022927 395.056093) scale(0.1 -0.1)">
        <use xlink:href="#DejaVuSans-32"/>
        <use xlink:href="#DejaVuSans-35" x="63.623047"/>
       </g>
      </g>
     </g>
     <g id="text_49">
      <!-- Frequency -->
      <g transform="translate(261.94324 419.507967) rotate(-90) scale(0.1 -0.1)">
       <use xlink:href="#DejaVuSans-46"/>
       <use xlink:href="#DejaVuSans-72" x="50.269531"/>
       <use xlink:href="#DejaVuSans-65" x="89.132812"/>
       <use xlink:href="#DejaVuSans-71" x="150.65625"/>
       <use xlink:href="#DejaVuSans-75" x="214.132812"/>
       <use xlink:href="#DejaVuSans-65" x="277.511719"/>
       <use xlink:href="#DejaVuSans-6e" x="339.035156"/>
       <use xlink:href="#DejaVuSans-63" x="402.414062"/>
       <use xlink:href="#DejaVuSans-79" x="457.394531"/>
      </g>
     </g>
    </g>
    <g id="patch_52">
     <path d="M 287.747927 404.634801 
L 287.747927 382.721758 
" style="fill: none; stroke: #000000; stroke-width: 0.8; stroke-linejoin: miter; stroke-linecap: square"/>
    </g>
    <g id="patch_53">
     <path d="M 424.400989 404.634801 
L 424.400989 382.721758 
" style="fill: none; stroke: #000000; stroke-width: 0.8; stroke-linejoin: miter; stroke-linecap: square"/>
    </g>
    <g id="patch_54">
     <path d="M 287.747927 404.634801 
L 424.400989 404.634801 
" style="fill: none; stroke: #000000; stroke-width: 0.8; stroke-linejoin: miter; stroke-linecap: square"/>
    </g>
    <g id="patch_55">
     <path d="M 287.747927 382.721758 
L 424.400989 382.721758 
" style="fill: none; stroke: #000000; stroke-width: 0.8; stroke-linejoin: miter; stroke-linecap: square"/>
    </g>
   </g>
  </g>
  <g id="subfigure_5">
   <g id="patch_56">
    <path d="M 494.931601 190.598437 
L 671.258131 190.598437 
L 671.258131 -1 
M 494.931601 -1 
L 494.931601 190.598437 
" style="fill: none"/>
   </g>
   <g id="axes_9">
    <g id="patch_57">
     <path d="M 516.972417 127.363655 
L 653.625478 127.363655 
L 653.625478 17.798437 
L 516.972417 17.798437 
z
" style="fill: #ffffff"/>
    </g>
    <g id="patch_58">
     <path d="M 523.18392 74.57314 
L 578.397278 74.57314 
L 578.397278 122.383418 
L 523.18392 122.383418 
z
" clip-path="url(#pf1369ba05a)" style="fill: #1f77b4"/>
    </g>
    <g id="patch_59">
     <path d="M 592.200617 74.57314 
L 647.413976 74.57314 
L 647.413976 22.778675 
L 592.200617 22.778675 
z
" clip-path="url(#pf1369ba05a)" style="fill: #1f77b4"/>
    </g>
    <g id="matplotlib.axis_17">
     <g id="xtick_23">
      <g id="line2d_50">
       <g>
        <use xlink:href="#m945b2066ad" x="550.790599" y="127.363655" style="stroke: #000000; stroke-width: 0.8"/>
       </g>
      </g>
     </g>
     <g id="xtick_24">
      <g id="line2d_51">
       <g>
        <use xlink:href="#m945b2066ad" x="619.807296" y="127.363655" style="stroke: #000000; stroke-width: 0.8"/>
       </g>
      </g>
     </g>
    </g>
    <g id="matplotlib.axis_18">
     <g id="ytick_26">
      <g id="line2d_52">
       <g>
        <use xlink:href="#m5b60b90e48" x="516.972417" y="123.736758" style="stroke: #000000; stroke-width: 0.8"/>
       </g>
      </g>
      <g id="text_50">
       <!-- −0.10 -->
       <g transform="translate(479.327105 127.535977) scale(0.1 -0.1)">
        <use xlink:href="#DejaVuSans-2212"/>
        <use xlink:href="#DejaVuSans-30" x="83.789062"/>
        <use xlink:href="#DejaVuSans-2e" x="147.412109"/>
        <use xlink:href="#DejaVuSans-31" x="179.199219"/>
        <use xlink:href="#DejaVuSans-30" x="242.822266"/>
       </g>
      </g>
     </g>
     <g id="ytick_27">
      <g id="line2d_53">
       <g>
        <use xlink:href="#m5b60b90e48" x="516.972417" y="99.154949" style="stroke: #000000; stroke-width: 0.8"/>
       </g>
      </g>
      <g id="text_51">
       <!-- −0.05 -->
       <g transform="translate(479.327105 102.954168) scale(0.1 -0.1)">
        <use xlink:href="#DejaVuSans-2212"/>
        <use xlink:href="#DejaVuSans-30" x="83.789062"/>
        <use xlink:href="#DejaVuSans-2e" x="147.412109"/>
        <use xlink:href="#DejaVuSans-30" x="179.199219"/>
        <use xlink:href="#DejaVuSans-35" x="242.822266"/>
       </g>
      </g>
     </g>
     <g id="ytick_28">
      <g id="line2d_54">
       <g>
        <use xlink:href="#m5b60b90e48" x="516.972417" y="74.57314" style="stroke: #000000; stroke-width: 0.8"/>
       </g>
      </g>
      <g id="text_52">
       <!-- 0.00 -->
       <g transform="translate(487.706792 78.372359) scale(0.1 -0.1)">
        <use xlink:href="#DejaVuSans-30"/>
        <use xlink:href="#DejaVuSans-2e" x="63.623047"/>
        <use xlink:href="#DejaVuSans-30" x="95.410156"/>
        <use xlink:href="#DejaVuSans-30" x="159.033203"/>
       </g>
      </g>
     </g>
     <g id="ytick_29">
      <g id="line2d_55">
       <g>
        <use xlink:href="#m5b60b90e48" x="516.972417" y="49.991332" style="stroke: #000000; stroke-width: 0.8"/>
       </g>
      </g>
      <g id="text_53">
       <!-- 0.05 -->
       <g transform="translate(487.706792 53.79055) scale(0.1 -0.1)">
        <use xlink:href="#DejaVuSans-30"/>
        <use xlink:href="#DejaVuSans-2e" x="63.623047"/>
        <use xlink:href="#DejaVuSans-30" x="95.410156"/>
        <use xlink:href="#DejaVuSans-35" x="159.033203"/>
       </g>
      </g>
     </g>
     <g id="ytick_30">
      <g id="line2d_56">
       <g>
        <use xlink:href="#m5b60b90e48" x="516.972417" y="25.409523" style="stroke: #000000; stroke-width: 0.8"/>
       </g>
      </g>
      <g id="text_54">
       <!-- 0.10 -->
       <g transform="translate(487.706792 29.208742) scale(0.1 -0.1)">
        <use xlink:href="#DejaVuSans-30"/>
        <use xlink:href="#DejaVuSans-2e" x="63.623047"/>
        <use xlink:href="#DejaVuSans-31" x="95.410156"/>
        <use xlink:href="#DejaVuSans-30" x="159.033203"/>
       </g>
      </g>
     </g>
     <g id="text_55">
      <!-- Shape function -->
      <g transform="translate(473.247417 110.25214) rotate(-90) scale(0.1 -0.1)">
       <use xlink:href="#DejaVuSans-53"/>
       <use xlink:href="#DejaVuSans-68" x="63.476562"/>
       <use xlink:href="#DejaVuSans-61" x="126.855469"/>
       <use xlink:href="#DejaVuSans-70" x="188.134766"/>
       <use xlink:href="#DejaVuSans-65" x="251.611328"/>
       <use xlink:href="#DejaVuSans-20" x="313.134766"/>
       <use xlink:href="#DejaVuSans-66" x="344.921875"/>
       <use xlink:href="#DejaVuSans-75" x="380.126953"/>
       <use xlink:href="#DejaVuSans-6e" x="443.505859"/>
       <use xlink:href="#DejaVuSans-63" x="506.884766"/>
       <use xlink:href="#DejaVuSans-74" x="561.865234"/>
       <use xlink:href="#DejaVuSans-69" x="601.074219"/>
       <use xlink:href="#DejaVuSans-6f" x="628.857422"/>
       <use xlink:href="#DejaVuSans-6e" x="690.039062"/>
      </g>
     </g>
    </g>
    <g id="patch_60">
     <path d="M 516.972417 127.363655 
L 516.972417 17.798437 
" style="fill: none; stroke: #000000; stroke-width: 0.8; stroke-linejoin: miter; stroke-linecap: square"/>
    </g>
    <g id="patch_61">
     <path d="M 653.625478 127.363655 
L 653.625478 17.798437 
" style="fill: none; stroke: #000000; stroke-width: 0.8; stroke-linejoin: miter; stroke-linecap: square"/>
    </g>
    <g id="patch_62">
     <path d="M 516.972417 127.363655 
L 653.625478 127.363655 
" style="fill: none; stroke: #000000; stroke-width: 0.8; stroke-linejoin: miter; stroke-linecap: square"/>
    </g>
    <g id="patch_63">
     <path d="M 516.972417 17.798437 
L 653.625478 17.798437 
" style="fill: none; stroke: #000000; stroke-width: 0.8; stroke-linejoin: miter; stroke-linecap: square"/>
    </g>
   </g>
   <g id="axes_10">
    <g id="patch_64">
     <path d="M 516.972417 168.998437 
L 653.625478 168.998437 
L 653.625478 147.085394 
L 516.972417 147.085394 
z
" style="fill: #ffffff"/>
    </g>
    <g id="patch_65">
     <path d="M 523.18392 168.998437 
L 578.397278 168.998437 
L 578.397278 148.128872 
L 523.18392 148.128872 
z
" clip-path="url(#p7355818b7e)" style="fill: #1f77b4"/>
    </g>
    <g id="patch_66">
     <path d="M 592.200617 168.998437 
L 647.413976 168.998437 
L 647.413976 149.734223 
L 592.200617 149.734223 
z
" clip-path="url(#p7355818b7e)" style="fill: #1f77b4"/>
    </g>
    <g id="matplotlib.axis_19">
     <g id="xtick_25">
      <g id="line2d_57">
       <g>
        <use xlink:href="#m945b2066ad" x="550.790599" y="168.998437" style="stroke: #000000; stroke-width: 0.8"/>
       </g>
      </g>
      <g id="text_56">
       <!-- 0 -->
       <g transform="translate(547.609349 183.596875) scale(0.1 -0.1)">
        <use xlink:href="#DejaVuSans-30"/>
       </g>
      </g>
     </g>
     <g id="xtick_26">
      <g id="line2d_58">
       <g>
        <use xlink:href="#m945b2066ad" x="619.807296" y="168.998437" style="stroke: #000000; stroke-width: 0.8"/>
       </g>
      </g>
      <g id="text_57">
       <!-- 1 -->
       <g transform="translate(616.626046 183.596875) scale(0.1 -0.1)">
        <use xlink:href="#DejaVuSans-31"/>
       </g>
      </g>
     </g>
     <g id="text_58">
      <!-- SEX -->
      <g transform="translate(575.540354 197.275) scale(0.1 -0.1)">
       <defs>
        <path id="DejaVuSans-58" d="M 403 4666 
L 1081 4666 
L 2241 2931 
L 3406 4666 
L 4084 4666 
L 2584 2425 
L 4184 0 
L 3506 0 
L 2194 1984 
L 872 0 
L 191 0 
L 1856 2491 
L 403 4666 
z
" transform="scale(0.015625)"/>
       </defs>
       <use xlink:href="#DejaVuSans-53"/>
       <use xlink:href="#DejaVuSans-45" x="63.476562"/>
       <use xlink:href="#DejaVuSans-58" x="126.660156"/>
      </g>
     </g>
    </g>
    <g id="matplotlib.axis_20">
     <g id="ytick_31">
      <g id="line2d_59">
       <g>
        <use xlink:href="#m5b60b90e48" x="516.972417" y="168.998437" style="stroke: #000000; stroke-width: 0.8"/>
       </g>
      </g>
      <g id="text_59">
       <!-- 0 -->
       <g transform="translate(503.609917 172.797656) scale(0.1 -0.1)">
        <use xlink:href="#DejaVuSans-30"/>
       </g>
      </g>
     </g>
     <g id="ytick_32">
      <g id="line2d_60">
       <g>
        <use xlink:href="#m5b60b90e48" x="516.972417" y="155.620511" style="stroke: #000000; stroke-width: 0.8"/>
       </g>
      </g>
      <g id="text_60">
       <!-- 25 -->
       <g transform="translate(497.247417 159.41973) scale(0.1 -0.1)">
        <use xlink:href="#DejaVuSans-32"/>
        <use xlink:href="#DejaVuSans-35" x="63.623047"/>
       </g>
      </g>
     </g>
     <g id="text_61">
      <!-- Frequency -->
      <g transform="translate(491.16773 183.871603) rotate(-90) scale(0.1 -0.1)">
       <use xlink:href="#DejaVuSans-46"/>
       <use xlink:href="#DejaVuSans-72" x="50.269531"/>
       <use xlink:href="#DejaVuSans-65" x="89.132812"/>
       <use xlink:href="#DejaVuSans-71" x="150.65625"/>
       <use xlink:href="#DejaVuSans-75" x="214.132812"/>
       <use xlink:href="#DejaVuSans-65" x="277.511719"/>
       <use xlink:href="#DejaVuSans-6e" x="339.035156"/>
       <use xlink:href="#DejaVuSans-63" x="402.414062"/>
       <use xlink:href="#DejaVuSans-79" x="457.394531"/>
      </g>
     </g>
    </g>
    <g id="patch_67">
     <path d="M 516.972417 168.998437 
L 516.972417 147.085394 
" style="fill: none; stroke: #000000; stroke-width: 0.8; stroke-linejoin: miter; stroke-linecap: square"/>
    </g>
    <g id="patch_68">
     <path d="M 653.625478 168.998437 
L 653.625478 147.085394 
" style="fill: none; stroke: #000000; stroke-width: 0.8; stroke-linejoin: miter; stroke-linecap: square"/>
    </g>
    <g id="patch_69">
     <path d="M 516.972417 168.998437 
L 653.625478 168.998437 
" style="fill: none; stroke: #000000; stroke-width: 0.8; stroke-linejoin: miter; stroke-linecap: square"/>
    </g>
    <g id="patch_70">
     <path d="M 516.972417 147.085394 
L 653.625478 147.085394 
" style="fill: none; stroke: #000000; stroke-width: 0.8; stroke-linejoin: miter; stroke-linecap: square"/>
    </g>
   </g>
  </g>
  <g id="subfigure_6">
   <g id="patch_71">
    <path d="M 494.931601 426.234801 
L 671.258131 426.234801 
L 671.258131 229.871165 
L 494.931601 229.871165 
L 494.931601 426.234801 
z
" style="fill: none"/>
   </g>
   <g id="axes_11">
    <g id="patch_72">
     <path d="M 516.972417 363.000019 
L 653.625478 363.000019 
L 653.625478 253.434801 
L 516.972417 253.434801 
z
" style="fill: #ffffff"/>
    </g>
    <g id="matplotlib.axis_21"/>
    <g id="matplotlib.axis_22">
     <g id="ytick_33">
      <g id="line2d_61">
       <g>
        <use xlink:href="#m5b60b90e48" x="516.972417" y="340.413484" style="stroke: #000000; stroke-width: 0.8"/>
       </g>
      </g>
      <g id="text_62">
       <!-- 0.975 -->
       <g transform="translate(481.344292 344.212703) scale(0.1 -0.1)">
        <defs>
         <path id="DejaVuSans-39" d="M 703 97 
L 703 672 
Q 941 559 1184 500 
Q 1428 441 1663 441 
Q 2288 441 2617 861 
Q 2947 1281 2994 2138 
Q 2813 1869 2534 1725 
Q 2256 1581 1919 1581 
Q 1219 1581 811 2004 
Q 403 2428 403 3163 
Q 403 3881 828 4315 
Q 1253 4750 1959 4750 
Q 2769 4750 3195 4129 
Q 3622 3509 3622 2328 
Q 3622 1225 3098 567 
Q 2575 -91 1691 -91 
Q 1453 -91 1209 -44 
Q 966 3 703 97 
z
M 1959 2075 
Q 2384 2075 2632 2365 
Q 2881 2656 2881 3163 
Q 2881 3666 2632 3958 
Q 2384 4250 1959 4250 
Q 1534 4250 1286 3958 
Q 1038 3666 1038 3163 
Q 1038 2656 1286 2365 
Q 1534 2075 1959 2075 
z
" transform="scale(0.015625)"/>
        </defs>
        <use xlink:href="#DejaVuSans-30"/>
        <use xlink:href="#DejaVuSans-2e" x="63.623047"/>
        <use xlink:href="#DejaVuSans-39" x="95.410156"/>
        <use xlink:href="#DejaVuSans-37" x="159.033203"/>
        <use xlink:href="#DejaVuSans-35" x="222.65625"/>
       </g>
      </g>
     </g>
     <g id="ytick_34">
      <g id="line2d_62">
       <g>
        <use xlink:href="#m5b60b90e48" x="516.972417" y="315.699347" style="stroke: #000000; stroke-width: 0.8"/>
       </g>
      </g>
      <g id="text_63">
       <!-- 1.000 -->
       <g transform="translate(481.344292 319.498565) scale(0.1 -0.1)">
        <use xlink:href="#DejaVuSans-31"/>
        <use xlink:href="#DejaVuSans-2e" x="63.623047"/>
        <use xlink:href="#DejaVuSans-30" x="95.410156"/>
        <use xlink:href="#DejaVuSans-30" x="159.033203"/>
        <use xlink:href="#DejaVuSans-30" x="222.65625"/>
       </g>
      </g>
     </g>
     <g id="ytick_35">
      <g id="line2d_63">
       <g>
        <use xlink:href="#m5b60b90e48" x="516.972417" y="290.985209" style="stroke: #000000; stroke-width: 0.8"/>
       </g>
      </g>
      <g id="text_64">
       <!-- 1.025 -->
       <g transform="translate(481.344292 294.784428) scale(0.1 -0.1)">
        <use xlink:href="#DejaVuSans-31"/>
        <use xlink:href="#DejaVuSans-2e" x="63.623047"/>
        <use xlink:href="#DejaVuSans-30" x="95.410156"/>
        <use xlink:href="#DejaVuSans-32" x="159.033203"/>
        <use xlink:href="#DejaVuSans-35" x="222.65625"/>
       </g>
      </g>
     </g>
     <g id="ytick_36">
      <g id="line2d_64">
       <g>
        <use xlink:href="#m5b60b90e48" x="516.972417" y="266.271072" style="stroke: #000000; stroke-width: 0.8"/>
       </g>
      </g>
      <g id="text_65">
       <!-- 1.050 -->
       <g transform="translate(481.344292 270.070291) scale(0.1 -0.1)">
        <use xlink:href="#DejaVuSans-31"/>
        <use xlink:href="#DejaVuSans-2e" x="63.623047"/>
        <use xlink:href="#DejaVuSans-30" x="95.410156"/>
        <use xlink:href="#DejaVuSans-35" x="159.033203"/>
        <use xlink:href="#DejaVuSans-30" x="222.65625"/>
       </g>
      </g>
     </g>
     <g id="text_66">
      <!-- Bias -->
      <g transform="translate(475.264605 318.705691) rotate(-90) scale(0.1 -0.1)">
       <defs>
        <path id="DejaVuSans-42" d="M 1259 2228 
L 1259 519 
L 2272 519 
Q 2781 519 3026 730 
Q 3272 941 3272 1375 
Q 3272 1813 3026 2020 
Q 2781 2228 2272 2228 
L 1259 2228 
z
M 1259 4147 
L 1259 2741 
L 2194 2741 
Q 2656 2741 2882 2914 
Q 3109 3088 3109 3444 
Q 3109 3797 2882 3972 
Q 2656 4147 2194 4147 
L 1259 4147 
z
M 628 4666 
L 2241 4666 
Q 2963 4666 3353 4366 
Q 3744 4066 3744 3513 
Q 3744 3084 3544 2831 
Q 3344 2578 2956 2516 
Q 3422 2416 3680 2098 
Q 3938 1781 3938 1306 
Q 3938 681 3513 340 
Q 3088 0 2303 0 
L 628 0 
L 628 4666 
z
" transform="scale(0.015625)"/>
        <path id="DejaVuSans-73" d="M 2834 3397 
L 2834 2853 
Q 2591 2978 2328 3040 
Q 2066 3103 1784 3103 
Q 1356 3103 1142 2972 
Q 928 2841 928 2578 
Q 928 2378 1081 2264 
Q 1234 2150 1697 2047 
L 1894 2003 
Q 2506 1872 2764 1633 
Q 3022 1394 3022 966 
Q 3022 478 2636 193 
Q 2250 -91 1575 -91 
Q 1294 -91 989 -36 
Q 684 19 347 128 
L 347 722 
Q 666 556 975 473 
Q 1284 391 1588 391 
Q 1994 391 2212 530 
Q 2431 669 2431 922 
Q 2431 1156 2273 1281 
Q 2116 1406 1581 1522 
L 1381 1569 
Q 847 1681 609 1914 
Q 372 2147 372 2553 
Q 372 3047 722 3315 
Q 1072 3584 1716 3584 
Q 2034 3584 2315 3537 
Q 2597 3491 2834 3397 
z
" transform="scale(0.015625)"/>
       </defs>
       <use xlink:href="#DejaVuSans-42"/>
       <use xlink:href="#DejaVuSans-69" x="68.603516"/>
       <use xlink:href="#DejaVuSans-61" x="96.386719"/>
       <use xlink:href="#DejaVuSans-73" x="157.666016"/>
      </g>
     </g>
    </g>
    <g id="line2d_65">
     <path d="M 523.18392 308.21741 
L 524.438769 308.21741 
L 525.693618 308.21741 
L 526.948467 308.21741 
L 528.203316 308.21741 
L 529.458165 308.21741 
L 530.713014 308.21741 
L 531.967863 308.21741 
L 533.222712 308.21741 
L 534.477561 308.21741 
L 535.73241 308.21741 
L 536.987259 308.21741 
L 538.242108 308.21741 
L 539.496957 308.21741 
L 540.751807 308.21741 
L 542.006656 308.21741 
L 543.261505 308.21741 
L 544.516354 308.21741 
L 545.771203 308.21741 
L 547.026052 308.21741 
L 548.280901 308.21741 
L 549.53575 308.21741 
L 550.790599 308.21741 
L 552.045448 308.21741 
L 553.300297 308.21741 
L 554.555146 308.21741 
L 555.809995 308.21741 
L 557.064844 308.21741 
L 558.319693 308.21741 
L 559.574542 308.21741 
L 560.829391 308.21741 
L 562.08424 308.21741 
L 563.339089 308.21741 
L 564.593938 308.21741 
L 565.848787 308.21741 
L 567.103637 308.21741 
L 568.358486 308.21741 
L 569.613335 308.21741 
L 570.868184 308.21741 
L 572.123033 308.21741 
L 573.377882 308.21741 
L 574.632731 308.21741 
L 575.88758 308.21741 
L 577.142429 308.21741 
L 578.397278 308.21741 
L 579.652127 308.21741 
L 580.906976 308.21741 
L 582.161825 308.21741 
L 583.416674 308.21741 
L 584.671523 308.21741 
L 585.926372 308.21741 
L 587.181221 308.21741 
L 588.43607 308.21741 
L 589.690919 308.21741 
L 590.945768 308.21741 
L 592.200617 308.21741 
L 593.455467 308.21741 
L 594.710316 308.21741 
L 595.965165 308.21741 
L 597.220014 308.21741 
L 598.474863 308.21741 
L 599.729712 308.21741 
L 600.984561 308.21741 
L 602.23941 308.21741 
L 603.494259 308.21741 
L 604.749108 308.21741 
L 606.003957 308.21741 
L 607.258806 308.21741 
L 608.513655 308.21741 
L 609.768504 308.21741 
L 611.023353 308.21741 
L 612.278202 308.21741 
L 613.533051 308.21741 
L 614.7879 308.21741 
L 616.042749 308.21741 
L 617.297598 308.21741 
L 618.552447 308.21741 
L 619.807296 308.21741 
L 621.062146 308.21741 
L 622.316995 308.21741 
L 623.571844 308.21741 
L 624.826693 308.21741 
L 626.081542 308.21741 
L 627.336391 308.21741 
L 628.59124 308.21741 
L 629.846089 308.21741 
L 631.100938 308.21741 
L 632.355787 308.21741 
L 633.610636 308.21741 
L 634.865485 308.21741 
L 636.120334 308.21741 
L 637.375183 308.21741 
L 638.630032 308.21741 
L 639.884881 308.21741 
L 641.13973 308.21741 
L 642.394579 308.21741 
L 643.649428 308.21741 
L 644.904277 308.21741 
L 646.159126 308.21741 
L 647.413976 308.21741 
" clip-path="url(#p7b83e4f4eb)" style="fill: none; stroke: #1f77b4; stroke-width: 1.5; stroke-linecap: square"/>
    </g>
    <g id="patch_73">
     <path d="M 516.972417 363.000019 
L 516.972417 253.434801 
" style="fill: none; stroke: #000000; stroke-width: 0.8; stroke-linejoin: miter; stroke-linecap: square"/>
    </g>
    <g id="patch_74">
     <path d="M 653.625478 363.000019 
L 653.625478 253.434801 
" style="fill: none; stroke: #000000; stroke-width: 0.8; stroke-linejoin: miter; stroke-linecap: square"/>
    </g>
    <g id="patch_75">
     <path d="M 516.972417 363.000019 
L 653.625478 363.000019 
" style="fill: none; stroke: #000000; stroke-width: 0.8; stroke-linejoin: miter; stroke-linecap: square"/>
    </g>
    <g id="patch_76">
     <path d="M 516.972417 253.434801 
L 653.625478 253.434801 
" style="fill: none; stroke: #000000; stroke-width: 0.8; stroke-linejoin: miter; stroke-linecap: square"/>
    </g>
   </g>
   <g id="axes_12">
    <g id="patch_77">
     <path d="M 516.972417 404.634801 
L 653.625478 404.634801 
L 653.625478 382.721758 
L 516.972417 382.721758 
z
" style="fill: #ffffff"/>
    </g>
    <g id="matplotlib.axis_23"/>
    <g id="matplotlib.axis_24"/>
    <g id="patch_78">
     <path d="M 516.972417 404.634801 
L 516.972417 382.721758 
" style="fill: none; stroke: #000000; stroke-width: 0.8; stroke-linejoin: miter; stroke-linecap: square"/>
    </g>
    <g id="patch_79">
     <path d="M 653.625478 404.634801 
L 653.625478 382.721758 
" style="fill: none; stroke: #000000; stroke-width: 0.8; stroke-linejoin: miter; stroke-linecap: square"/>
    </g>
    <g id="patch_80">
     <path d="M 516.972417 404.634801 
L 653.625478 404.634801 
" style="fill: none; stroke: #000000; stroke-width: 0.8; stroke-linejoin: miter; stroke-linecap: square"/>
    </g>
    <g id="patch_81">
     <path d="M 516.972417 382.721758 
L 653.625478 382.721758 
" style="fill: none; stroke: #000000; stroke-width: 0.8; stroke-linejoin: miter; stroke-linecap: square"/>
    </g>
   </g>
  </g>
  <g id="subfigure_7">
   <g id="patch_82">
    <path d="M 724.156091 190.598437 
L 900.482621 190.598437 
L 900.482621 -1 
M 724.156091 -1 
L 724.156091 190.598437 
" style="fill: none"/>
   </g>
   <g id="axes_13">
    <g id="patch_83">
     <path d="M 746.196907 127.363655 
L 882.849968 127.363655 
L 882.849968 17.798437 
L 746.196907 17.798437 
z
" style="fill: #ffffff"/>
    </g>
    <g id="matplotlib.axis_25">
     <g id="xtick_27">
      <g id="line2d_66">
       <g>
        <use xlink:href="#m945b2066ad" x="766.853765" y="127.363655" style="stroke: #000000; stroke-width: 0.8"/>
       </g>
      </g>
     </g>
     <g id="xtick_28">
      <g id="line2d_67">
       <g>
        <use xlink:href="#m945b2066ad" x="802.967153" y="127.363655" style="stroke: #000000; stroke-width: 0.8"/>
       </g>
      </g>
     </g>
     <g id="xtick_29">
      <g id="line2d_68">
       <g>
        <use xlink:href="#m945b2066ad" x="839.080542" y="127.363655" style="stroke: #000000; stroke-width: 0.8"/>
       </g>
      </g>
     </g>
     <g id="xtick_30">
      <g id="line2d_69">
       <g>
        <use xlink:href="#m945b2066ad" x="875.19393" y="127.363655" style="stroke: #000000; stroke-width: 0.8"/>
       </g>
      </g>
     </g>
    </g>
    <g id="matplotlib.axis_26">
     <g id="ytick_37">
      <g id="line2d_70">
       <g>
        <use xlink:href="#m5b60b90e48" x="746.196907" y="118.065512" style="stroke: #000000; stroke-width: 0.8"/>
       </g>
      </g>
      <g id="text_67">
       <!-- 0 -->
       <g transform="translate(732.834407 121.86473) scale(0.1 -0.1)">
        <use xlink:href="#DejaVuSans-30"/>
       </g>
      </g>
     </g>
     <g id="ytick_38">
      <g id="line2d_71">
       <g>
        <use xlink:href="#m5b60b90e48" x="746.196907" y="85.846313" style="stroke: #000000; stroke-width: 0.8"/>
       </g>
      </g>
      <g id="text_68">
       <!-- 1 -->
       <g transform="translate(732.834407 89.645532) scale(0.1 -0.1)">
        <use xlink:href="#DejaVuSans-31"/>
       </g>
      </g>
     </g>
     <g id="ytick_39">
      <g id="line2d_72">
       <g>
        <use xlink:href="#m5b60b90e48" x="746.196907" y="53.627114" style="stroke: #000000; stroke-width: 0.8"/>
       </g>
      </g>
      <g id="text_69">
       <!-- 2 -->
       <g transform="translate(732.834407 57.426333) scale(0.1 -0.1)">
        <use xlink:href="#DejaVuSans-32"/>
       </g>
      </g>
     </g>
     <g id="ytick_40">
      <g id="line2d_73">
       <g>
        <use xlink:href="#m5b60b90e48" x="746.196907" y="21.407916" style="stroke: #000000; stroke-width: 0.8"/>
       </g>
      </g>
      <g id="text_70">
       <!-- 3 -->
       <g transform="translate(732.834407 25.207135) scale(0.1 -0.1)">
        <defs>
         <path id="DejaVuSans-33" d="M 2597 2516 
Q 3050 2419 3304 2112 
Q 3559 1806 3559 1356 
Q 3559 666 3084 287 
Q 2609 -91 1734 -91 
Q 1441 -91 1130 -33 
Q 819 25 488 141 
L 488 750 
Q 750 597 1062 519 
Q 1375 441 1716 441 
Q 2309 441 2620 675 
Q 2931 909 2931 1356 
Q 2931 1769 2642 2001 
Q 2353 2234 1838 2234 
L 1294 2234 
L 1294 2753 
L 1863 2753 
Q 2328 2753 2575 2939 
Q 2822 3125 2822 3475 
Q 2822 3834 2567 4026 
Q 2313 4219 1838 4219 
Q 1578 4219 1281 4162 
Q 984 4106 628 3988 
L 628 4550 
Q 988 4650 1302 4700 
Q 1616 4750 1894 4750 
Q 2613 4750 3031 4423 
Q 3450 4097 3450 3541 
Q 3450 3153 3228 2886 
Q 3006 2619 2597 2516 
z
" transform="scale(0.015625)"/>
        </defs>
        <use xlink:href="#DejaVuSans-33"/>
       </g>
      </g>
     </g>
     <g id="text_71">
      <!-- Shape function -->
      <g transform="translate(726.754719 110.25214) rotate(-90) scale(0.1 -0.1)">
       <use xlink:href="#DejaVuSans-53"/>
       <use xlink:href="#DejaVuSans-68" x="63.476562"/>
       <use xlink:href="#DejaVuSans-61" x="126.855469"/>
       <use xlink:href="#DejaVuSans-70" x="188.134766"/>
       <use xlink:href="#DejaVuSans-65" x="251.611328"/>
       <use xlink:href="#DejaVuSans-20" x="313.134766"/>
       <use xlink:href="#DejaVuSans-66" x="344.921875"/>
       <use xlink:href="#DejaVuSans-75" x="380.126953"/>
       <use xlink:href="#DejaVuSans-6e" x="443.505859"/>
       <use xlink:href="#DejaVuSans-63" x="506.884766"/>
       <use xlink:href="#DejaVuSans-74" x="561.865234"/>
       <use xlink:href="#DejaVuSans-69" x="601.074219"/>
       <use xlink:href="#DejaVuSans-6f" x="628.857422"/>
       <use xlink:href="#DejaVuSans-6e" x="690.039062"/>
      </g>
     </g>
     <g id="text_72">
      <!-- 1e−5 -->
      <g transform="translate(746.196907 14.798437) scale(0.1 -0.1)">
       <use xlink:href="#DejaVuSans-31"/>
       <use xlink:href="#DejaVuSans-65" x="63.623047"/>
       <use xlink:href="#DejaVuSans-2212" x="125.146484"/>
       <use xlink:href="#DejaVuSans-35" x="208.935547"/>
      </g>
     </g>
    </g>
    <g id="line2d_74">
     <path d="M 752.40841 22.778675 
L 753.663259 29.583614 
L 754.918108 36.007254 
L 756.172957 42.065226 
L 757.427806 47.772761 
L 758.682655 53.144862 
L 759.937504 58.196105 
L 761.192353 62.940778 
L 762.447202 67.3928 
L 763.702051 71.565844 
L 764.9569 75.473072 
L 766.211749 79.127526 
L 767.466598 82.541705 
L 768.721447 85.727841 
L 769.976296 88.697719 
L 771.231145 91.462815 
L 772.485994 94.034169 
L 773.740843 96.42259 
L 774.995693 98.638378 
L 776.250542 100.69146 
L 777.505391 102.591418 
L 778.76024 104.347487 
L 780.015089 105.968479 
L 781.269938 107.462861 
L 782.524787 108.838705 
L 783.779636 110.103763 
L 785.034485 111.265372 
L 786.289334 112.330557 
L 787.544183 113.306009 
L 788.799032 114.198015 
L 790.053881 115.012593 
L 791.30873 115.755395 
L 792.563579 116.431788 
L 793.818428 117.046821 
L 795.073277 117.605229 
L 796.328126 118.111491 
L 797.582975 118.569781 
L 798.837824 118.984028 
L 800.092673 119.357888 
L 801.347523 119.694779 
L 802.602372 119.997893 
L 803.857221 120.270184 
L 805.11207 120.514401 
L 806.366919 120.733085 
L 807.621768 120.928594 
L 808.876617 121.103099 
L 810.131466 121.258598 
L 811.386315 121.396936 
L 812.641164 121.519797 
L 813.896013 121.628731 
L 815.150862 121.725147 
L 816.405711 121.810274 
L 817.66056 121.885201 
L 818.915409 121.950961 
L 820.170258 122.008526 
L 821.425107 122.058796 
L 822.679956 122.102602 
L 823.934805 122.140703 
L 825.189654 122.173787 
L 826.444503 122.202471 
L 827.699352 122.227308 
L 828.954202 122.248793 
L 830.209051 122.26736 
L 831.4639 122.283397 
L 832.718749 122.29724 
L 833.973598 122.309185 
L 835.228447 122.319492 
L 836.483296 122.328384 
L 837.738145 122.336056 
L 838.992994 122.342679 
L 840.247843 122.348397 
L 841.502692 122.353337 
L 842.757541 122.357606 
L 844.01239 122.361298 
L 845.267239 122.364493 
L 846.522088 122.36726 
L 847.776937 122.369658 
L 849.031786 122.371737 
L 850.286635 122.37354 
L 851.541484 122.375105 
L 852.796333 122.376462 
L 854.051182 122.37764 
L 855.306032 122.37866 
L 856.560881 122.379542 
L 857.81573 122.380303 
L 859.070579 122.380957 
L 860.325428 122.381516 
L 861.580277 122.38199 
L 862.835126 122.382386 
L 864.089975 122.382712 
L 865.344824 122.382972 
L 866.599673 122.383171 
L 867.854522 122.38331 
L 869.109371 122.383393 
L 870.36422 122.383418 
L 871.619069 122.383385 
L 872.873918 122.383291 
L 874.128767 122.383132 
L 875.383616 122.382904 
L 876.638465 122.382597 
" clip-path="url(#pd6a7b2b087)" style="fill: none; stroke: #1f77b4; stroke-width: 1.5; stroke-linecap: square"/>
    </g>
    <g id="patch_84">
     <path d="M 746.196907 127.363655 
L 746.196907 17.798437 
" style="fill: none; stroke: #000000; stroke-width: 0.8; stroke-linejoin: miter; stroke-linecap: square"/>
    </g>
    <g id="patch_85">
     <path d="M 882.849968 127.363655 
L 882.849968 17.798437 
" style="fill: none; stroke: #000000; stroke-width: 0.8; stroke-linejoin: miter; stroke-linecap: square"/>
    </g>
    <g id="patch_86">
     <path d="M 746.196907 127.363655 
L 882.849968 127.363655 
" style="fill: none; stroke: #000000; stroke-width: 0.8; stroke-linejoin: miter; stroke-linecap: square"/>
    </g>
    <g id="patch_87">
     <path d="M 746.196907 17.798437 
L 882.849968 17.798437 
" style="fill: none; stroke: #000000; stroke-width: 0.8; stroke-linejoin: miter; stroke-linecap: square"/>
    </g>
   </g>
   <g id="axes_14">
    <g id="patch_88">
     <path d="M 746.196907 168.998437 
L 882.849968 168.998437 
L 882.849968 147.085394 
L 746.196907 147.085394 
z
" style="fill: #ffffff"/>
    </g>
    <g id="patch_89">
     <path d="M 752.40841 168.998437 
L 752.40841 166.017071 
L 758.619912 166.017071 
L 758.619912 168.998437 
L 764.831415 168.998437 
L 764.831415 168.998437 
L 771.042918 168.998437 
L 771.042918 163.035705 
L 777.254421 163.035705 
L 777.254421 151.110239 
L 783.465924 151.110239 
L 783.465924 160.054338 
L 789.677426 160.054338 
L 789.677426 160.054338 
L 795.888929 160.054338 
L 795.888929 148.128872 
L 802.100432 148.128872 
L 802.100432 148.128872 
L 808.311935 148.128872 
L 808.311935 154.091605 
L 814.523437 154.091605 
L 814.523437 148.128872 
L 820.73494 148.128872 
L 820.73494 154.091605 
L 826.946443 154.091605 
L 826.946443 157.072972 
L 833.157946 157.072972 
L 833.157946 151.110239 
L 839.369449 151.110239 
L 839.369449 163.035705 
L 845.580951 163.035705 
L 845.580951 157.072972 
L 851.792454 157.072972 
L 851.792454 157.072972 
L 858.003957 157.072972 
L 858.003957 163.035705 
L 864.21546 163.035705 
L 864.21546 154.091605 
L 870.426963 154.091605 
L 870.426963 163.035705 
L 876.638465 163.035705 
L 876.638465 168.998437 
" clip-path="url(#paddd86554c)" style="fill: #1f77b4"/>
    </g>
    <g id="matplotlib.axis_27">
     <g id="xtick_31">
      <g id="line2d_75">
       <g>
        <use xlink:href="#m945b2066ad" x="766.853765" y="168.998437" style="stroke: #000000; stroke-width: 0.8"/>
       </g>
      </g>
      <g id="text_73">
       <!-- 7.5 -->
       <g transform="translate(758.902202 183.596875) scale(0.1 -0.1)">
        <use xlink:href="#DejaVuSans-37"/>
        <use xlink:href="#DejaVuSans-2e" x="63.623047"/>
        <use xlink:href="#DejaVuSans-35" x="95.410156"/>
       </g>
      </g>
     </g>
     <g id="xtick_32">
      <g id="line2d_76">
       <g>
        <use xlink:href="#m945b2066ad" x="802.967153" y="168.998437" style="stroke: #000000; stroke-width: 0.8"/>
       </g>
      </g>
      <g id="text_74">
       <!-- 10.0 -->
       <g transform="translate(791.834341 183.596875) scale(0.1 -0.1)">
        <use xlink:href="#DejaVuSans-31"/>
        <use xlink:href="#DejaVuSans-30" x="63.623047"/>
        <use xlink:href="#DejaVuSans-2e" x="127.246094"/>
        <use xlink:href="#DejaVuSans-30" x="159.033203"/>
       </g>
      </g>
     </g>
     <g id="xtick_33">
      <g id="line2d_77">
       <g>
        <use xlink:href="#m945b2066ad" x="839.080542" y="168.998437" style="stroke: #000000; stroke-width: 0.8"/>
       </g>
      </g>
      <g id="text_75">
       <!-- 12.5 -->
       <g transform="translate(827.947729 183.596875) scale(0.1 -0.1)">
        <use xlink:href="#DejaVuSans-31"/>
        <use xlink:href="#DejaVuSans-32" x="63.623047"/>
        <use xlink:href="#DejaVuSans-2e" x="127.246094"/>
        <use xlink:href="#DejaVuSans-35" x="159.033203"/>
       </g>
      </g>
     </g>
     <g id="xtick_34">
      <g id="line2d_78">
       <g>
        <use xlink:href="#m945b2066ad" x="875.19393" y="168.998437" style="stroke: #000000; stroke-width: 0.8"/>
       </g>
      </g>
      <g id="text_76">
       <!-- 15.0 -->
       <g transform="translate(864.061117 183.596875) scale(0.1 -0.1)">
        <use xlink:href="#DejaVuSans-31"/>
        <use xlink:href="#DejaVuSans-35" x="63.623047"/>
        <use xlink:href="#DejaVuSans-2e" x="127.246094"/>
        <use xlink:href="#DejaVuSans-30" x="159.033203"/>
       </g>
      </g>
     </g>
     <g id="text_77">
      <!-- HB -->
      <g transform="translate(807.332812 197.275) scale(0.1 -0.1)">
       <defs>
        <path id="DejaVuSans-48" d="M 628 4666 
L 1259 4666 
L 1259 2753 
L 3553 2753 
L 3553 4666 
L 4184 4666 
L 4184 0 
L 3553 0 
L 3553 2222 
L 1259 2222 
L 1259 0 
L 628 0 
L 628 4666 
z
" transform="scale(0.015625)"/>
       </defs>
       <use xlink:href="#DejaVuSans-48"/>
       <use xlink:href="#DejaVuSans-42" x="75.195312"/>
      </g>
     </g>
    </g>
    <g id="matplotlib.axis_28">
     <g id="ytick_41">
      <g id="line2d_79">
       <g>
        <use xlink:href="#m5b60b90e48" x="746.196907" y="168.998437" style="stroke: #000000; stroke-width: 0.8"/>
       </g>
      </g>
      <g id="text_78">
       <!-- 0 -->
       <g transform="translate(732.834407 172.797656) scale(0.1 -0.1)">
        <use xlink:href="#DejaVuSans-30"/>
       </g>
      </g>
     </g>
     <g id="ytick_42">
      <g id="line2d_80">
       <g>
        <use xlink:href="#m5b60b90e48" x="746.196907" y="154.091605" style="stroke: #000000; stroke-width: 0.8"/>
       </g>
      </g>
      <g id="text_79">
       <!-- 5 -->
       <g transform="translate(732.834407 157.890824) scale(0.1 -0.1)">
        <use xlink:href="#DejaVuSans-35"/>
       </g>
      </g>
     </g>
     <g id="text_80">
      <!-- Frequency -->
      <g transform="translate(726.754719 183.871603) rotate(-90) scale(0.1 -0.1)">
       <use xlink:href="#DejaVuSans-46"/>
       <use xlink:href="#DejaVuSans-72" x="50.269531"/>
       <use xlink:href="#DejaVuSans-65" x="89.132812"/>
       <use xlink:href="#DejaVuSans-71" x="150.65625"/>
       <use xlink:href="#DejaVuSans-75" x="214.132812"/>
       <use xlink:href="#DejaVuSans-65" x="277.511719"/>
       <use xlink:href="#DejaVuSans-6e" x="339.035156"/>
       <use xlink:href="#DejaVuSans-63" x="402.414062"/>
       <use xlink:href="#DejaVuSans-79" x="457.394531"/>
      </g>
     </g>
    </g>
    <g id="patch_90">
     <path d="M 746.196907 168.998437 
L 746.196907 147.085394 
" style="fill: none; stroke: #000000; stroke-width: 0.8; stroke-linejoin: miter; stroke-linecap: square"/>
    </g>
    <g id="patch_91">
     <path d="M 882.849968 168.998437 
L 882.849968 147.085394 
" style="fill: none; stroke: #000000; stroke-width: 0.8; stroke-linejoin: miter; stroke-linecap: square"/>
    </g>
    <g id="patch_92">
     <path d="M 746.196907 168.998437 
L 882.849968 168.998437 
" style="fill: none; stroke: #000000; stroke-width: 0.8; stroke-linejoin: miter; stroke-linecap: square"/>
    </g>
    <g id="patch_93">
     <path d="M 746.196907 147.085394 
L 882.849968 147.085394 
" style="fill: none; stroke: #000000; stroke-width: 0.8; stroke-linejoin: miter; stroke-linecap: square"/>
    </g>
   </g>
  </g>
  <g id="subfigure_8">
   <g id="patch_94">
    <path d="M 724.156091 426.234801 
L 900.482621 426.234801 
L 900.482621 229.871165 
L 724.156091 229.871165 
L 724.156091 426.234801 
z
" style="fill: none"/>
   </g>
  </g>
 </g>
 <defs>
  <clipPath id="p97eedda03d">
   <rect x="58.523438" y="17.798437" width="136.653061" height="109.565217"/>
  </clipPath>
  <clipPath id="pe09971622b">
   <rect x="58.523438" y="147.085394" width="136.653061" height="21.913043"/>
  </clipPath>
  <clipPath id="p38bda8db73">
   <rect x="58.523438" y="253.434801" width="136.653061" height="109.565217"/>
  </clipPath>
  <clipPath id="pe5317d4414">
   <rect x="58.523438" y="382.721758" width="136.653061" height="21.913043"/>
  </clipPath>
  <clipPath id="p7191a4bd35">
   <rect x="287.747927" y="17.798437" width="136.653061" height="109.565217"/>
  </clipPath>
  <clipPath id="pc79c17c165">
   <rect x="287.747927" y="147.085394" width="136.653061" height="21.913043"/>
  </clipPath>
  <clipPath id="p2c7956c9ce">
   <rect x="287.747927" y="253.434801" width="136.653061" height="109.565217"/>
  </clipPath>
  <clipPath id="pb6255c2b51">
   <rect x="287.747927" y="382.721758" width="136.653061" height="21.913043"/>
  </clipPath>
  <clipPath id="pf1369ba05a">
   <rect x="516.972417" y="17.798437" width="136.653061" height="109.565217"/>
  </clipPath>
  <clipPath id="p7355818b7e">
   <rect x="516.972417" y="147.085394" width="136.653061" height="21.913043"/>
  </clipPath>
  <clipPath id="p7b83e4f4eb">
   <rect x="516.972417" y="253.434801" width="136.653061" height="109.565217"/>
  </clipPath>
  <clipPath id="pd6a7b2b087">
   <rect x="746.196907" y="17.798437" width="136.653061" height="109.565217"/>
  </clipPath>
  <clipPath id="paddd86554c">
   <rect x="746.196907" y="147.085394" width="136.653061" height="21.913043"/>
  </clipPath>
 </defs>
</svg>
